<svg width="375" height="812" viewBox="0 0 375 812" fill="none" xmlns="http://www.w3.org/2000/svg">
<g clip-path="url(#clip0_4_2254)">
<rect width="375" height="812" fill="#3F3C36"/>
<g opacity="0.64">
<mask id="mask0_4_2254" style="mask-type:luminance" maskUnits="userSpaceOnUse" x="-106" y="44" width="729" height="498">
<path d="M307.087 73.4405C205.222 27.0911 64.6581 34.5856 29.7093 102.989C7.48585 146.42 35.9798 203.12 5.24197 240.716C-14.6761 265.073 -25.0962 268.022 -49.502 287.864C-70.4037 304.85 -88.5697 321.466 -98.4058 347.667C-112.084 384.034 -106.336 425.96 -84.9427 457.965C-66.5307 485.517 -34.5327 499.769 -4.68633 511.195C37.7318 527.413 84.1458 534.293 129.361 532.296C191.79 529.563 253.665 508.123 315.601 516.417C345.663 520.44 374.403 531.375 404.157 537.303C461.514 548.698 532.426 539.33 566.76 485.271C581.207 462.511 586.37 435.605 583.143 408.913C579.577 379.488 571.124 349.202 577.149 319.501C583.85 286.512 607.887 259.698 618.092 227.662C635.551 172.897 604.291 107.135 550.93 86.3716C529.967 78.2013 507.067 76.4813 484.567 76.3584C424.444 75.9898 361.892 98.3813 307.087 73.4405Z" fill="white"/>
</mask>
<g mask="url(#mask0_4_2254)">
<path d="M678 0H-149V562.458H678V0Z" fill="#5A554E"/>
</g>
<mask id="mask1_4_2254" style="mask-type:luminance" maskUnits="userSpaceOnUse" x="-106" y="44" width="729" height="498">
<path d="M307.087 73.4405C205.222 27.0911 64.6581 34.5856 29.7093 102.989C7.48585 146.42 35.9798 203.12 5.24197 240.716C-14.6761 265.073 -25.0962 268.022 -49.502 287.864C-70.4037 304.85 -88.5697 321.466 -98.4058 347.667C-112.084 384.034 -106.336 425.96 -84.9427 457.965C-66.5307 485.517 -34.5327 499.769 -4.68633 511.195C37.7318 527.413 84.1458 534.293 129.361 532.296C191.79 529.563 253.665 508.123 315.601 516.417C345.663 520.44 374.403 531.375 404.157 537.303C461.514 548.698 532.426 539.33 566.76 485.271C581.207 462.511 586.37 435.605 583.143 408.913C579.577 379.488 571.124 349.202 577.149 319.501C583.85 286.512 607.887 259.698 618.092 227.662C635.551 172.897 604.291 107.135 550.93 86.3716C529.967 78.2013 507.067 76.4813 484.567 76.3584C424.444 75.9898 361.892 98.3813 307.087 73.4405Z" fill="white"/>
</mask>
<g mask="url(#mask1_4_2254)">
<path d="M80.4575 439.751C65.2423 478.145 54.5762 525.631 45.2627 562.459L549.362 570.967C561.995 528.273 566.575 467.825 558.368 423.841C555.909 410.694 551.36 397.794 546.719 385.6C494.495 427.956 420.54 457.996 351.811 466.903C260.796 478.913 164.433 475.872 80.4575 439.751Z" fill="#5A554E"/>
</g>
</g>
<path d="M88.1728 128.544L78.306 133.919C72.3121 138.403 73.1113 139.847 71.7281 147.219L68.2547 169.119C68.1318 169.856 67.056 169.856 66.933 169.119L63.5211 147.341C62.1687 140.001 62.2916 138.403 56.3592 133.919L47.0149 128.544C46.6461 128.267 46.6461 127.745 47.0149 127.469L57.5887 122.431C63.4904 117.947 63.1522 114.968 64.5047 107.657L66.933 86.9552C67.056 86.2181 68.1318 86.2181 68.2547 86.9552L71.1133 108.394C72.4351 115.643 73.1728 118.684 79.0437 123.169L88.2035 127.438C88.5417 127.745 88.5417 128.298 88.1728 128.544Z" fill="#C9C7C5"/>
<path d="M127.333 180.913L120.478 184.66C116.298 187.762 116.882 188.776 115.898 193.905L113.501 209.11C113.408 209.632 112.671 209.601 112.578 209.11L110.212 193.998C109.259 188.899 109.382 187.793 105.232 184.66L98.7772 180.913C98.5313 180.729 98.5313 180.36 98.7772 180.176L106.124 176.674C110.212 173.541 109.996 171.483 110.919 166.415L112.609 152.041C112.701 151.518 113.439 151.518 113.531 152.041L115.499 166.937C116.421 171.975 116.943 174.063 121.001 177.196L127.363 180.176C127.579 180.36 127.579 180.729 127.333 180.913Z" fill="#C9C7C5"/>
<path d="M223.388 200.479C202.855 187.425 196.185 157.999 209.034 137.021C221.882 116.042 252.251 106.674 274.597 116.841C283.511 120.895 291.626 127.683 301.616 127.745C311.452 127.806 319.997 121.264 328.942 117.025C346.093 108.916 368.225 109.684 381.841 121.817C388.542 127.776 392.968 136.069 400.53 141.014C410.243 147.372 423.276 147.034 435.11 144.976C446.944 142.918 458.778 139.386 470.674 140.215C482.538 141.045 493.85 146.389 501.596 154.866C512.139 166.385 516.903 183.739 531.596 189.913C537.528 192.401 544.26 192.616 550.776 193.353C576.657 196.24 602.446 209.601 612.344 232.484C622.58 256.135 621.166 298.491 595.069 304.696C536.76 318.518 591.504 350.4 528.245 374.051C515.766 378.72 497.262 349.448 486.104 342.967C479.065 338.882 474.608 331.787 468.399 326.626C459.362 319.04 446.452 315.845 434.403 318.18C404.403 324.046 384.792 360.413 354.423 359.215C347.446 358.939 339.546 355.13 339.3 348.434C339.177 345.363 340.714 342.445 342.251 339.711C349.444 326.903 357.774 313.88 358.542 299.536C359.28 285.406 336.565 290.536 324.362 282.98C311.698 275.148 282.835 299.689 273.398 288.417C268.019 281.997 260.212 260.681 256.032 253.463C247.364 238.443 260.304 198.083 242.599 202.567L223.388 200.479Z" fill="#161513"/>
<path d="M206.329 171.023C200.981 167.367 192.989 169.64 187.548 172.159C180.94 175.231 178.019 180.913 179.649 188.07C180.694 192.646 183.276 197.131 182.353 201.953C181.093 208.618 174.823 206.56 170.151 208.68C167.692 209.785 166.062 211.843 165.11 214.3C164.341 216.266 162.989 221.426 163.88 223.116C163.019 221.519 160.591 222.931 161.452 224.529C162.159 225.88 163.726 226.832 165.263 226.064C167.384 225.02 166.524 222.071 166.708 220.136C166.923 217.925 167.353 215.437 168.614 213.563C170.489 210.799 173.44 210.799 176.39 210.338C179.249 209.877 181.831 209.14 183.552 206.683C187.948 200.356 183.306 193.045 182.169 186.595C181.093 180.421 184.567 176.428 189.976 174.248C194.403 172.466 200.704 170.623 204.915 173.511C206.421 174.463 207.835 172.036 206.329 171.023Z" fill="#161513"/>
<path d="M205.007 167.829C197.569 165.095 189.792 160.365 181.616 163.129C179.003 164.02 176.544 165.678 175.13 168.074C174.269 169.549 173.9 171.207 173.655 172.866C173.47 173.972 173.624 176.122 172.948 177.074C171.288 178.087 169.597 179.07 167.937 180.084C167.476 179.777 166.984 179.593 166.462 179.531C159.976 179.316 156.995 183.923 155.273 189.667C154.136 193.507 153.583 197.715 151.093 200.97C147.773 205.301 142.025 206.561 137.015 204.748C136.247 204.472 135.57 205.086 135.294 205.731C134.648 207.298 134.802 208.373 135.786 209.755C136.831 211.199 139.29 209.816 138.214 208.342C138.152 207.728 138.091 207.113 138.029 206.499C137.445 206.837 136.861 207.144 136.308 207.482C142.271 209.601 149.279 207.943 153.275 202.875C157.456 197.561 156.318 186.012 162.804 183.033C166.4 181.374 169.689 184.845 173.193 181.958C175.898 179.715 175.898 176.245 176.544 173.112C179.495 158.983 196.062 167.583 204.3 170.593C205.991 171.146 206.698 168.443 205.007 167.829Z" fill="#161513"/>
<path d="M279.515 341.001C282.989 361.919 303.46 367.294 322.026 366.403C345.54 365.297 368.225 357.342 387.62 344.165C396.903 337.868 405.417 330.497 413.286 322.511C415.868 319.9 433.85 295.881 435.479 296.188C409.844 291.304 383.163 290.567 357.805 290.598C333.03 290.628 310.591 290.29 289.567 291.181C280.776 306.17 276.565 323.064 279.515 341.001Z" fill="#C9C7C5"/>
<path d="M481.34 310.87C466.831 303.836 451.34 299.229 435.479 296.219C433.819 295.911 414.331 321.559 411.503 324.323C402.559 333.169 392.784 341.186 382.057 347.79C361.155 360.659 332.2 367.417 308.409 365.113C273.214 361.673 274.72 316.521 289.567 291.212C252.681 292.778 220.222 298.154 187.579 316.091C148.419 337.623 117.712 374.051 95.7649 414.81C91.6461 422.489 87.8038 430.874 84.2075 439.751C169.904 475.872 268.204 478.913 361.063 466.903C431.206 457.996 493.42 427.956 546.719 385.6C534.393 353.84 513.86 326.596 481.34 310.87Z" fill="#736B66"/>
<path d="M377.2 294.314L254.71 183.125C239.095 189.298 221.636 185.459 209.157 174.77C201.073 204.994 194.372 256.135 226.032 292.625L252.036 262.831C252.036 262.831 265.714 296.618 279.239 329.821C291.903 360.905 331.831 369.566 356.268 346.591C356.575 346.284 356.913 345.977 357.221 345.67C377.446 326.534 397.825 313.02 377.2 294.314Z" fill="#C9C7C5"/>
<path d="M254.71 183.125L217.702 149.522C217.702 149.522 213.276 159.474 209.188 174.77C221.636 185.459 239.095 189.298 254.71 183.125Z" fill="#C9C7C5"/>
<path d="M297.19 187.885C295.96 199.066 285.878 207.144 274.69 205.915C263.501 204.687 255.417 194.612 256.647 183.432C257.876 172.251 267.958 164.173 279.147 165.402C290.335 166.63 298.419 176.705 297.19 187.885Z" fill="#C9C7C5"/>
<path d="M273.706 194.796C276.903 188.039 280.13 181.282 283.45 174.616C284.249 172.988 281.821 171.576 281.022 173.203C277.702 179.899 274.475 186.657 271.278 193.383C270.479 195.011 272.907 196.424 273.706 194.796Z" fill="#161513"/>
<path d="M252.036 262.861L280.161 331.08L269.648 239.579L252.036 262.861Z" fill="#161513"/>
<path d="M204.362 196.885C200.581 209.509 197.599 223.024 196.37 236.17C196.278 237.276 197.63 237.859 198.491 237.368C203.071 234.88 207.65 232.423 212.23 229.935C213.829 229.075 212.415 226.648 210.816 227.508C206.237 229.996 201.657 232.453 197.077 234.941C197.784 235.34 198.491 235.74 199.198 236.17C200.396 223.3 203.378 210 207.097 197.653C207.589 195.902 204.884 195.134 204.362 196.885Z" fill="#161513"/>
<path d="M227.507 207.727C231.964 202.629 238.142 199.956 244.935 200.264C246.749 200.356 246.749 197.53 244.935 197.469C237.466 197.131 230.458 200.141 225.54 205.762C224.341 207.082 226.308 209.079 227.507 207.727Z" fill="#161513"/>
<path d="M220.898 247.412C227.907 251.62 236.544 244.586 233.347 236.876C232.671 235.218 229.935 235.955 230.642 237.613C232.825 242.927 227.384 248.026 222.312 244.954C220.775 244.033 219.361 246.46 220.898 247.412Z" fill="#161513"/>
<path d="M225.725 199.526C226.401 201.124 227.077 202.721 227.784 204.318C228.091 205.024 229.106 205.178 229.72 204.809C230.458 204.41 230.52 203.581 230.212 202.874C229.536 201.277 228.86 199.68 228.153 198.083C227.845 197.376 226.831 197.223 226.216 197.591C225.479 197.991 225.417 198.82 225.725 199.526Z" fill="#161513"/>
<path d="M237.436 198.697C236.821 196.793 236.175 194.888 235.561 192.984C235.007 191.264 232.272 192.001 232.856 193.721C233.47 195.625 234.116 197.53 234.731 199.434C235.284 201.154 237.989 200.417 237.436 198.697Z" fill="#161513"/>
<path d="M243.952 198.298C243.706 197.008 244.044 195.626 244.905 194.612C246.073 193.23 244.075 191.233 242.907 192.615C241.37 194.458 240.786 196.67 241.247 199.035C241.585 200.816 244.29 200.079 243.952 198.298Z" fill="#161513"/>
<path d="M223.941 174.678C228.306 172.988 233.009 174.125 236.052 177.688C237.22 179.07 239.218 177.074 238.05 175.691C234.392 171.453 228.429 169.917 223.204 171.944C221.544 172.62 222.251 175.323 223.941 174.678Z" fill="#161513"/>
<path d="M245.673 400.343C230.15 413.919 203.162 429.676 185.181 440.212C191.052 440.672 203.562 444.604 200.888 449.518C198.214 454.433 192.527 457.197 187.24 459.624C178.019 463.832 168.798 468.07 159.576 472.278C155.488 474.152 151.216 476.056 146.666 476.149C142.117 476.241 137.199 473.937 136 469.852C135.232 467.303 143.531 457.873 141.257 456.307C139.074 454.801 128.285 462.204 125.888 463.433C101.082 476.364 76.2462 489.325 51.4408 502.257C48.8896 503.577 46.1232 504.96 43.2646 504.591C40.1908 504.192 37.8547 501.949 35.7645 499.799C-1.70483 461.313 -39.1742 422.796 -76.6128 384.31C-56.0492 367.017 -31.9815 353.38 -6.10033 344.411C9.51447 338.974 26.0207 335.135 40.0371 326.688L245.673 400.343Z" fill="#ACA9A5"/>
<path d="M248.408 396.258C220.96 406.179 195.57 421.383 174.238 440.734C179.341 440.212 184.597 441.194 189.115 443.529C181.523 449.18 173.47 454.218 165.017 458.579C159.576 461.405 153.183 463.985 147.373 461.989C141.564 459.992 138.859 451.054 144.269 448.167C111.502 460.084 78.7666 472.002 46.0001 483.95C44.0329 484.657 41.912 485.394 39.8526 484.902C37.7931 484.38 36.287 482.721 34.9345 481.155C-3.08811 436.771 -36.9304 387.013 -87.4019 356.082C-78.3035 352.581 -69.1744 349.11 -60.076 345.608C-73.8158 335.38 -45.9673 331.387 -61.6129 324.077C-19.164 318.548 24.8525 313.726 71.5432 329.206C71.5432 329.206 101.574 270.141 144.453 261.971L248.408 396.258Z" fill="white"/>
<path d="M125.734 242.62C99.1767 260.988 55.4676 291.519 39.0536 317.197C-5.48546 311.054 -51.4692 311.207 -96.5308 317.719C-43.1392 355.898 4.28915 400.22 44.279 449.242C45.3548 450.563 46.5229 451.945 48.2442 452.621C50.7339 453.603 53.7155 452.805 56.3897 452.068C91.2771 442.362 127.763 439.29 163.91 436.28C188.777 409.496 220.345 387.32 255.632 371.87L125.734 242.62Z" fill="white"/>
<mask id="mask2_4_2254" style="mask-type:luminance" maskUnits="userSpaceOnUse" x="-97" y="242" width="353" height="212">
<path d="M125.734 242.62C99.1767 260.988 55.4676 291.519 39.0536 317.197C-5.48546 311.054 -51.4692 311.207 -96.5308 317.719C-43.1392 355.898 4.28915 400.22 44.279 449.242C45.3548 450.563 46.5229 451.945 48.2442 452.621C50.7339 453.603 53.7155 452.805 56.3897 452.068C91.2771 442.362 127.763 439.29 163.91 436.28C188.777 409.496 220.345 387.32 255.632 371.87L125.734 242.62Z" fill="white"/>
</mask>
<g mask="url(#mask2_4_2254)">
<path d="M-31.305 350.861C-7.14515 342.414 18.3057 338.913 43.8488 340.51C45.6624 340.633 45.6624 337.807 43.8488 337.684C18.0906 336.056 -7.66769 339.619 -32.0427 348.127C-33.7641 348.742 -33.0264 351.445 -31.305 350.861Z" fill="#C9C7C5"/>
</g>
<mask id="mask3_4_2254" style="mask-type:luminance" maskUnits="userSpaceOnUse" x="-97" y="242" width="353" height="212">
<path d="M125.734 242.62C99.1767 260.988 55.4676 291.519 39.0536 317.197C-5.48546 311.054 -51.4692 311.207 -96.5308 317.719C-43.1392 355.898 4.28915 400.22 44.279 449.242C45.3548 450.563 46.5229 451.945 48.2442 452.621C50.7339 453.603 53.7155 452.805 56.3897 452.068C91.2771 442.362 127.763 439.29 163.91 436.28C188.777 409.496 220.345 387.32 255.632 371.87L125.734 242.62Z" fill="white"/>
</mask>
<g mask="url(#mask3_4_2254)">
<path d="M-20.6084 361.488C2.35277 352.581 27.1582 349.755 51.6254 348.864C53.439 348.803 53.439 345.977 51.6254 346.069C26.943 346.991 1.83022 349.816 -21.3461 358.816C-23.0366 359.43 -22.2989 362.133 -20.6084 361.488Z" fill="#C9C7C5"/>
</g>
<mask id="mask4_4_2254" style="mask-type:luminance" maskUnits="userSpaceOnUse" x="-97" y="242" width="353" height="212">
<path d="M125.734 242.62C99.1767 260.988 55.4676 291.519 39.0536 317.197C-5.48546 311.054 -51.4692 311.207 -96.5308 317.719C-43.1392 355.898 4.28915 400.22 44.279 449.242C45.3548 450.563 46.5229 451.945 48.2442 452.621C50.7339 453.603 53.7155 452.805 56.3897 452.068C91.2771 442.362 127.763 439.29 163.91 436.28C188.777 409.496 220.345 387.32 255.632 371.87L125.734 242.62Z" fill="white"/>
</mask>
<g mask="url(#mask4_4_2254)">
<path d="M-3.85622 371.471C18.0598 362.103 41.9738 360.014 65.4575 358.11C67.2403 357.956 67.271 355.161 65.4575 355.284C41.4205 357.249 17.1377 359.43 -5.27016 369.044C-6.93 369.751 -5.48533 372.177 -3.85622 371.471Z" fill="#C9C7C5"/>
</g>
<mask id="mask5_4_2254" style="mask-type:luminance" maskUnits="userSpaceOnUse" x="-97" y="242" width="353" height="212">
<path d="M125.734 242.62C99.1767 260.988 55.4676 291.519 39.0536 317.197C-5.48546 311.054 -51.4692 311.207 -96.5308 317.719C-43.1392 355.898 4.28915 400.22 44.279 449.242C45.3548 450.563 46.5229 451.945 48.2442 452.621C50.7339 453.603 53.7155 452.805 56.3897 452.068C91.2771 442.362 127.763 439.29 163.91 436.28C188.777 409.496 220.345 387.32 255.632 371.87L125.734 242.62Z" fill="white"/>
</mask>
<g mask="url(#mask5_4_2254)">
<path d="M10.3135 386.736C32.875 378.351 56.3895 373.037 80.3649 370.949C82.1477 370.795 82.1785 367.969 80.3649 368.123C56.1436 370.242 32.3525 375.525 9.54507 384.003C7.88523 384.648 8.62294 387.351 10.3135 386.736Z" fill="#C9C7C5"/>
</g>
<mask id="mask6_4_2254" style="mask-type:luminance" maskUnits="userSpaceOnUse" x="-97" y="242" width="353" height="212">
<path d="M125.734 242.62C99.1767 260.988 55.4676 291.519 39.0536 317.197C-5.48546 311.054 -51.4692 311.207 -96.5308 317.719C-43.1392 355.898 4.28915 400.22 44.279 449.242C45.3548 450.563 46.5229 451.945 48.2442 452.621C50.7339 453.603 53.7155 452.805 56.3897 452.068C91.2771 442.362 127.763 439.29 163.91 436.28C188.777 409.496 220.345 387.32 255.632 371.87L125.734 242.62Z" fill="white"/>
</mask>
<g mask="url(#mask6_4_2254)">
<path d="M26.2974 400.251C45.9081 393.033 65.8262 385.846 86.9738 385.201C88.7873 385.139 88.7873 382.344 86.9738 382.375C65.5803 383.02 45.4163 390.207 25.5597 397.517C23.8691 398.162 24.6068 400.896 26.2974 400.251Z" fill="#C9C7C5"/>
</g>
<mask id="mask7_4_2254" style="mask-type:luminance" maskUnits="userSpaceOnUse" x="-97" y="242" width="353" height="212">
<path d="M125.734 242.62C99.1767 260.988 55.4676 291.519 39.0536 317.197C-5.48546 311.054 -51.4692 311.207 -96.5308 317.719C-43.1392 355.898 4.28915 400.22 44.279 449.242C45.3548 450.563 46.5229 451.945 48.2442 452.621C50.7339 453.603 53.7155 452.805 56.3897 452.068C91.2771 442.362 127.763 439.29 163.91 436.28C188.777 409.496 220.345 387.32 255.632 371.87L125.734 242.62Z" fill="white"/>
</mask>
<g mask="url(#mask7_4_2254)">
<path d="M40.2215 413.397C47.5064 407.807 58.9716 407.285 67.7011 405.473C78.3364 403.261 89.1868 400.374 100.068 402.309C101.851 402.616 102.589 399.913 100.806 399.606C89.9553 397.671 79.3508 400.19 68.7462 402.401C63.0597 403.568 57.3425 404.736 51.656 405.933C47.0146 406.916 42.6191 408.022 38.8076 410.971C37.3937 412.077 38.7769 414.503 40.2215 413.397Z" fill="#C9C7C5"/>
</g>
<mask id="mask8_4_2254" style="mask-type:luminance" maskUnits="userSpaceOnUse" x="-97" y="242" width="353" height="212">
<path d="M125.734 242.62C99.1767 260.988 55.4676 291.519 39.0536 317.197C-5.48546 311.054 -51.4692 311.207 -96.5308 317.719C-43.1392 355.898 4.28915 400.22 44.279 449.242C45.3548 450.563 46.5229 451.945 48.2442 452.621C50.7339 453.603 53.7155 452.805 56.3897 452.068C91.2771 442.362 127.763 439.29 163.91 436.28C188.777 409.496 220.345 387.32 255.632 371.87L125.734 242.62Z" fill="white"/>
</mask>
<g mask="url(#mask8_4_2254)">
<path d="M50.7646 428.355C72.0044 417.298 95.8876 414.073 119.31 411.063C121.093 410.848 121.093 408.022 119.31 408.237C95.3343 411.308 71.0207 414.626 49.3199 425.929C47.7522 426.758 49.1662 429.185 50.7646 428.355Z" fill="#C9C7C5"/>
</g>
<mask id="mask9_4_2254" style="mask-type:luminance" maskUnits="userSpaceOnUse" x="-97" y="242" width="353" height="212">
<path d="M125.734 242.62C99.1767 260.988 55.4676 291.519 39.0536 317.197C-5.48546 311.054 -51.4692 311.207 -96.5308 317.719C-43.1392 355.898 4.28915 400.22 44.279 449.242C45.3548 450.563 46.5229 451.945 48.2442 452.621C50.7339 453.603 53.7155 452.805 56.3897 452.068C91.2771 442.362 127.763 439.29 163.91 436.28C188.777 409.496 220.345 387.32 255.632 371.87L125.734 242.62Z" fill="white"/>
</mask>
<g mask="url(#mask9_4_2254)">
<path d="M74.4635 325.183C92.2915 306.201 111.257 286.389 136.892 278.618C138.613 278.096 137.876 275.393 136.154 275.915C110.027 283.84 90.6623 303.866 72.4656 323.217C71.2361 324.507 73.2033 326.503 74.4635 325.183Z" fill="#C9C7C5"/>
</g>
<mask id="mask10_4_2254" style="mask-type:luminance" maskUnits="userSpaceOnUse" x="-97" y="242" width="353" height="212">
<path d="M125.734 242.62C99.1767 260.988 55.4676 291.519 39.0536 317.197C-5.48546 311.054 -51.4692 311.207 -96.5308 317.719C-43.1392 355.898 4.28915 400.22 44.279 449.242C45.3548 450.563 46.5229 451.945 48.2442 452.621C50.7339 453.603 53.7155 452.805 56.3897 452.068C91.2771 442.362 127.763 439.29 163.91 436.28C188.777 409.496 220.345 387.32 255.632 371.87L125.734 242.62Z" fill="white"/>
</mask>
<g mask="url(#mask10_4_2254)">
<path d="M87.2504 333.845C101.421 313.726 124.166 302.699 145.806 292.41C147.435 291.642 146.021 289.215 144.392 289.983C122.23 300.519 99.3304 311.853 84.8221 332.401C83.777 333.906 86.2053 335.319 87.2504 333.845Z" fill="#C9C7C5"/>
</g>
<mask id="mask11_4_2254" style="mask-type:luminance" maskUnits="userSpaceOnUse" x="-97" y="242" width="353" height="212">
<path d="M125.734 242.62C99.1767 260.988 55.4676 291.519 39.0536 317.197C-5.48546 311.054 -51.4692 311.207 -96.5308 317.719C-43.1392 355.898 4.28915 400.22 44.279 449.242C45.3548 450.563 46.5229 451.945 48.2442 452.621C50.7339 453.603 53.7155 452.805 56.3897 452.068C91.2771 442.362 127.763 439.29 163.91 436.28C188.777 409.496 220.345 387.32 255.632 371.87L125.734 242.62Z" fill="white"/>
</mask>
<g mask="url(#mask11_4_2254)">
<path d="M100.867 343.919C106.892 334.09 116.113 327.21 125.734 321.159C135.847 314.832 146.359 309.211 157.209 304.204C158.839 303.436 157.425 301.01 155.795 301.778C144.054 307.214 132.588 313.357 121.707 320.391C112.609 326.288 104.156 333.138 98.4388 342.506C97.4859 344.073 99.9142 345.486 100.867 343.919Z" fill="#C9C7C5"/>
</g>
<mask id="mask12_4_2254" style="mask-type:luminance" maskUnits="userSpaceOnUse" x="-97" y="242" width="353" height="212">
<path d="M125.734 242.62C99.1767 260.988 55.4676 291.519 39.0536 317.197C-5.48546 311.054 -51.4692 311.207 -96.5308 317.719C-43.1392 355.898 4.28915 400.22 44.279 449.242C45.3548 450.563 46.5229 451.945 48.2442 452.621C50.7339 453.603 53.7155 452.805 56.3897 452.068C91.2771 442.362 127.763 439.29 163.91 436.28C188.777 409.496 220.345 387.32 255.632 371.87L125.734 242.62Z" fill="white"/>
</mask>
<g mask="url(#mask12_4_2254)">
<path d="M111.134 354.485C130.437 339.035 151.769 326.35 174.546 316.675C176.205 315.968 174.761 313.542 173.132 314.248C150.109 324.016 128.654 336.885 109.136 352.489C107.722 353.625 109.72 355.622 111.134 354.485Z" fill="#C9C7C5"/>
</g>
<mask id="mask13_4_2254" style="mask-type:luminance" maskUnits="userSpaceOnUse" x="-97" y="242" width="353" height="212">
<path d="M125.734 242.62C99.1767 260.988 55.4676 291.519 39.0536 317.197C-5.48546 311.054 -51.4692 311.207 -96.5308 317.719C-43.1392 355.898 4.28915 400.22 44.279 449.242C45.3548 450.563 46.5229 451.945 48.2442 452.621C50.7339 453.603 53.7155 452.805 56.3897 452.068C91.2771 442.362 127.763 439.29 163.91 436.28C188.777 409.496 220.345 387.32 255.632 371.87L125.734 242.62Z" fill="white"/>
</mask>
<g mask="url(#mask13_4_2254)">
<path d="M123.429 367.447C141.502 354.577 160.13 341.554 182.138 336.609C183.89 336.21 183.152 333.507 181.4 333.906C159.146 338.912 140.304 352.028 122.015 365.02C120.539 366.065 121.922 368.491 123.429 367.447Z" fill="#C9C7C5"/>
</g>
<mask id="mask14_4_2254" style="mask-type:luminance" maskUnits="userSpaceOnUse" x="-97" y="242" width="353" height="212">
<path d="M125.734 242.62C99.1767 260.988 55.4676 291.519 39.0536 317.197C-5.48546 311.054 -51.4692 311.207 -96.5308 317.719C-43.1392 355.898 4.28915 400.22 44.279 449.242C45.3548 450.563 46.5229 451.945 48.2442 452.621C50.7339 453.603 53.7155 452.805 56.3897 452.068C91.2771 442.362 127.763 439.29 163.91 436.28C188.777 409.496 220.345 387.32 255.632 371.87L125.734 242.62Z" fill="white"/>
</mask>
<g mask="url(#mask14_4_2254)">
<path d="M142.21 380.409C160.437 366.556 180.909 356.113 202.825 349.509C204.546 348.987 203.808 346.284 202.087 346.806C179.925 353.472 159.208 363.976 140.796 377.982C139.351 379.057 140.765 381.515 142.21 380.409Z" fill="#C9C7C5"/>
</g>
<mask id="mask15_4_2254" style="mask-type:luminance" maskUnits="userSpaceOnUse" x="-97" y="242" width="353" height="212">
<path d="M125.734 242.62C99.1767 260.988 55.4676 291.519 39.0536 317.197C-5.48546 311.054 -51.4692 311.207 -96.5308 317.719C-43.1392 355.898 4.28915 400.22 44.279 449.242C45.3548 450.563 46.5229 451.945 48.2442 452.621C50.7339 453.603 53.7155 452.805 56.3897 452.068C91.2771 442.362 127.763 439.29 163.91 436.28C188.777 409.496 220.345 387.32 255.632 371.87L125.734 242.62Z" fill="white"/>
</mask>
<g mask="url(#mask15_4_2254)">
<path d="M-53.4362 334.183C-33.5795 331.295 -13.5693 329.483 6.47178 328.746C15.6316 328.408 24.8222 328.316 34.0128 328.439C40.8059 328.531 49.0129 330.65 54.2998 325.337C60.4473 319.163 66.0416 312.375 72.1891 306.201C78.0601 300.304 84.1154 294.621 90.3552 289.093C103.972 277.052 118.419 265.995 133.542 255.889C135.048 254.876 133.634 252.449 132.128 253.463C103.911 272.322 78.0293 294.621 55.3756 319.931C54.1153 321.344 52.9166 323.094 51.4104 324.262C48.8284 326.289 46.185 325.92 43.2034 325.828C38.9309 325.705 34.6276 325.613 30.355 325.582C20.5804 325.521 10.7751 325.705 1.00046 326.135C-17.4729 326.995 -35.8541 328.777 -54.1739 331.449C-55.9566 331.725 -55.1882 334.428 -53.4362 334.183Z" fill="#ACA9A5"/>
</g>
<path d="M173.193 445.832C168.859 447.092 164.525 448.474 160.161 449.641C159.7 449.764 157.702 450.593 157.271 450.317C156.042 449.426 157.548 447.982 158.04 447.491C159.638 445.832 163.48 445.433 165.663 445.31C167.015 445.218 167.015 443.129 165.663 443.191C162.927 443.344 150.632 446.139 153.675 451.054C154.689 452.713 157.21 452.528 158.839 452.221C163.849 451.207 168.829 449.334 173.747 447.89C175.038 447.491 174.484 445.464 173.193 445.832Z" fill="#161513"/>
<path d="M125.949 446.877C99.2075 451.576 73.2956 459.869 48.7976 471.572C49.3509 471.633 49.9349 471.726 50.4882 471.787C14.986 434.499 -22.2989 398.961 -61.2437 365.297C-62.5961 364.13 -64.5941 366.096 -63.2416 367.294C-24.2969 400.958 12.9881 436.495 48.4902 473.783C48.9513 474.275 49.6275 474.275 50.1808 473.998C74.4636 462.388 100.16 454.249 126.656 449.58C128.501 449.273 127.732 446.57 125.949 446.877Z" fill="#161513"/>
<path d="M153.152 424.792C122.261 385.323 84.945 351.26 43.1724 323.586C42.0351 322.848 40.99 324.661 42.0965 325.398C83.7155 352.98 120.877 386.951 151.677 426.267C152.476 427.373 153.982 425.868 153.152 424.792Z" fill="#161513"/>
<path d="M-63.4569 345.824C-23.6514 378.259 14.6786 412.414 51.5024 448.198C52.7934 449.457 54.7914 447.461 53.5004 446.201C16.7073 410.418 -21.6535 376.263 -61.4589 343.827C-62.8421 342.691 -64.8708 344.687 -63.4569 345.824Z" fill="#161513"/>
<path d="M54.238 448.781C65.5495 447.122 76.8918 445.863 88.2955 444.972C90.0783 444.819 90.109 442.024 88.2955 442.147C76.6459 443.037 65.0577 444.358 53.4696 446.047C51.7175 446.354 52.4552 449.057 54.238 448.781Z" fill="#161513"/>
<path d="M212.2 141.505C206.667 133.519 216.749 122.769 222.251 117.517C228.306 111.742 235.591 107.258 243.399 104.278C258.091 98.6574 274.72 98.2274 289.413 104.125C298.081 107.596 305.827 111.865 315.417 109.316C323.563 107.135 331.032 102.282 338.163 97.951C353.01 88.9207 368.163 80.4432 386.083 84.9277C413.747 91.8693 433.389 118.561 462.774 120.527C480.909 121.755 500.766 108.609 517.795 118.991C530.182 126.516 535.776 141.29 547.242 149.952C560.059 159.597 580.438 158.184 590.459 144.976C594.24 140 596.699 131.646 591.104 126.946C587.078 123.568 580.254 123.506 577.641 128.543C576.811 130.141 579.24 131.584 580.07 129.956C582.19 125.871 588.369 126.946 590.551 130.478C593.809 135.669 589.445 142.611 585.602 146.082C579.086 152.01 569.68 154.529 561.043 153.023C545.705 150.321 538.297 135.454 528.799 124.888C524.711 120.312 519.916 116.227 514.076 114.046C506.299 111.159 497.969 112.141 490.039 113.739C481.032 115.551 472.057 118.315 462.743 117.67C455.459 117.179 448.45 114.814 441.903 111.681C418.819 100.654 397.211 77.4024 369.516 81.0575C353.378 83.1769 340.376 93.9887 326.483 101.452C322.241 103.725 317.815 105.968 313.05 106.951C306.934 108.21 301.37 106.244 295.837 103.848C289.198 100.961 282.682 98.5346 275.427 97.5824C259.782 95.5245 243.46 99.3331 230.151 107.78C220.96 113.616 201.011 130.356 209.71 142.918C210.817 144.392 213.245 142.98 212.2 141.505Z" fill="#161513"/>
<path d="M372.897 274.718C389.495 281.567 400.223 296.341 403.327 313.726C404.587 320.791 405.755 328.715 411.841 333.415C417.067 337.469 423.921 337.623 430.223 337.715C439.598 337.868 448.112 338.79 454.721 346.254C460.899 353.195 462.743 361.826 463.266 370.826C463.665 377.89 464.126 385.907 469.813 390.944C473.87 394.538 479.588 395.951 484.905 395.275C491.206 394.477 497.2 390.484 499.014 384.156C500.827 377.829 496.432 370.826 489.362 372.546C487.61 372.976 488.348 375.679 490.1 375.249C498.614 373.16 496.954 384.648 493.358 388.334C490.868 390.883 487.364 392.296 483.829 392.572C477.067 393.156 470.674 389.839 468.092 383.45C465.233 376.385 466.585 368.399 465.049 361.058C463.85 355.315 461.329 349.786 457.579 345.24C453.768 340.602 448.665 337.162 442.764 335.841C436.432 334.428 429.915 335.227 423.522 334.612C414.762 333.722 409.598 328.807 407.507 320.361C405.848 313.665 405.294 306.938 402.62 300.549C397.18 287.557 386.667 277.359 373.696 271.984C371.975 271.308 371.237 274.011 372.897 274.718Z" fill="#161513"/>
<path d="M-8.25191 310.194C-14.7683 304.45 -11.756 292.502 -4.47116 288.11C2.84443 283.717 12.1887 284.977 20.3342 287.649C12.8035 283.81 10.6826 272.322 15.7236 265.534C20.7646 258.746 31.1539 257.487 38.2851 262.094C33.2133 259.114 32.1375 250.913 36.2564 246.798C40.0679 242.958 46.2154 243.235 51.5331 244.218C67.5475 247.228 82.7934 254.722 95.1807 265.688C96.2565 266.64 97.3938 267.93 97.025 269.312C96.7483 270.295 95.7647 270.878 94.8733 271.308C82.1172 277.39 66.3794 276.53 54.115 269.097C61.2462 271.616 68.3159 274.288 75.3549 277.052C80.8262 279.202 87.4348 284.147 85.0987 289.584C83.8385 292.533 80.4266 293.669 77.3835 294.437C60.8466 298.491 43.5412 299.413 26.6047 297.171C39.5761 299.382 52.3015 303.437 64.2278 309.242C66.1643 310.194 68.3159 311.484 68.6847 313.634C69.1458 316.337 66.5638 318.456 64.1663 319.593C52.8548 324.876 39.6375 322.757 27.3117 320.514C15.9695 318.456 1.33827 312.651 -8.25191 310.194Z" fill="#C9C7C5"/>
<path d="M12.4657 287.986C18.5518 291.764 24.8838 295.051 31.4617 297.877C33.1215 298.583 34.5355 296.157 32.8756 295.45C26.2977 292.655 19.9657 289.338 13.8797 285.56C12.3428 284.577 10.9288 287.004 12.4657 287.986Z" fill="#161513"/>
<path d="M31.7687 259.974C47.7216 268.575 64.7811 274.748 82.5782 278.25C84.361 278.588 85.0987 275.885 83.3159 275.547C65.7647 272.076 48.9511 266.056 33.1826 257.548C31.5843 256.688 30.1703 259.114 31.7687 259.974Z" fill="#161513"/>
<path d="M66.2566 275.731C67.4247 283.656 75.6931 288.908 83.3776 287.004C85.1296 286.574 84.3919 283.871 82.6399 284.301C76.3079 285.867 69.9452 281.352 68.9923 274.994C68.6849 273.182 65.98 273.95 66.2566 275.731Z" fill="#161513"/>
<path d="M78.7053 257.978C81.6561 264.827 89.0024 269.004 96.4102 268.021C98.193 267.776 98.193 264.981 96.4102 265.226C89.8631 266.086 83.7463 262.646 81.1336 256.565C80.4266 254.875 77.9983 256.319 78.7053 257.978Z" fill="#161513"/>
<path d="M48.3979 308.013C53.2852 313.757 60.693 316.214 68.0701 314.77C69.8529 314.432 69.0844 311.699 67.3324 312.067C60.8775 313.327 54.6377 311.023 50.3959 306.047C49.1971 304.665 47.2299 306.661 48.3979 308.013Z" fill="#161513"/>
<path d="M409.659 546.21C404.649 540.128 335.489 455.999 330.448 449.887C305.489 419.601 276.319 393.647 246.565 368.061C216.442 342.168 172.333 335.073 136.462 351.014C134.833 351.721 130.991 355.683 130.069 357.188C128.132 360.321 130.653 364.682 134.126 365.942C137.599 367.201 141.442 366.28 144.946 365.205C150.847 363.423 156.749 361.242 162.896 361.335C169.044 361.427 175.653 364.406 177.927 370.119C176.144 376.569 167.108 376.661 160.499 375.494C136.616 371.225 112.056 365.973 87.8041 365.112C82.0869 364.928 74.6176 369.535 74.9864 375.249C75.2323 378.842 78.8901 381.084 82.1483 382.651C101.821 392.05 123.091 396.196 144.208 401.572C127.118 396.411 109.382 394.538 92.2918 389.378C87.6811 387.995 81.6258 385.354 76.8922 385.999C72.1278 386.644 67.3942 389.961 66.6872 394.722C66.0725 398.93 68.8081 403.046 72.3737 405.38C75.9393 407.715 81.5029 409.895 85.6525 410.848C104.648 415.24 123.275 421.321 141.226 428.939C126.411 423.994 111.103 420.523 95.6115 418.557C90.509 417.912 84.6381 417.697 81.0725 421.414C76.8614 425.837 78.675 433.546 83.1627 437.693C87.6504 441.839 93.8287 443.406 99.6996 445.095C145.468 458.241 179.894 463.279 260.95 586.969L409.659 546.21Z" fill="#C9C7C5"/>
<path d="M67.5786 396.442C75.0172 397.026 81.5336 401.848 84.2078 408.821C84.8533 410.479 87.5582 409.773 86.9127 408.083C83.7467 399.852 76.3696 394.323 67.5786 393.647C65.7651 393.494 65.7958 396.289 67.5786 396.442Z" fill="#161513"/>
<path d="M77.5988 375.31C84.3919 374.419 90.9697 378.351 93.1214 384.924C93.6747 386.644 96.4103 385.907 95.8263 384.187C93.3058 376.539 85.6521 371.471 77.5988 372.515C75.816 372.73 75.816 375.556 77.5988 375.31Z" fill="#161513"/>
<path d="M79.5352 426.85C85.2831 427.311 90.57 430.321 93.9512 435.021C95.3651 436.986 96.4717 439.198 97.0557 441.532C97.486 443.222 97.2094 445.095 98.4389 446.385C98.9 446.877 99.5762 446.846 100.129 446.6C100.744 446.324 101.021 445.925 101.144 445.28C101.267 444.665 101.052 443.99 100.498 443.682C100.437 443.652 100.345 443.59 100.283 443.56C98.6848 442.669 97.2709 445.095 98.8692 445.986C98.9307 446.017 99.0229 446.078 99.0844 446.109C98.8692 445.587 98.6541 445.065 98.4389 444.512C98.5311 444.389 98.6233 444.266 98.7156 444.143C99.2688 444.205 99.8529 444.297 100.406 444.358C99.9143 443.836 99.9143 441.409 99.7299 440.734C99.4225 439.567 99.0229 438.43 98.5311 437.324C97.3631 434.714 95.6725 432.348 93.6438 430.383C89.7709 426.605 84.8836 424.424 79.5044 423.994C77.7217 423.902 77.7524 426.728 79.5352 426.85Z" fill="#161513"/>
<path d="M132.189 357.864C136.646 357.864 140.95 357.618 144.546 354.67C147.497 352.274 149.126 348.803 148.081 345.087C147.589 343.336 144.884 344.073 145.376 345.824C146.298 349.049 144.177 351.844 141.472 353.41C138.644 355.069 135.386 355.038 132.189 355.038C130.376 355.038 130.376 357.864 132.189 357.864Z" fill="#161513"/>
<path d="M111.902 421.905C122.599 425.561 132.958 429.984 143.04 435.082C144.638 435.912 146.083 433.485 144.454 432.656C134.187 427.403 123.583 422.919 112.64 419.172C110.95 418.619 110.212 421.322 111.902 421.905Z" fill="#161513"/>
<path d="M103.818 392.235C121.984 397.118 140.181 402.002 158.347 406.886C160.099 407.346 160.837 404.644 159.085 404.183C140.919 399.299 122.722 394.415 104.556 389.532C102.804 389.04 102.066 391.743 103.818 392.235Z" fill="#161513"/>
<path d="M154.505 458.733C155.857 455.324 157.763 452.191 160.161 449.426C161.329 448.075 159.361 446.078 158.163 447.43C155.427 450.594 153.306 454.095 151.769 457.965C151.124 459.685 153.859 460.392 154.505 458.733Z" fill="white"/>
<path d="M167.568 434.683C169.843 430.936 171.626 426.943 172.947 422.765C173.501 421.045 170.765 420.308 170.242 422.028C169.013 425.991 167.292 429.738 165.14 433.27C164.218 434.806 166.646 436.219 167.568 434.683Z" fill="white"/>
<path d="M177.65 406.793C179.648 402.401 181.646 398.009 183.614 393.616C184.351 391.988 181.923 390.545 181.185 392.203C179.187 396.596 177.189 400.988 175.222 405.35C174.485 407.008 176.882 408.421 177.65 406.793Z" fill="white"/>
<path d="M204.7 364.314C207.681 361.366 209.925 357.925 211.462 354.055C212.138 352.366 209.403 351.66 208.757 353.318C207.405 356.758 205.345 359.768 202.702 362.348C201.442 363.577 203.409 365.574 204.7 364.314Z" fill="white"/>
<path d="M222.435 296.863C220.499 294.467 216.933 294.099 214.505 296.034L123.46 369.751C123.368 369.812 123.306 369.904 123.245 369.966C127.732 371.409 132.251 372.515 136.769 373.467L221.606 304.788C224.003 302.853 224.403 299.29 222.435 296.863Z" fill="#161513"/>
<path d="M192.988 336.64C203.286 328.377 213.583 320.084 223.849 311.822C224.618 311.207 224.218 310.071 223.572 309.61C221.144 307.89 219.361 306.047 217.702 303.59C216.687 302.116 214.259 303.498 215.273 305.003C217.179 307.798 219.392 310.071 222.159 312.037C222.066 311.299 221.974 310.562 221.882 309.825C211.585 318.088 201.288 326.381 191.021 334.643C189.576 335.81 191.574 337.776 192.988 336.64Z" fill="#161513"/>
<g filter="url(#filter0_ddddd_4_2254)">
<rect x="-293" y="472" width="960" height="960" rx="480" fill="#251404"/>
<rect x="97.5" y="542" width="180" height="8" rx="4" fill="#4F3422"/>
<rect width="118.688" height="8" rx="4" transform="matrix(1 0 0 -1 97.5 550)" fill="#926247"/>
<path d="M43.0868 583H47.7968L55.4168 604H51.0218L49.7618 600.52H41.1218L39.8618 604H35.4668L43.0868 583ZM42.6368 596.38H48.2468L45.4268 588.685L42.6368 596.38ZM58.0137 604V583H62.1537V604H58.0137ZM177.722 604.39C176.922 604.39 176.137 604.255 175.367 603.985C174.607 603.715 173.922 603.315 173.312 602.785L175.967 599.605C176.157 599.755 176.397 599.9 176.687 600.04C176.977 600.18 177.322 600.25 177.722 600.25C178.232 600.25 178.692 600.125 179.102 599.875C179.522 599.615 179.857 599.275 180.107 598.855C180.357 598.425 180.482 597.96 180.482 597.46V583H184.622V597.46C184.622 598.73 184.312 599.89 183.692 600.94C183.072 601.98 182.237 602.815 181.187 603.445C180.147 604.075 178.992 604.39 177.722 604.39ZM194.523 604.39C193.143 604.39 191.883 604.035 190.743 603.325C189.613 602.615 188.708 601.665 188.028 600.475C187.358 599.275 187.023 597.95 187.023 596.5C187.023 595.4 187.218 594.375 187.608 593.425C187.998 592.465 188.533 591.625 189.213 590.905C189.903 590.175 190.703 589.605 191.613 589.195C192.523 588.785 193.493 588.58 194.523 588.58C195.903 588.58 197.158 588.935 198.288 589.645C199.428 590.355 200.333 591.31 201.003 592.51C201.683 593.71 202.023 595.04 202.023 596.5C202.023 597.59 201.828 598.61 201.438 599.56C201.048 600.51 200.508 601.35 199.818 602.08C199.138 602.8 198.343 603.365 197.433 603.775C196.533 604.185 195.563 604.39 194.523 604.39ZM194.523 600.25C195.163 600.25 195.738 600.08 196.248 599.74C196.758 599.39 197.158 598.93 197.448 598.36C197.738 597.79 197.883 597.17 197.883 596.5C197.883 595.81 197.728 595.18 197.418 594.61C197.118 594.03 196.713 593.57 196.203 593.23C195.693 592.89 195.133 592.72 194.523 592.72C193.893 592.72 193.323 592.895 192.813 593.245C192.303 593.595 191.898 594.055 191.598 594.625C191.308 595.195 191.163 595.82 191.163 596.5C191.163 597.21 191.313 597.85 191.613 598.42C191.923 598.98 192.333 599.425 192.843 599.755C193.353 600.085 193.913 600.25 194.523 600.25ZM203.019 598.51V589H207.159V597.37C207.159 597.9 207.284 598.38 207.534 598.81C207.794 599.23 208.139 599.565 208.569 599.815C208.999 600.065 209.469 600.19 209.979 600.19C210.499 600.19 210.974 600.065 211.404 599.815C211.834 599.565 212.174 599.23 212.424 598.81C212.674 598.38 212.799 597.9 212.799 597.37V589H216.939L216.954 604H212.814L212.799 602.86C212.299 603.34 211.709 603.715 211.029 603.985C210.359 604.255 209.649 604.39 208.899 604.39C207.819 604.39 206.834 604.125 205.944 603.595C205.054 603.065 204.344 602.36 203.814 601.48C203.284 600.59 203.019 599.6 203.019 598.51ZM219.682 604L219.667 589H223.807L223.822 590.11C224.322 589.63 224.907 589.255 225.577 588.985C226.257 588.715 226.972 588.58 227.722 588.58C228.272 588.58 228.822 588.66 229.372 588.82L227.737 593.005C227.377 592.855 227.012 592.78 226.642 592.78C226.122 592.78 225.647 592.905 225.217 593.155C224.787 593.405 224.447 593.745 224.197 594.175C223.947 594.595 223.822 595.07 223.822 595.6V604H219.682ZM244.698 594.46V604H240.558V595.6C240.558 595.07 240.428 594.595 240.168 594.175C239.918 593.745 239.578 593.405 239.148 593.155C238.728 592.905 238.258 592.78 237.738 592.78C237.218 592.78 236.743 592.905 236.313 593.155C235.883 593.405 235.543 593.745 235.293 594.175C235.043 594.595 234.918 595.07 234.918 595.6V604H230.778L230.763 589H234.903L234.918 590.11C235.418 589.63 236.003 589.255 236.673 588.985C237.353 588.715 238.068 588.58 238.818 588.58C239.908 588.58 240.893 588.845 241.773 589.375C242.663 589.905 243.373 590.615 243.903 591.505C244.433 592.385 244.698 593.37 244.698 594.46ZM258.114 589H262.254V604H258.099L257.904 602.44C257.514 603.02 257.014 603.49 256.404 603.85C255.794 604.21 255.079 604.39 254.259 604.39C253.139 604.39 252.094 604.18 251.124 603.76C250.154 603.34 249.299 602.76 248.559 602.02C247.819 601.28 247.239 600.425 246.819 599.455C246.409 598.475 246.204 597.425 246.204 596.305C246.204 595.235 246.399 594.235 246.789 593.305C247.179 592.375 247.729 591.555 248.439 590.845C249.149 590.135 249.964 589.58 250.884 589.18C251.814 588.78 252.814 588.58 253.884 588.58C254.804 588.58 255.629 588.775 256.359 589.165C257.099 589.555 257.744 590.05 258.294 590.65L258.114 589ZM254.154 600.415C254.834 600.415 255.449 600.24 255.999 599.89C256.549 599.54 256.984 599.07 257.304 598.48C257.624 597.88 257.784 597.22 257.784 596.5C257.784 595.77 257.624 595.11 257.304 594.52C256.984 593.93 256.549 593.46 255.999 593.11C255.449 592.76 254.834 592.585 254.154 592.585C253.464 592.585 252.839 592.76 252.279 593.11C251.719 593.46 251.274 593.935 250.944 594.535C250.614 595.125 250.449 595.78 250.449 596.5C250.449 597.22 250.614 597.88 250.944 598.48C251.284 599.07 251.734 599.54 252.294 599.89C252.854 600.24 253.474 600.415 254.154 600.415ZM264.997 604V581.5H269.137V604H264.997ZM272.432 589H276.572V604H272.432V589ZM274.532 587.275C273.932 587.275 273.427 587.075 273.017 586.675C272.607 586.275 272.402 585.78 272.402 585.19C272.402 584.6 272.607 584.105 273.017 583.705C273.427 583.305 273.927 583.105 274.517 583.105C275.107 583.105 275.602 583.305 276.002 583.705C276.412 584.105 276.617 584.6 276.617 585.19C276.617 585.78 276.417 586.275 276.017 586.675C275.627 587.075 275.132 587.275 274.532 587.275ZM293.655 594.46V604H289.515V595.6C289.515 595.07 289.385 594.595 289.125 594.175C288.875 593.745 288.535 593.405 288.105 593.155C287.685 592.905 287.215 592.78 286.695 592.78C286.175 592.78 285.7 592.905 285.27 593.155C284.84 593.405 284.5 593.745 284.25 594.175C284 594.595 283.875 595.07 283.875 595.6V604H279.735L279.72 589H283.86L283.875 590.11C284.375 589.63 284.96 589.255 285.63 588.985C286.31 588.715 287.025 588.58 287.775 588.58C288.865 588.58 289.85 588.845 290.73 589.375C291.62 589.905 292.33 590.615 292.86 591.505C293.39 592.385 293.655 593.37 293.655 594.46ZM306.95 589H311.09V604.21C311.09 605.32 310.865 606.32 310.415 607.21C309.965 608.11 309.35 608.88 308.57 609.52C307.8 610.16 306.91 610.65 305.9 610.99C304.9 611.33 303.84 611.5 302.72 611.5C301.66 611.5 300.645 611.29 299.675 610.87C298.705 610.46 297.845 609.89 297.095 609.16C296.345 608.43 295.76 607.59 295.34 606.64L299.12 604.915C299.33 605.415 299.615 605.845 299.975 606.205C300.345 606.565 300.765 606.84 301.235 607.03C301.715 607.23 302.21 607.33 302.72 607.33C303.27 607.33 303.795 607.265 304.295 607.135C304.805 607.005 305.26 606.81 305.66 606.55C306.06 606.29 306.375 605.965 306.605 605.575C306.835 605.185 306.95 604.73 306.95 604.21V602.47C306.49 603.04 305.93 603.505 305.27 603.865C304.62 604.215 303.865 604.39 303.005 604.39C301.925 604.39 300.91 604.185 299.96 603.775C299.02 603.365 298.19 602.8 297.47 602.08C296.75 601.35 296.185 600.51 295.775 599.56C295.365 598.61 295.16 597.59 295.16 596.5C295.16 595.41 295.365 594.39 295.775 593.44C296.185 592.49 296.75 591.655 297.47 590.935C298.19 590.205 299.02 589.635 299.96 589.225C300.91 588.815 301.925 588.61 303.005 588.61C303.865 588.61 304.62 588.79 305.27 589.15C305.93 589.5 306.49 589.96 306.95 590.53V589ZM303.065 600.415C303.745 600.415 304.36 600.24 304.91 599.89C305.46 599.53 305.89 599.055 306.2 598.465C306.52 597.875 306.68 597.22 306.68 596.5C306.68 595.78 306.52 595.125 306.2 594.535C305.89 593.935 305.46 593.46 304.91 593.11C304.36 592.76 303.745 592.585 303.065 592.585C302.395 592.585 301.78 592.76 301.22 593.11C300.67 593.46 300.23 593.935 299.9 594.535C299.57 595.125 299.405 595.78 299.405 596.5C299.405 597.22 299.57 597.88 299.9 598.48C300.23 599.07 300.67 599.54 301.22 599.89C301.78 600.24 302.395 600.415 303.065 600.415ZM327.27 604.39C326.03 604.39 324.915 604.085 323.925 603.475C322.935 602.865 322.15 602.065 321.57 601.075C320.99 600.075 320.7 598.99 320.7 597.82C320.7 597.18 320.76 596.62 320.88 596.14C321 595.65 321.195 595.185 321.465 594.745C321.745 594.295 322.115 593.81 322.575 593.29C323.045 592.77 323.635 592.155 324.345 591.445C323.975 591.065 323.66 590.72 323.4 590.41C323.14 590.09 322.925 589.775 322.755 589.465C322.595 589.145 322.48 588.815 322.41 588.475C322.34 588.135 322.305 587.755 322.305 587.335C322.305 586.375 322.535 585.52 322.995 584.77C323.455 584.02 324.06 583.43 324.81 583C325.57 582.56 326.39 582.34 327.27 582.34C328.19 582.34 329.025 582.565 329.775 583.015C330.535 583.455 331.14 584.05 331.59 584.8C332.04 585.55 332.265 586.395 332.265 587.335C332.265 587.765 332.225 588.155 332.145 588.505C332.075 588.845 331.955 589.17 331.785 589.48C331.615 589.79 331.4 590.105 331.14 590.425C330.88 590.735 330.565 591.075 330.195 591.445L333.645 594.895L337.575 590.95V596.8L336.57 597.82L339.825 601.075L336.9 604L333.645 600.745C332.925 601.465 332.3 602.06 331.77 602.53C331.24 603 330.75 603.375 330.3 603.655C329.86 603.925 329.4 604.115 328.92 604.225C328.45 604.335 327.9 604.39 327.27 604.39ZM327.27 600.25C327.58 600.25 327.845 600.21 328.065 600.13C328.295 600.05 328.525 599.92 328.755 599.74C328.995 599.55 329.265 599.3 329.565 598.99C329.875 598.67 330.26 598.28 330.72 597.82L327.27 594.37C326.79 594.85 326.39 595.25 326.07 595.57C325.76 595.88 325.515 596.145 325.335 596.365C325.155 596.585 325.025 596.81 324.945 597.04C324.875 597.26 324.84 597.52 324.84 597.82C324.84 598.3 324.955 598.725 325.185 599.095C325.425 599.455 325.73 599.74 326.1 599.95C326.47 600.15 326.86 600.25 327.27 600.25ZM327.27 589.15C327.65 588.78 327.94 588.505 328.14 588.325C328.34 588.135 328.47 587.97 328.53 587.83C328.6 587.68 328.635 587.49 328.635 587.26C328.635 586.81 328.485 586.47 328.185 586.24C327.895 586 327.59 585.88 327.27 585.88C326.92 585.88 326.605 586.01 326.325 586.27C326.045 586.53 325.905 586.86 325.905 587.26C325.905 587.49 325.95 587.685 326.04 587.845C326.13 588.005 326.27 588.18 326.46 588.37C326.66 588.56 326.93 588.82 327.27 589.15ZM62.4638 621H67.1738L74.7938 642H70.3988L69.1388 638.52H60.4988L59.2388 642H54.8438L62.4638 621ZM62.0138 634.38H67.6238L64.8038 626.685L62.0138 634.38ZM77.3906 642V621H81.5306V642H77.3906ZM108.09 621V625.14H101.91V642H97.7702V625.14H91.5902V621H108.09ZM124.722 632.46V642H120.582V633.6C120.582 633.07 120.452 632.595 120.192 632.175C119.942 631.745 119.602 631.405 119.172 631.155C118.752 630.905 118.282 630.78 117.762 630.78C117.242 630.78 116.767 630.905 116.337 631.155C115.907 631.405 115.567 631.745 115.317 632.175C115.067 632.595 114.942 633.07 114.942 633.6V642H110.802L110.787 619.5H114.927L114.942 628.11C115.442 627.63 116.027 627.255 116.697 626.985C117.377 626.715 118.092 626.58 118.842 626.58C119.932 626.58 120.917 626.845 121.797 627.375C122.687 627.905 123.397 628.615 123.927 629.505C124.457 630.385 124.722 631.37 124.722 632.46ZM133.727 642.39C132.347 642.39 131.087 642.035 129.947 641.325C128.817 640.615 127.912 639.66 127.232 638.46C126.562 637.26 126.227 635.935 126.227 634.485C126.227 633.395 126.422 632.375 126.812 631.425C127.202 630.465 127.737 629.625 128.417 628.905C129.107 628.175 129.907 627.605 130.817 627.195C131.727 626.785 132.697 626.58 133.727 626.58C134.917 626.58 136.002 626.835 136.982 627.345C137.972 627.855 138.807 628.55 139.487 629.43C140.177 630.31 140.667 631.305 140.957 632.415C141.257 633.525 141.307 634.68 141.107 635.88H130.697C130.827 636.32 131.027 636.72 131.297 637.08C131.577 637.43 131.917 637.71 132.317 637.92C132.727 638.13 133.197 638.24 133.727 638.25C134.247 638.26 134.727 638.14 135.167 637.89C135.607 637.64 135.982 637.305 136.292 636.885L140.522 637.86C139.912 639.19 139.002 640.28 137.792 641.13C136.582 641.97 135.227 642.39 133.727 642.39ZM130.547 632.82H136.922C136.792 632.32 136.572 631.87 136.262 631.47C135.952 631.07 135.577 630.755 135.137 630.525C134.707 630.295 134.237 630.18 133.727 630.18C133.227 630.18 132.757 630.295 132.317 630.525C131.887 630.755 131.517 631.07 131.207 631.47C130.907 631.86 130.687 632.31 130.547 632.82ZM143.219 642L143.204 627H147.344L147.359 628.11C147.859 627.63 148.444 627.255 149.114 626.985C149.794 626.715 150.509 626.58 151.259 626.58C151.809 626.58 152.359 626.66 152.909 626.82L151.274 631.005C150.914 630.855 150.549 630.78 150.179 630.78C149.659 630.78 149.184 630.905 148.754 631.155C148.324 631.405 147.984 631.745 147.734 632.175C147.484 632.595 147.359 633.07 147.359 633.6V642H143.219ZM164.549 627H168.689V642H164.534L164.339 640.44C163.949 641.02 163.449 641.49 162.839 641.85C162.229 642.21 161.514 642.39 160.694 642.39C159.574 642.39 158.529 642.18 157.559 641.76C156.589 641.34 155.734 640.76 154.994 640.02C154.254 639.28 153.674 638.425 153.254 637.455C152.844 636.475 152.639 635.425 152.639 634.305C152.639 633.235 152.834 632.235 153.224 631.305C153.614 630.375 154.164 629.555 154.874 628.845C155.584 628.135 156.399 627.58 157.319 627.18C158.249 626.78 159.249 626.58 160.319 626.58C161.239 626.58 162.064 626.775 162.794 627.165C163.534 627.555 164.179 628.05 164.729 628.65L164.549 627ZM160.589 638.415C161.269 638.415 161.884 638.24 162.434 637.89C162.984 637.54 163.419 637.07 163.739 636.48C164.059 635.88 164.219 635.22 164.219 634.5C164.219 633.77 164.059 633.11 163.739 632.52C163.419 631.93 162.984 631.46 162.434 631.11C161.884 630.76 161.269 630.585 160.589 630.585C159.899 630.585 159.274 630.76 158.714 631.11C158.154 631.46 157.709 631.935 157.379 632.535C157.049 633.125 156.884 633.78 156.884 634.5C156.884 635.22 157.049 635.88 157.379 636.48C157.719 637.07 158.169 637.54 158.729 637.89C159.289 638.24 159.909 638.415 160.589 638.415ZM175.543 649.5H171.403V627H175.543V628.62C176.023 628.03 176.593 627.55 177.253 627.18C177.913 626.8 178.683 626.61 179.563 626.61C180.653 626.61 181.673 626.815 182.623 627.225C183.583 627.635 184.423 628.205 185.143 628.935C185.863 629.655 186.428 630.49 186.838 631.44C187.248 632.39 187.453 633.41 187.453 634.5C187.453 635.59 187.248 636.615 186.838 637.575C186.428 638.535 185.863 639.38 185.143 640.11C184.423 640.83 183.583 641.395 182.623 641.805C181.673 642.215 180.653 642.42 179.563 642.42C178.683 642.42 177.913 642.23 177.253 641.85C176.593 641.47 176.023 640.99 175.543 640.41V649.5ZM179.503 630.585C178.823 630.585 178.208 630.765 177.658 631.125C177.118 631.475 176.688 631.945 176.368 632.535C176.058 633.125 175.903 633.78 175.903 634.5C175.903 635.22 176.058 635.88 176.368 636.48C176.688 637.07 177.118 637.54 177.658 637.89C178.208 638.24 178.823 638.415 179.503 638.415C180.183 638.415 180.803 638.24 181.363 637.89C181.933 637.54 182.383 637.07 182.713 636.48C183.053 635.89 183.223 635.23 183.223 634.5C183.223 633.79 183.058 633.14 182.728 632.55C182.398 631.95 181.948 631.475 181.378 631.125C180.818 630.765 180.193 630.585 179.503 630.585ZM198.737 627H203.147L194.927 649.5H190.547L193.247 642L187.847 627H192.377L195.317 636.345L198.737 627ZM222.469 642.39C221.049 642.39 219.714 642.11 218.464 641.55C217.214 640.98 216.114 640.195 215.164 639.195C214.224 638.195 213.484 637.04 212.944 635.73C212.414 634.41 212.149 633 212.149 631.5C212.149 629.99 212.414 628.58 212.944 627.27C213.484 625.95 214.224 624.795 215.164 623.805C216.114 622.805 217.214 622.025 218.464 621.465C219.714 620.895 221.049 620.61 222.469 620.61C224.169 620.61 225.734 621.005 227.164 621.795C228.594 622.575 229.779 623.62 230.719 624.93L227.029 626.925C226.469 626.265 225.794 625.74 225.004 625.35C224.214 624.95 223.369 624.75 222.469 624.75C221.619 624.75 220.819 624.925 220.069 625.275C219.319 625.625 218.659 626.11 218.089 626.73C217.529 627.35 217.089 628.065 216.769 628.875C216.449 629.685 216.289 630.56 216.289 631.5C216.289 632.43 216.449 633.305 216.769 634.125C217.089 634.935 217.529 635.65 218.089 636.27C218.659 636.88 219.319 637.365 220.069 637.725C220.819 638.075 221.619 638.25 222.469 638.25C223.379 638.25 224.224 638.05 225.004 637.65C225.794 637.25 226.469 636.72 227.029 636.06L230.719 638.07C229.779 639.37 228.594 640.415 227.164 641.205C225.734 641.995 224.169 642.39 222.469 642.39ZM247.097 632.46V642H242.957V633.6C242.957 633.07 242.827 632.595 242.567 632.175C242.317 631.745 241.977 631.405 241.547 631.155C241.127 630.905 240.657 630.78 240.137 630.78C239.617 630.78 239.142 630.905 238.712 631.155C238.282 631.405 237.942 631.745 237.692 632.175C237.442 632.595 237.317 633.07 237.317 633.6V642H233.177L233.162 619.5H237.302L237.317 628.11C237.817 627.63 238.402 627.255 239.072 626.985C239.752 626.715 240.467 626.58 241.217 626.58C242.307 626.58 243.292 626.845 244.172 627.375C245.062 627.905 245.772 628.615 246.302 629.505C246.832 630.385 247.097 631.37 247.097 632.46ZM260.513 627H264.653V642H260.498L260.303 640.44C259.913 641.02 259.413 641.49 258.803 641.85C258.193 642.21 257.478 642.39 256.658 642.39C255.538 642.39 254.493 642.18 253.523 641.76C252.553 641.34 251.698 640.76 250.958 640.02C250.218 639.28 249.638 638.425 249.218 637.455C248.808 636.475 248.603 635.425 248.603 634.305C248.603 633.235 248.798 632.235 249.188 631.305C249.578 630.375 250.128 629.555 250.838 628.845C251.548 628.135 252.363 627.58 253.283 627.18C254.213 626.78 255.213 626.58 256.283 626.58C257.203 626.58 258.028 626.775 258.758 627.165C259.498 627.555 260.143 628.05 260.693 628.65L260.513 627ZM256.553 638.415C257.233 638.415 257.848 638.24 258.398 637.89C258.948 637.54 259.383 637.07 259.703 636.48C260.023 635.88 260.183 635.22 260.183 634.5C260.183 633.77 260.023 633.11 259.703 632.52C259.383 631.93 258.948 631.46 258.398 631.11C257.848 630.76 257.233 630.585 256.553 630.585C255.863 630.585 255.238 630.76 254.678 631.11C254.118 631.46 253.673 631.935 253.343 632.535C253.013 633.125 252.848 633.78 252.848 634.5C252.848 635.22 253.013 635.88 253.343 636.48C253.683 637.07 254.133 637.54 254.693 637.89C255.253 638.24 255.873 638.415 256.553 638.415ZM275.527 631.14H272.827V642H268.687V631.14H266.617V627H268.687V622.29H272.827V627H275.527V631.14ZM286.096 626.58C287.556 626.58 288.881 626.935 290.071 627.645C291.271 628.355 292.226 629.31 292.936 630.51C293.646 631.7 294.001 633.02 294.001 634.47C294.001 635.56 293.796 636.585 293.386 637.545C292.976 638.505 292.406 639.35 291.676 640.08C290.956 640.8 290.116 641.365 289.156 641.775C288.206 642.185 287.186 642.39 286.096 642.39C285.236 642.39 284.471 642.2 283.801 641.82C283.131 641.44 282.556 640.96 282.076 640.38V642H277.936V619.5H282.076V628.59C282.556 628 283.131 627.52 283.801 627.15C284.471 626.77 285.236 626.58 286.096 626.58ZM286.036 638.385C286.726 638.385 287.351 638.21 287.911 637.86C288.481 637.51 288.931 637.04 289.261 636.45C289.591 635.85 289.756 635.19 289.756 634.47C289.756 633.75 289.586 633.095 289.246 632.505C288.916 631.915 288.466 631.445 287.896 631.095C287.336 630.735 286.716 630.555 286.036 630.555C285.356 630.555 284.741 630.735 284.191 631.095C283.651 631.445 283.221 631.92 282.901 632.52C282.591 633.11 282.436 633.76 282.436 634.47C282.436 635.2 282.591 635.86 282.901 636.45C283.221 637.04 283.651 637.51 284.191 637.86C284.741 638.21 285.356 638.385 286.036 638.385ZM302.722 642.39C301.342 642.39 300.082 642.035 298.942 641.325C297.812 640.615 296.907 639.665 296.227 638.475C295.557 637.275 295.222 635.95 295.222 634.5C295.222 633.4 295.417 632.375 295.807 631.425C296.197 630.465 296.732 629.625 297.412 628.905C298.102 628.175 298.902 627.605 299.812 627.195C300.722 626.785 301.692 626.58 302.722 626.58C304.102 626.58 305.357 626.935 306.487 627.645C307.627 628.355 308.532 629.31 309.202 630.51C309.882 631.71 310.222 633.04 310.222 634.5C310.222 635.59 310.027 636.61 309.637 637.56C309.247 638.51 308.707 639.35 308.017 640.08C307.337 640.8 306.542 641.365 305.632 641.775C304.732 642.185 303.762 642.39 302.722 642.39ZM302.722 638.25C303.362 638.25 303.937 638.08 304.447 637.74C304.957 637.39 305.357 636.93 305.647 636.36C305.937 635.79 306.082 635.17 306.082 634.5C306.082 633.81 305.927 633.18 305.617 632.61C305.317 632.03 304.912 631.57 304.402 631.23C303.892 630.89 303.332 630.72 302.722 630.72C302.092 630.72 301.522 630.895 301.012 631.245C300.502 631.595 300.097 632.055 299.797 632.625C299.507 633.195 299.362 633.82 299.362 634.5C299.362 635.21 299.512 635.85 299.812 636.42C300.122 636.98 300.532 637.425 301.042 637.755C301.552 638.085 302.112 638.25 302.722 638.25ZM320.447 631.14H317.747V642H313.607V631.14H311.537V627H313.607V622.29H317.747V627H320.447V631.14Z" fill="white"/>
<path d="M72.8133 604L76.8933 583H80.3883L85.2633 595.855L90.1533 583H93.6483L97.7283 604H93.4983L91.1733 591.955L86.6883 603.79H83.8383L79.3683 591.955L77.0283 604H72.8133ZM105.92 604.39C104.54 604.39 103.28 604.035 102.14 603.325C101.01 602.615 100.105 601.66 99.4249 600.46C98.7549 599.26 98.4199 597.935 98.4199 596.485C98.4199 595.395 98.6149 594.375 99.0049 593.425C99.3949 592.465 99.9299 591.625 100.61 590.905C101.3 590.175 102.1 589.605 103.01 589.195C103.92 588.785 104.89 588.58 105.92 588.58C107.11 588.58 108.195 588.835 109.175 589.345C110.165 589.855 111 590.55 111.68 591.43C112.37 592.31 112.86 593.305 113.15 594.415C113.45 595.525 113.5 596.68 113.3 597.88H102.89C103.02 598.32 103.22 598.72 103.49 599.08C103.77 599.43 104.11 599.71 104.51 599.92C104.92 600.13 105.39 600.24 105.92 600.25C106.44 600.26 106.92 600.14 107.36 599.89C107.8 599.64 108.175 599.305 108.485 598.885L112.715 599.86C112.105 601.19 111.195 602.28 109.985 603.13C108.775 603.97 107.42 604.39 105.92 604.39ZM102.74 594.82H109.115C108.985 594.32 108.765 593.87 108.455 593.47C108.145 593.07 107.77 592.755 107.33 592.525C106.9 592.295 106.43 592.18 105.92 592.18C105.42 592.18 104.95 592.295 104.51 592.525C104.08 592.755 103.71 593.07 103.4 593.47C103.1 593.86 102.88 594.31 102.74 594.82ZM129.332 594.46V604H125.192V595.6C125.192 595.07 125.062 594.595 124.802 594.175C124.552 593.745 124.212 593.405 123.782 593.155C123.362 592.905 122.892 592.78 122.372 592.78C121.852 592.78 121.377 592.905 120.947 593.155C120.517 593.405 120.177 593.745 119.927 594.175C119.677 594.595 119.552 595.07 119.552 595.6V604H115.412L115.397 589H119.537L119.552 590.11C120.052 589.63 120.637 589.255 121.307 588.985C121.987 588.715 122.702 588.58 123.452 588.58C124.542 588.58 125.527 588.845 126.407 589.375C127.297 589.905 128.007 590.615 128.537 591.505C129.067 592.385 129.332 593.37 129.332 594.46ZM140.19 593.14H137.49V604H133.35V593.14H131.28V589H133.35V584.29H137.49V589H140.19V593.14ZM153.287 589H157.427V604H153.272L153.077 602.44C152.687 603.02 152.187 603.49 151.577 603.85C150.967 604.21 150.252 604.39 149.432 604.39C148.312 604.39 147.267 604.18 146.297 603.76C145.327 603.34 144.472 602.76 143.732 602.02C142.992 601.28 142.412 600.425 141.992 599.455C141.582 598.475 141.377 597.425 141.377 596.305C141.377 595.235 141.572 594.235 141.962 593.305C142.352 592.375 142.902 591.555 143.612 590.845C144.322 590.135 145.137 589.58 146.057 589.18C146.987 588.78 147.987 588.58 149.057 588.58C149.977 588.58 150.802 588.775 151.532 589.165C152.272 589.555 152.917 590.05 153.467 590.65L153.287 589ZM149.327 600.415C150.007 600.415 150.622 600.24 151.172 599.89C151.722 599.54 152.157 599.07 152.477 598.48C152.797 597.88 152.957 597.22 152.957 596.5C152.957 595.77 152.797 595.11 152.477 594.52C152.157 593.93 151.722 593.46 151.172 593.11C150.622 592.76 150.007 592.585 149.327 592.585C148.637 592.585 148.012 592.76 147.452 593.11C146.892 593.46 146.447 593.935 146.117 594.535C145.787 595.125 145.622 595.78 145.622 596.5C145.622 597.22 145.787 597.88 146.117 598.48C146.457 599.07 146.907 599.54 147.467 599.89C148.027 600.24 148.647 600.415 149.327 600.415ZM160.171 604V581.5H164.311V604H160.171Z" fill="#ACA9A5"/>
</g>
<rect x="134.5" y="60.5" width="107" height="39" rx="19.5" stroke="white"/>
<path d="M153.122 85.708C152.503 85.708 151.909 85.612 151.338 85.42C150.773 85.2227 150.277 84.9427 149.85 84.58C149.423 84.212 149.117 83.772 148.93 83.26L150.762 82.588C150.837 82.8013 150.989 82.996 151.218 83.172C151.447 83.348 151.727 83.4893 152.058 83.596C152.389 83.7027 152.743 83.756 153.122 83.756C153.511 83.756 153.874 83.6973 154.21 83.58C154.551 83.4573 154.826 83.2893 155.034 83.076C155.242 82.8573 155.346 82.604 155.346 82.316C155.346 82.0227 155.237 81.7827 155.018 81.596C154.799 81.404 154.519 81.252 154.178 81.14C153.837 81.028 153.485 80.9427 153.122 80.884C152.327 80.7613 151.615 80.572 150.986 80.316C150.357 80.06 149.858 79.7053 149.49 79.252C149.127 78.7987 148.946 78.212 148.946 77.492C148.946 76.8147 149.141 76.2227 149.53 75.716C149.919 75.2093 150.431 74.8147 151.066 74.532C151.701 74.2493 152.386 74.108 153.122 74.108C153.735 74.108 154.327 74.204 154.898 74.396C155.469 74.588 155.967 74.868 156.394 75.236C156.826 75.604 157.135 76.0467 157.322 76.564L155.482 77.228C155.407 77.0147 155.255 76.82 155.026 76.644C154.797 76.468 154.517 76.3293 154.186 76.228C153.855 76.1213 153.501 76.068 153.122 76.068C152.743 76.0627 152.383 76.124 152.042 76.252C151.706 76.3747 151.431 76.5427 151.218 76.756C151.005 76.9693 150.898 77.2147 150.898 77.492C150.898 77.8493 150.997 78.1187 151.194 78.3C151.397 78.4813 151.666 78.6147 152.002 78.7C152.338 78.78 152.711 78.8547 153.122 78.924C153.869 79.0413 154.559 79.2387 155.194 79.516C155.829 79.7933 156.338 80.164 156.722 80.628C157.106 81.0867 157.298 81.6493 157.298 82.316C157.298 82.9933 157.106 83.588 156.722 84.1C156.338 84.6067 155.829 85.0013 155.194 85.284C154.559 85.5667 153.869 85.708 153.122 85.708ZM163.127 79.452H161.575V85.5H159.623V79.452H158.439V77.5H159.623V74.988H161.575V77.5H163.127V79.452ZM167.858 85.708C167.122 85.708 166.45 85.5187 165.842 85.14C165.239 84.7613 164.756 84.252 164.394 83.612C164.036 82.972 163.858 82.2653 163.858 81.492C163.858 80.9107 163.962 80.3667 164.17 79.86C164.378 79.348 164.663 78.9 165.026 78.516C165.394 78.1267 165.82 77.8227 166.306 77.604C166.791 77.3853 167.308 77.276 167.858 77.276C168.482 77.276 169.052 77.4093 169.57 77.676C170.092 77.9373 170.535 78.2973 170.898 78.756C171.26 79.2147 171.524 79.7373 171.69 80.324C171.855 80.9107 171.892 81.524 171.802 82.164H165.954C166.028 82.4627 166.151 82.732 166.322 82.972C166.492 83.2067 166.708 83.396 166.97 83.54C167.231 83.6787 167.527 83.7507 167.858 83.756C168.199 83.7613 168.508 83.6813 168.786 83.516C169.068 83.3453 169.303 83.116 169.49 82.828L171.482 83.292C171.156 84.0013 170.671 84.5827 170.026 85.036C169.38 85.484 168.658 85.708 167.858 85.708ZM165.89 80.7H169.826C169.767 80.38 169.642 80.092 169.45 79.836C169.263 79.5747 169.031 79.3667 168.754 79.212C168.476 79.0573 168.178 78.98 167.858 78.98C167.538 78.98 167.242 79.0573 166.97 79.212C166.698 79.3613 166.466 79.5667 166.274 79.828C166.087 80.084 165.959 80.3747 165.89 80.7ZM175.007 89.5H173.055V77.5H175.007V78.516C175.269 78.1533 175.589 77.86 175.967 77.636C176.351 77.4067 176.799 77.292 177.311 77.292C177.898 77.292 178.445 77.4013 178.951 77.62C179.458 77.8387 179.903 78.1427 180.287 78.532C180.677 78.916 180.978 79.3613 181.191 79.868C181.41 80.3747 181.519 80.9187 181.519 81.5C181.519 82.0813 181.41 82.628 181.191 83.14C180.978 83.652 180.677 84.1027 180.287 84.492C179.903 84.876 179.458 85.1773 178.951 85.396C178.445 85.6147 177.898 85.724 177.311 85.724C176.799 85.724 176.351 85.612 175.967 85.388C175.589 85.1587 175.269 84.8627 175.007 84.5V89.5ZM177.287 79.172C176.882 79.172 176.519 79.2787 176.199 79.492C175.879 79.7 175.629 79.98 175.447 80.332C175.266 80.684 175.175 81.0733 175.175 81.5C175.175 81.9267 175.266 82.3187 175.447 82.676C175.629 83.028 175.879 83.3107 176.199 83.524C176.519 83.732 176.882 83.836 177.287 83.836C177.698 83.836 178.074 83.732 178.415 83.524C178.757 83.316 179.029 83.036 179.231 82.684C179.434 82.3267 179.535 81.932 179.535 81.5C179.535 81.0733 179.434 80.684 179.231 80.332C179.029 79.98 178.757 79.7 178.415 79.492C178.079 79.2787 177.703 79.172 177.287 79.172ZM195.189 74.3V76.252H191.765V85.5H189.813V76.252H186.389V74.3H195.189ZM204.068 80.444V85.5H202.116V80.956C202.116 80.6413 202.038 80.356 201.884 80.1C201.729 79.8387 201.521 79.6333 201.26 79.484C201.004 79.3293 200.718 79.252 200.404 79.252C200.089 79.252 199.801 79.3293 199.54 79.484C199.284 79.6333 199.078 79.8387 198.924 80.1C198.774 80.356 198.7 80.6413 198.7 80.956V85.5H196.748L196.74 73.5H198.692L198.7 78.212C198.972 77.924 199.297 77.6973 199.676 77.532C200.054 77.3613 200.462 77.276 200.9 77.276C201.481 77.276 202.012 77.42 202.492 77.708C202.972 77.9907 203.353 78.372 203.636 78.852C203.924 79.3267 204.068 79.8573 204.068 80.444ZM205.621 85.5L205.613 77.5H207.565L207.573 78.212C207.845 77.924 208.171 77.6973 208.549 77.532C208.928 77.3613 209.336 77.276 209.773 77.276C210.067 77.276 210.36 77.3187 210.653 77.404L209.885 79.372C209.683 79.292 209.48 79.252 209.277 79.252C208.963 79.252 208.675 79.3293 208.413 79.484C208.157 79.6333 207.952 79.8387 207.797 80.1C207.648 80.356 207.573 80.6413 207.573 80.956V85.5H205.621ZM214.648 85.708C213.912 85.708 213.24 85.5187 212.632 85.14C212.029 84.7613 211.547 84.252 211.184 83.612C210.827 82.972 210.648 82.2653 210.648 81.492C210.648 80.9107 210.752 80.3667 210.96 79.86C211.168 79.348 211.453 78.9 211.816 78.516C212.184 78.1267 212.611 77.8227 213.096 77.604C213.581 77.3853 214.099 77.276 214.648 77.276C215.272 77.276 215.843 77.4093 216.36 77.676C216.883 77.9373 217.325 78.2973 217.688 78.756C218.051 79.2147 218.315 79.7373 218.48 80.324C218.645 80.9107 218.683 81.524 218.592 82.164H212.744C212.819 82.4627 212.941 82.732 213.112 82.972C213.283 83.2067 213.499 83.396 213.76 83.54C214.021 83.6787 214.317 83.7507 214.648 83.756C214.989 83.7613 215.299 83.6813 215.576 83.516C215.859 83.3453 216.093 83.116 216.28 82.828L218.272 83.292C217.947 84.0013 217.461 84.5827 216.816 85.036C216.171 85.484 215.448 85.708 214.648 85.708ZM212.68 80.7H216.616C216.557 80.38 216.432 80.092 216.24 79.836C216.053 79.5747 215.821 79.3667 215.544 79.212C215.267 79.0573 214.968 78.98 214.648 78.98C214.328 78.98 214.032 79.0573 213.76 79.212C213.488 79.3613 213.256 79.5667 213.064 79.828C212.877 80.084 212.749 80.3747 212.68 80.7ZM223.397 85.708C222.661 85.708 221.989 85.5187 221.381 85.14C220.778 84.7613 220.295 84.252 219.933 83.612C219.575 82.972 219.397 82.2653 219.397 81.492C219.397 80.9107 219.501 80.3667 219.709 79.86C219.917 79.348 220.202 78.9 220.565 78.516C220.933 78.1267 221.359 77.8227 221.845 77.604C222.33 77.3853 222.847 77.276 223.397 77.276C224.021 77.276 224.591 77.4093 225.109 77.676C225.631 77.9373 226.074 78.2973 226.437 78.756C226.799 79.2147 227.063 79.7373 227.229 80.324C227.394 80.9107 227.431 81.524 227.341 82.164H221.493C221.567 82.4627 221.69 82.732 221.861 82.972C222.031 83.2067 222.247 83.396 222.509 83.54C222.77 83.6787 223.066 83.7507 223.397 83.756C223.738 83.7613 224.047 83.6813 224.325 83.516C224.607 83.3453 224.842 83.116 225.029 82.828L227.021 83.292C226.695 84.0013 226.21 84.5827 225.565 85.036C224.919 85.484 224.197 85.708 223.397 85.708ZM221.429 80.7H225.365C225.306 80.38 225.181 80.092 224.989 79.836C224.802 79.5747 224.57 79.3667 224.293 79.212C224.015 79.0573 223.717 78.98 223.397 78.98C223.077 78.98 222.781 79.0573 222.509 79.212C222.237 79.3613 222.005 79.5667 221.813 79.828C221.626 80.084 221.498 80.3747 221.429 80.7Z" fill="white"/>
</g>
<defs>
<filter id="filter0_ddddd_4_2254" x="-403" y="88" width="1180" height="1365" filterUnits="userSpaceOnUse" color-interpolation-filters="sRGB">
<feFlood flood-opacity="0" result="BackgroundImageFix"/>
<feColorMatrix in="SourceAlpha" type="matrix" values="0 0 0 0 0 0 0 0 0 0 0 0 0 0 0 0 0 0 127 0" result="hardAlpha"/>
<feOffset/>
<feColorMatrix type="matrix" values="0 0 0 0 0.294118 0 0 0 0 0.203922 0 0 0 0 0.145098 0 0 0 0.05 0"/>
<feBlend mode="normal" in2="BackgroundImageFix" result="effect1_dropShadow_4_2254"/>
<feColorMatrix in="SourceAlpha" type="matrix" values="0 0 0 0 0 0 0 0 0 0 0 0 0 0 0 0 0 0 127 0" result="hardAlpha"/>
<feOffset dy="-17"/>
<feGaussianBlur stdDeviation="19"/>
<feColorMatrix type="matrix" values="0 0 0 0 0.294118 0 0 0 0 0.203922 0 0 0 0 0.145098 0 0 0 0.05 0"/>
<feBlend mode="normal" in2="effect1_dropShadow_4_2254" result="effect2_dropShadow_4_2254"/>
<feColorMatrix in="SourceAlpha" type="matrix" values="0 0 0 0 0 0 0 0 0 0 0 0 0 0 0 0 0 0 127 0" result="hardAlpha"/>
<feOffset dy="-69"/>
<feGaussianBlur stdDeviation="34.5"/>
<feColorMatrix type="matrix" values="0 0 0 0 0.294118 0 0 0 0 0.203922 0 0 0 0 0.145098 0 0 0 0.04 0"/>
<feBlend mode="normal" in2="effect2_dropShadow_4_2254" result="effect3_dropShadow_4_2254"/>
<feColorMatrix in="SourceAlpha" type="matrix" values="0 0 0 0 0 0 0 0 0 0 0 0 0 0 0 0 0 0 127 0" result="hardAlpha"/>
<feOffset dy="-154"/>
<feGaussianBlur stdDeviation="46.5"/>
<feColorMatrix type="matrix" values="0 0 0 0 0.294118 0 0 0 0 0.203922 0 0 0 0 0.145098 0 0 0 0.03 0"/>
<feBlend mode="normal" in2="effect3_dropShadow_4_2254" result="effect4_dropShadow_4_2254"/>
<feColorMatrix in="SourceAlpha" type="matrix" values="0 0 0 0 0 0 0 0 0 0 0 0 0 0 0 0 0 0 127 0" result="hardAlpha"/>
<feOffset dy="-274"/>
<feGaussianBlur stdDeviation="55"/>
<feColorMatrix type="matrix" values="0 0 0 0 0.294118 0 0 0 0 0.203922 0 0 0 0 0.145098 0 0 0 0.01 0"/>
<feBlend mode="normal" in2="effect4_dropShadow_4_2254" result="effect5_dropShadow_4_2254"/>
<feBlend mode="normal" in="SourceGraphic" in2="effect5_dropShadow_4_2254" result="shape"/>
</filter>
<clipPath id="clip0_4_2254">
<rect width="375" height="812" fill="white"/>
</clipPath>
</defs>
</svg>
