<svg width="375" height="812" viewBox="0 0 375 812" fill="none" xmlns="http://www.w3.org/2000/svg">
<g clip-path="url(#clip0_4_2194)">
<rect width="375" height="812" fill="#663600"/>
<path opacity="0.48" d="M135.806 442.935C73.8496 439.523 12.3987 428.433 -46.6303 410.067C-63.0243 404.949 -79.4715 399.164 -93.3638 389.354C-107.256 379.544 -118.487 365.096 -120.669 348.542C-121.601 341.398 -120.696 333.668 -116.252 327.857C-107.496 316.367 -89.7976 316.981 -75.3464 319.62C-39.8971 326.071 -5.45902 337.746 26.3709 354.14C-24.6208 332.442 -74.202 296.961 -89.5581 245.06C-91.5275 238.422 -92.8848 231.438 -91.9533 224.587C-89.3718 205.874 -69.518 192.759 -50.0635 191.533C-30.6355 190.307 -11.8995 198.33 4.97351 207.714C34.0356 223.894 60.3565 244.713 82.499 269.078C33.4501 244.9 4.46786 193.425 -8.22684 141.498C-9.77043 135.233 -11.1011 128.622 -9.47769 122.358C-6.04453 109.243 9.79057 102.072 23.6297 103.565C37.4688 105.057 49.5779 113.028 60.596 121.238C99.9309 150.534 134.875 187.534 151.854 232.771C115.952 195.265 104.695 137.259 124.043 89.4365C129.312 76.4012 137.11 63.6858 149.246 56.0886C161.408 48.4913 178.627 47.3717 189.645 56.3551C198.322 63.4459 201.489 74.9084 203.804 85.7045C214.157 134.3 216.073 184.629 209.473 233.917C208.541 191.319 223.658 148.482 251.336 115.24C265.627 98.0733 283.246 83.5453 302.86 72.376C331.603 56.0353 364.87 85.2247 350.685 114.441C350.578 114.654 350.498 114.841 350.392 115.054C329.394 157.945 298.069 196.064 259.639 225.494C283.246 189.107 316.885 158.878 356.087 138.832C371.204 131.101 389.328 124.81 404.95 131.421C425.229 140.005 430.632 167.248 422.062 187.108C413.493 206.967 395.183 221.069 377.618 234.237C348.422 256.149 319.254 278.061 290.059 299.973C332.933 267.345 378.336 233.571 432.096 225.201C442.794 223.521 454.957 223.308 463.074 230.212C472.708 238.422 472.309 253.857 465.709 264.6C459.109 275.342 447.878 282.486 437.019 289.257C401.277 311.569 365.535 333.881 329.819 356.193C369.5 330.496 415.143 303.572 461.663 313.355C476.461 316.474 491.79 325.004 495.276 339.292C499.322 355.9 485.722 371.707 471.484 381.837C439.042 404.949 399.175 415.398 360.319 425.395C287.69 444.081 210.511 462.741 138.76 441.682L135.806 442.935Z" fill="#894700"/>
<path d="M121.196 310.932C114.541 309.431 108.865 308.27 107.612 308.179C93.9585 307.132 80.0775 308.589 67.0399 312.912C-4.5531 336.76 2.35319 431.401 15.1857 490.133C15.6643 492.295 19.3796 511.66 21.0207 511.728C21.0207 511.728 51.1987 513.048 92.7733 514.868C93.571 445.919 97.1723 376.764 121.196 310.932Z" fill="#ED7E1C"/>
<path d="M235.253 343.382C228.62 349.754 221.349 355.533 213.44 360.244C198.009 369.437 176.72 374.102 159.284 372.145C133.527 369.278 135.1 336.214 146.246 317.85C146.77 317.008 132.57 313.458 121.174 310.91C97.1725 376.764 93.5712 445.919 92.7734 514.868C125.96 516.325 166.395 518.077 204.573 519.761C219.252 459.436 233.68 399.133 240.814 337.261C238.17 340.242 235.982 342.699 235.253 343.382Z" fill="#AA5500"/>
<path d="M368.524 394.195C368.569 378.517 365.88 361.746 360.045 347.159C343.018 304.606 286.036 286.971 253.122 323.061C252.575 323.676 245.897 331.435 240.814 337.238C233.68 399.133 219.252 459.436 204.573 519.738C272.314 522.696 332.875 525.336 332.898 525.336C333.263 525.336 341.24 503.126 342.243 500.828C346.642 490.702 350.563 480.371 353.982 469.858C360.364 450.22 365.606 429.444 367.749 408.873C368.227 404.117 368.501 399.201 368.524 394.195Z" fill="#ED7E1C"/>
<path d="M117.709 231.265C118.666 233.859 119.623 236.431 120.603 239.025C121.059 240.276 123.088 239.73 122.609 238.479C121.652 235.884 120.694 233.313 119.714 230.719C119.258 229.467 117.253 229.991 117.709 231.265Z" fill="#211300"/>
<path d="M138.383 354.213C140.708 369.55 155.637 373.692 169.267 373.26C186.499 372.691 203.206 367.116 217.543 357.672C224.404 353.144 230.74 347.842 236.575 342.084C238.49 340.196 251.915 322.81 253.1 323.061C234.364 319.215 214.831 318.419 196.254 318.168C178.111 317.941 161.654 317.44 146.246 317.872C139.682 328.75 136.4 341.06 138.383 354.213Z" fill="#F6A460"/>
<path d="M259.869 426.03C256.587 451.494 250.023 476.411 240.336 500.214C239.834 501.465 241.84 501.989 242.341 500.76C252.097 476.798 258.638 451.699 261.943 426.03C262.126 424.711 260.029 424.711 259.869 426.03Z" fill="#211300"/>
<path d="M131.475 334.097C126.848 347.136 126.803 361.29 131.362 374.375C131.795 375.626 133.823 375.103 133.367 373.829C128.923 361.063 128.968 347.409 133.481 334.666C133.914 333.369 131.909 332.846 131.475 334.097Z" fill="#211300"/>
<path d="M143.534 383.636C156.617 388.779 172.185 386.913 185.496 383.75C199.924 380.314 214.716 374.443 225.885 364.476C226.888 363.588 225.406 362.109 224.403 362.997C213.508 372.736 198.989 378.402 184.926 381.747C171.957 384.819 156.822 386.663 144.081 381.634C142.85 381.133 142.303 383.136 143.534 383.636Z" fill="#211300"/>
<path d="M103.965 252.382C103.554 248.149 100.409 244.645 96.762 242.779C93.1152 240.89 88.9896 240.367 84.9552 239.866C75.7696 238.706 66.6068 237.545 57.4212 236.408C51.3583 235.634 44.999 234.746 40.1441 230.878C35.2892 227.009 32.8275 219.113 36.634 214.13C41.6712 207.553 53.2729 210.398 57.9911 203.571C61.5696 198.406 58.6065 190.828 53.8883 186.778C49.1701 182.727 43.1072 180.861 37.9332 177.47C30.3431 172.487 24.8727 164.067 23.2544 154.851C22.9581 153.213 22.7986 151.484 23.3 149.891C24.4625 146.25 28.8615 144.725 32.44 145.522C36.0413 146.318 39.05 148.753 42.0587 150.96C47.0504 154.601 53.2501 157.832 59.0395 155.853C64.6694 153.941 67.8605 147.774 69.5699 141.881C71.2794 135.964 72.1227 129.593 75.4733 124.518C79.0974 118.989 85.5934 115.643 91.9983 116.03C98.4031 116.394 104.512 120.468 107.566 126.384C110.256 131.641 110.529 137.807 111.714 143.656C112.877 149.481 115.521 155.671 120.763 157.992C124.615 159.698 129.014 158.947 133.208 158.879C137.402 158.811 142.189 159.858 144.263 163.681C145.471 165.933 145.448 168.664 145.288 171.235C144.514 183.114 141.459 194.697 140.32 206.552C139.157 218.385 140.16 231.106 146.656 240.89L103.965 252.382Z" fill="#211300"/>
<path d="M223.105 318.669L134.234 224.711C121.698 228.602 108.296 224.552 99.2243 215.495C91.11 238.569 82.8133 278.005 105.333 308.338L127.397 286.675C127.397 286.675 136.058 313.822 144.605 340.492C152.606 365.455 183.24 374.602 203.662 358.15C203.936 357.923 204.209 357.718 204.46 357.49C221.372 343.791 238.057 334.484 223.105 318.669Z" fill="#F6A460"/>
<path d="M134.234 224.711L107.384 196.335C107.384 196.335 103.326 203.822 99.2236 215.495C108.318 224.575 121.698 228.602 134.234 224.711Z" fill="#F6A460"/>
<path d="M167.079 230.969C165.438 239.616 157.119 245.305 148.457 243.666C139.796 242.028 134.098 233.722 135.739 225.075C137.38 216.428 145.699 210.739 154.361 212.377C163.022 213.993 168.72 222.322 167.079 230.969Z" fill="#F6A460"/>
<path d="M148.344 234.838C151.238 229.763 154.156 224.711 157.142 219.682C157.825 218.522 156.025 217.475 155.341 218.636C152.355 223.642 149.438 228.716 146.543 233.791C145.882 234.974 147.683 236.021 148.344 234.838Z" fill="#211300"/>
<path d="M127.396 286.675L145.221 341.538L142.531 269.608L127.396 286.675Z" fill="#211300"/>
<path d="M94.1868 232.516C90.5171 242.028 87.3716 252.313 85.6622 262.349C85.5026 263.282 86.3459 263.896 87.1893 263.532C90.9046 261.871 94.6426 260.21 98.3579 258.548C99.5887 258.002 98.5174 256.205 97.3094 256.751C93.5941 258.412 89.8561 260.073 86.1408 261.734C86.6423 262.121 87.1665 262.508 87.6679 262.917C89.3774 252.859 92.5229 242.574 96.1926 233.085C96.694 231.833 94.6654 231.287 94.1868 232.516Z" fill="#211300"/>
<path d="M115.954 230.15C117.116 233.449 118.302 236.749 119.464 240.048C119.92 241.3 121.926 240.754 121.47 239.502C120.307 236.203 119.122 232.903 117.96 229.603C117.527 228.352 115.498 228.898 115.954 230.15Z" fill="#211300"/>
<path d="M118.211 242.187C120.262 241.027 122.314 239.844 124.388 238.683C125.55 238.023 124.502 236.225 123.339 236.885C121.288 238.046 119.237 239.229 117.162 240.39C115.977 241.05 117.026 242.847 118.211 242.187Z" fill="#211300"/>
<path d="M108.729 220.911C113.242 225.758 119.351 228.352 125.984 228.238C127.328 228.216 127.328 226.122 125.984 226.168C119.875 226.281 114.382 223.938 110.211 219.455C109.276 218.453 107.795 219.933 108.729 220.911Z" fill="#211300"/>
<path d="M101.161 282.806C101.161 282.806 102.027 271.246 105.355 266.468C111.008 258.344 113.264 257.843 118.302 254.908C120.398 253.679 123.316 253.201 125.755 253.27C128.171 253.315 130.747 255.158 130.678 257.57C130.633 259.937 128.33 261.553 126.256 262.69C117.093 267.788 106.723 272.453 101.868 281.76L101.161 282.806Z" fill="#211300"/>
<path d="M132.342 252.564C133.733 255.591 133.687 258.981 132.274 262.008C131.704 263.214 133.505 264.261 134.075 263.055C135.853 259.3 135.853 255.295 134.143 251.517C133.573 250.311 131.795 251.358 132.342 252.564Z" fill="#211300"/>
<path d="M45.3867 403.639C43.1985 432.857 44.908 463.031 50.4923 491.817C50.743 493.137 52.7488 492.568 52.4981 491.271C46.9366 462.69 45.2955 432.675 47.4608 403.639C47.5748 402.296 45.4778 402.296 45.3867 403.639Z" fill="#211300"/>
<path d="M161.244 268.106C160.856 268.197 164.343 275.433 166.782 280.735C167.466 282.192 168.104 283.739 169.358 284.763C170.589 285.787 172.549 286.219 174.19 285.309C176.31 284.149 176.925 281.281 176.082 279.37C175.216 277.459 173.347 276.275 171.546 275.183C168.173 273.112 161.244 268.106 161.244 268.106Z" fill="#C2B1FF"/>
<path d="M222.535 276.366C222.147 276.457 225.634 283.694 228.073 288.996C228.757 290.452 229.395 291.999 230.649 293.023C231.88 294.047 233.84 294.48 235.481 293.569C237.601 292.409 238.216 289.542 237.373 287.63C236.507 285.719 234.638 284.535 232.837 283.443C229.486 281.372 222.535 276.366 222.535 276.366Z" fill="#C2B1FF"/>
<path d="M64.9659 270.063C64.7152 269.768 59.7007 276.025 55.9855 280.508C54.9598 281.76 53.8657 283.011 53.4554 284.559C53.0679 286.129 53.5466 288.063 55.0509 289.155C57.0339 290.566 59.8831 289.861 61.2279 288.268C62.5726 286.675 62.8462 284.468 63.0513 282.374C63.4616 278.46 64.9659 270.063 64.9659 270.063Z" fill="#C2B1FF"/>
<path d="M126.827 236.339C126.439 236.317 127.67 244.258 128.468 250.016C128.696 251.608 128.878 253.27 129.767 254.612C130.656 255.955 132.411 256.91 134.234 256.524C136.605 256.023 138.018 253.452 137.767 251.381C137.494 249.31 136.058 247.626 134.645 246.056C132.023 243.143 126.827 236.339 126.827 236.339Z" fill="#C2B1FF"/>
<path d="M140.73 213.425C137.516 202.729 141.482 193.058 149.118 185.481C154.907 179.723 162.679 174.74 166.509 167.299C169.837 160.859 166.121 154.533 159.899 151.734C156.047 150.005 151.739 149.845 147.613 149.504C144.308 149.231 140.092 149.686 141.117 144.976C141.687 142.359 143.032 139.401 146.086 139.127C147.408 139.014 147.431 136.92 146.086 137.057C142.895 137.33 140.912 139.401 139.772 142.29C138.792 144.748 137.676 148.958 140.616 150.505C142.257 151.37 144.582 151.347 146.382 151.507C149.642 151.802 152.947 151.871 156.115 152.667C161.859 154.101 167.671 158.879 165.118 165.365C163.249 170.075 158.736 173.921 155.067 177.243C151.443 180.52 147.636 183.683 144.491 187.46C138.2 194.993 135.898 204.527 138.747 213.993C139.089 215.245 141.117 214.699 140.73 213.425Z" fill="#211300"/>
<path d="M47.0505 215.814C50.4923 215.518 52.8171 213.493 54.9597 210.921C57.3985 208.031 60.0197 204.686 60.4528 200.818C61.2278 193.718 54.1163 189.326 47.8255 189.053C40.9192 188.78 30.5939 191.283 26.1949 197.132C24.5538 199.316 23.3229 202.707 25.0324 205.233C26.3772 207.235 29.044 207.804 30.9814 206.348C32.0299 205.551 31.0042 203.731 29.9329 204.55C26.4 207.212 26.4911 200.545 27.3801 199.089C28.1322 197.882 29.2035 196.836 30.3432 196.016C31.8931 194.901 33.6938 194.128 35.4944 193.491C40.3038 191.761 46.2071 190.168 51.2444 191.67C56.4412 193.195 59.8602 198.019 57.6037 203.321C55.9398 207.258 51.7003 213.356 47.0505 213.743C45.7285 213.857 45.7285 215.928 47.0505 215.814Z" fill="#211300"/>
<g filter="url(#filter0_ddddd_4_2194)">
<rect x="-293" y="472" width="960" height="960" rx="480" fill="#251404"/>
<rect x="97.5" y="542" width="180" height="8" rx="4" fill="#4F3422"/>
<rect width="118.688" height="8" rx="4" transform="matrix(1 0 0 -1 97.5 550)" fill="#926247"/>
<path d="M18.7295 604V583H22.8695V604H18.7295ZM40.5571 594.46V604H36.4171V595.6C36.4171 595.07 36.2871 594.595 36.0271 594.175C35.7771 593.745 35.4371 593.405 35.0071 593.155C34.5871 592.905 34.1171 592.78 33.5971 592.78C33.0771 592.78 32.6021 592.905 32.1721 593.155C31.7421 593.405 31.4021 593.745 31.1521 594.175C30.9021 594.595 30.7771 595.07 30.7771 595.6V604H26.6371L26.6221 589H30.7621L30.7771 590.11C31.2771 589.63 31.8621 589.255 32.5321 588.985C33.2121 588.715 33.9271 588.58 34.6771 588.58C35.7671 588.58 36.7521 588.845 37.6321 589.375C38.5221 589.905 39.2321 590.615 39.7621 591.505C40.2921 592.385 40.5571 593.37 40.5571 594.46ZM51.4157 593.14H48.7157V604H44.5757V593.14H42.5057V589H44.5757V584.29H48.7157V589H51.4157V593.14ZM60.1025 604.39C58.7225 604.39 57.4625 604.035 56.3225 603.325C55.1925 602.615 54.2875 601.66 53.6075 600.46C52.9375 599.26 52.6025 597.935 52.6025 596.485C52.6025 595.395 52.7975 594.375 53.1875 593.425C53.5775 592.465 54.1125 591.625 54.7925 590.905C55.4825 590.175 56.2825 589.605 57.1925 589.195C58.1025 588.785 59.0725 588.58 60.1025 588.58C61.2925 588.58 62.3775 588.835 63.3575 589.345C64.3475 589.855 65.1825 590.55 65.8625 591.43C66.5525 592.31 67.0425 593.305 67.3325 594.415C67.6325 595.525 67.6825 596.68 67.4825 597.88H57.0725C57.2025 598.32 57.4025 598.72 57.6725 599.08C57.9525 599.43 58.2925 599.71 58.6925 599.92C59.1025 600.13 59.5725 600.24 60.1025 600.25C60.6225 600.26 61.1025 600.14 61.5425 599.89C61.9825 599.64 62.3575 599.305 62.6675 598.885L66.8975 599.86C66.2875 601.19 65.3775 602.28 64.1675 603.13C62.9575 603.97 61.6025 604.39 60.1025 604.39ZM56.9225 594.82H63.2975C63.1675 594.32 62.9475 593.87 62.6375 593.47C62.3275 593.07 61.9525 592.755 61.5125 592.525C61.0825 592.295 60.6125 592.18 60.1025 592.18C59.6025 592.18 59.1325 592.295 58.6925 592.525C58.2625 592.755 57.8925 593.07 57.5825 593.47C57.2825 593.86 57.0625 594.31 56.9225 594.82ZM69.3158 604V581.5H73.4558V604H69.3158ZM76.7502 604V581.5H80.8902V604H76.7502ZM84.1846 589H88.3246V604H84.1846V589ZM86.2846 587.275C85.6846 587.275 85.1796 587.075 84.7696 586.675C84.3596 586.275 84.1546 585.78 84.1546 585.19C84.1546 584.6 84.3596 584.105 84.7696 583.705C85.1796 583.305 85.6796 583.105 86.2696 583.105C86.8596 583.105 87.3546 583.305 87.7546 583.705C88.1646 584.105 88.3696 584.6 88.3696 585.19C88.3696 585.78 88.1696 586.275 87.7696 586.675C87.3796 587.075 86.8846 587.275 86.2846 587.275ZM102.099 589H106.239V604.21C106.239 605.32 106.014 606.32 105.564 607.21C105.114 608.11 104.499 608.88 103.719 609.52C102.949 610.16 102.059 610.65 101.049 610.99C100.049 611.33 98.9888 611.5 97.8688 611.5C96.8088 611.5 95.7938 611.29 94.8238 610.87C93.8538 610.46 92.9938 609.89 92.2438 609.16C91.4938 608.43 90.9088 607.59 90.4888 606.64L94.2688 604.915C94.4788 605.415 94.7638 605.845 95.1238 606.205C95.4938 606.565 95.9138 606.84 96.3838 607.03C96.8638 607.23 97.3588 607.33 97.8688 607.33C98.4188 607.33 98.9438 607.265 99.4438 607.135C99.9538 607.005 100.409 606.81 100.809 606.55C101.209 606.29 101.524 605.965 101.754 605.575C101.984 605.185 102.099 604.73 102.099 604.21V602.47C101.639 603.04 101.079 603.505 100.419 603.865C99.7688 604.215 99.0138 604.39 98.1538 604.39C97.0738 604.39 96.0588 604.185 95.1088 603.775C94.1688 603.365 93.3388 602.8 92.6188 602.08C91.8988 601.35 91.3338 600.51 90.9238 599.56C90.5138 598.61 90.3088 597.59 90.3088 596.5C90.3088 595.41 90.5138 594.39 90.9238 593.44C91.3338 592.49 91.8988 591.655 92.6188 590.935C93.3388 590.205 94.1688 589.635 95.1088 589.225C96.0588 588.815 97.0738 588.61 98.1538 588.61C99.0138 588.61 99.7688 588.79 100.419 589.15C101.079 589.5 101.639 589.96 102.099 590.53V589ZM98.2138 600.415C98.8938 600.415 99.5088 600.24 100.059 599.89C100.609 599.53 101.039 599.055 101.349 598.465C101.669 597.875 101.829 597.22 101.829 596.5C101.829 595.78 101.669 595.125 101.349 594.535C101.039 593.935 100.609 593.46 100.059 593.11C99.5088 592.76 98.8938 592.585 98.2138 592.585C97.5438 592.585 96.9288 592.76 96.3688 593.11C95.8188 593.46 95.3788 593.935 95.0488 594.535C94.7188 595.125 94.5538 595.78 94.5538 596.5C94.5538 597.22 94.7188 597.88 95.0488 598.48C95.3788 599.07 95.8188 599.54 96.3688 599.89C96.9288 600.24 97.5438 600.415 98.2138 600.415ZM115.731 604.39C114.351 604.39 113.091 604.035 111.951 603.325C110.821 602.615 109.916 601.66 109.236 600.46C108.566 599.26 108.231 597.935 108.231 596.485C108.231 595.395 108.426 594.375 108.816 593.425C109.206 592.465 109.741 591.625 110.421 590.905C111.111 590.175 111.911 589.605 112.821 589.195C113.731 588.785 114.701 588.58 115.731 588.58C116.921 588.58 118.006 588.835 118.986 589.345C119.976 589.855 120.811 590.55 121.491 591.43C122.181 592.31 122.671 593.305 122.961 594.415C123.261 595.525 123.311 596.68 123.111 597.88H112.701C112.831 598.32 113.031 598.72 113.301 599.08C113.581 599.43 113.921 599.71 114.321 599.92C114.731 600.13 115.201 600.24 115.731 600.25C116.251 600.26 116.731 600.14 117.171 599.89C117.611 599.64 117.986 599.305 118.296 598.885L122.526 599.86C121.916 601.19 121.006 602.28 119.796 603.13C118.586 603.97 117.231 604.39 115.731 604.39ZM112.551 594.82H118.926C118.796 594.32 118.576 593.87 118.266 593.47C117.956 593.07 117.581 592.755 117.141 592.525C116.711 592.295 116.241 592.18 115.731 592.18C115.231 592.18 114.761 592.295 114.321 592.525C113.891 592.755 113.521 593.07 113.211 593.47C112.911 593.86 112.691 594.31 112.551 594.82ZM139.143 594.46V604H135.003V595.6C135.003 595.07 134.873 594.595 134.613 594.175C134.363 593.745 134.023 593.405 133.593 593.155C133.173 592.905 132.703 592.78 132.183 592.78C131.663 592.78 131.188 592.905 130.758 593.155C130.328 593.405 129.988 593.745 129.738 594.175C129.488 594.595 129.363 595.07 129.363 595.6V604H125.223L125.208 589H129.348L129.363 590.11C129.863 589.63 130.448 589.255 131.118 588.985C131.798 588.715 132.513 588.58 133.263 588.58C134.353 588.58 135.338 588.845 136.218 589.375C137.108 589.905 137.818 590.615 138.348 591.505C138.878 592.385 139.143 593.37 139.143 594.46ZM150.002 593.14H147.302V604H143.162V593.14H141.092V589H143.162V584.29H147.302V589H150.002V593.14Z" fill="#ED7E1C"/>
<path d="M159.318 604L163.398 583H166.893L171.768 595.855L176.658 583H180.153L184.233 604H180.003L177.678 591.955L173.193 603.79H170.343L165.873 591.955L163.533 604H159.318ZM192.425 604.39C191.045 604.39 189.785 604.035 188.645 603.325C187.515 602.615 186.61 601.665 185.93 600.475C185.26 599.275 184.925 597.95 184.925 596.5C184.925 595.4 185.12 594.375 185.51 593.425C185.9 592.465 186.435 591.625 187.115 590.905C187.805 590.175 188.605 589.605 189.515 589.195C190.425 588.785 191.395 588.58 192.425 588.58C193.805 588.58 195.06 588.935 196.19 589.645C197.33 590.355 198.235 591.31 198.905 592.51C199.585 593.71 199.925 595.04 199.925 596.5C199.925 597.59 199.73 598.61 199.34 599.56C198.95 600.51 198.41 601.35 197.72 602.08C197.04 602.8 196.245 603.365 195.335 603.775C194.435 604.185 193.465 604.39 192.425 604.39ZM192.425 600.25C193.065 600.25 193.64 600.08 194.15 599.74C194.66 599.39 195.06 598.93 195.35 598.36C195.64 597.79 195.785 597.17 195.785 596.5C195.785 595.81 195.63 595.18 195.32 594.61C195.02 594.03 194.615 593.57 194.105 593.23C193.595 592.89 193.035 592.72 192.425 592.72C191.795 592.72 191.225 592.895 190.715 593.245C190.205 593.595 189.8 594.055 189.5 594.625C189.21 595.195 189.065 595.82 189.065 596.5C189.065 597.21 189.215 597.85 189.515 598.42C189.825 598.98 190.235 599.425 190.745 599.755C191.255 600.085 191.815 600.25 192.425 600.25ZM208.619 604.39C207.239 604.39 205.979 604.035 204.839 603.325C203.709 602.615 202.804 601.665 202.124 600.475C201.454 599.275 201.119 597.95 201.119 596.5C201.119 595.4 201.314 594.375 201.704 593.425C202.094 592.465 202.629 591.625 203.309 590.905C203.999 590.175 204.799 589.605 205.709 589.195C206.619 588.785 207.589 588.58 208.619 588.58C209.999 588.58 211.254 588.935 212.384 589.645C213.524 590.355 214.429 591.31 215.099 592.51C215.779 593.71 216.119 595.04 216.119 596.5C216.119 597.59 215.924 598.61 215.534 599.56C215.144 600.51 214.604 601.35 213.914 602.08C213.234 602.8 212.439 603.365 211.529 603.775C210.629 604.185 209.659 604.39 208.619 604.39ZM208.619 600.25C209.259 600.25 209.834 600.08 210.344 599.74C210.854 599.39 211.254 598.93 211.544 598.36C211.834 597.79 211.979 597.17 211.979 596.5C211.979 595.81 211.824 595.18 211.514 594.61C211.214 594.03 210.809 593.57 210.299 593.23C209.789 592.89 209.229 592.72 208.619 592.72C207.989 592.72 207.419 592.895 206.909 593.245C206.399 593.595 205.994 594.055 205.694 594.625C205.404 595.195 205.259 595.82 205.259 596.5C205.259 597.21 205.409 597.85 205.709 598.42C206.019 598.98 206.429 599.425 206.939 599.755C207.449 600.085 208.009 600.25 208.619 600.25ZM229.238 581.5H233.378V604H229.238V602.41C228.778 602.99 228.208 603.465 227.528 603.835C226.848 604.205 226.073 604.39 225.203 604.39C224.113 604.39 223.093 604.185 222.143 603.775C221.193 603.365 220.353 602.8 219.623 602.08C218.903 601.35 218.338 600.51 217.928 599.56C217.518 598.61 217.313 597.59 217.313 596.5C217.313 595.41 217.518 594.39 217.928 593.44C218.338 592.49 218.903 591.655 219.623 590.935C220.353 590.205 221.193 589.635 222.143 589.225C223.093 588.815 224.113 588.61 225.203 588.61C226.073 588.61 226.848 588.795 227.528 589.165C228.208 589.525 228.778 590 229.238 590.59V581.5ZM225.263 600.415C225.943 600.415 226.558 600.24 227.108 599.89C227.658 599.54 228.093 599.07 228.413 598.48C228.733 597.88 228.893 597.22 228.893 596.5C228.893 595.77 228.733 595.11 228.413 594.52C228.093 593.93 227.658 593.46 227.108 593.11C226.558 592.76 225.943 592.585 225.263 592.585C224.573 592.585 223.948 592.76 223.388 593.11C222.828 593.46 222.383 593.935 222.053 594.535C221.723 595.125 221.558 595.78 221.558 596.5C221.558 597.22 221.723 597.88 222.053 598.48C222.393 599.07 222.843 599.54 223.403 599.89C223.963 600.24 224.583 600.415 225.263 600.415ZM259.499 583V587.14H253.319V604H249.179V587.14H242.999V583H259.499ZM260.424 604L260.409 589H264.549L264.564 590.11C265.064 589.63 265.649 589.255 266.319 588.985C266.999 588.715 267.714 588.58 268.464 588.58C269.014 588.58 269.564 588.66 270.114 588.82L268.479 593.005C268.119 592.855 267.754 592.78 267.384 592.78C266.864 592.78 266.389 592.905 265.959 593.155C265.529 593.405 265.189 593.745 264.939 594.175C264.689 594.595 264.564 595.07 264.564 595.6V604H260.424ZM281.754 589H285.894V604H281.739L281.544 602.44C281.154 603.02 280.654 603.49 280.044 603.85C279.434 604.21 278.719 604.39 277.899 604.39C276.779 604.39 275.734 604.18 274.764 603.76C273.794 603.34 272.939 602.76 272.199 602.02C271.459 601.28 270.879 600.425 270.459 599.455C270.049 598.475 269.844 597.425 269.844 596.305C269.844 595.235 270.039 594.235 270.429 593.305C270.819 592.375 271.369 591.555 272.079 590.845C272.789 590.135 273.604 589.58 274.524 589.18C275.454 588.78 276.454 588.58 277.524 588.58C278.444 588.58 279.269 588.775 279.999 589.165C280.739 589.555 281.384 590.05 281.934 590.65L281.754 589ZM277.794 600.415C278.474 600.415 279.089 600.24 279.639 599.89C280.189 599.54 280.624 599.07 280.944 598.48C281.264 597.88 281.424 597.22 281.424 596.5C281.424 595.77 281.264 595.11 280.944 594.52C280.624 593.93 280.189 593.46 279.639 593.11C279.089 592.76 278.474 592.585 277.794 592.585C277.104 592.585 276.479 592.76 275.919 593.11C275.359 593.46 274.914 593.935 274.584 594.535C274.254 595.125 274.089 595.78 274.089 596.5C274.089 597.22 274.254 597.88 274.584 598.48C274.924 599.07 275.374 599.54 275.934 599.89C276.494 600.24 277.114 600.415 277.794 600.415ZM297.195 599.26L300.915 601.27C300.225 602.21 299.36 602.965 298.32 603.535C297.28 604.105 296.145 604.39 294.915 604.39C293.535 604.39 292.275 604.035 291.135 603.325C290.005 602.615 289.1 601.665 288.42 600.475C287.75 599.275 287.415 597.95 287.415 596.5C287.415 595.4 287.61 594.375 288 593.425C288.39 592.465 288.925 591.625 289.605 590.905C290.295 590.175 291.095 589.605 292.005 589.195C292.915 588.785 293.885 588.58 294.915 588.58C296.145 588.58 297.28 588.865 298.32 589.435C299.36 590.005 300.225 590.77 300.915 591.73L297.195 593.74C296.885 593.41 296.53 593.16 296.13 592.99C295.74 592.81 295.335 592.72 294.915 592.72C294.275 592.72 293.7 592.895 293.19 593.245C292.69 593.595 292.29 594.06 291.99 594.64C291.7 595.21 291.555 595.83 291.555 596.5C291.555 597.16 291.705 597.775 292.005 598.345C292.305 598.915 292.705 599.375 293.205 599.725C293.715 600.075 294.285 600.25 294.915 600.25C295.345 600.25 295.755 600.16 296.145 599.98C296.535 599.8 296.885 599.56 297.195 599.26ZM316.671 604H311.901L308.721 598.525L306.891 600.7V604H302.751V581.5H306.891V594.265L311.301 589H316.701L311.556 595.165L316.671 604ZM318.359 589H322.499V604H318.359V589ZM320.459 587.275C319.859 587.275 319.354 587.075 318.944 586.675C318.534 586.275 318.329 585.78 318.329 585.19C318.329 584.6 318.534 584.105 318.944 583.705C319.354 583.305 319.854 583.105 320.444 583.105C321.034 583.105 321.529 583.305 321.929 583.705C322.339 584.105 322.544 584.6 322.544 585.19C322.544 585.78 322.344 586.275 321.944 586.675C321.554 587.075 321.059 587.275 320.459 587.275ZM339.582 594.46V604H335.442V595.6C335.442 595.07 335.312 594.595 335.052 594.175C334.802 593.745 334.462 593.405 334.032 593.155C333.612 592.905 333.142 592.78 332.622 592.78C332.102 592.78 331.627 592.905 331.197 593.155C330.767 593.405 330.427 593.745 330.177 594.175C329.927 594.595 329.802 595.07 329.802 595.6V604H325.662L325.647 589H329.787L329.802 590.11C330.302 589.63 330.887 589.255 331.557 588.985C332.237 588.715 332.952 588.58 333.702 588.58C334.792 588.58 335.777 588.845 336.657 589.375C337.547 589.905 338.257 590.615 338.787 591.505C339.317 592.385 339.582 593.37 339.582 594.46ZM352.878 589H357.018V604.21C357.018 605.32 356.793 606.32 356.343 607.21C355.893 608.11 355.278 608.88 354.498 609.52C353.728 610.16 352.838 610.65 351.828 610.99C350.828 611.33 349.768 611.5 348.648 611.5C347.588 611.5 346.573 611.29 345.603 610.87C344.633 610.46 343.773 609.89 343.023 609.16C342.273 608.43 341.688 607.59 341.268 606.64L345.048 604.915C345.258 605.415 345.543 605.845 345.903 606.205C346.273 606.565 346.693 606.84 347.163 607.03C347.643 607.23 348.138 607.33 348.648 607.33C349.198 607.33 349.723 607.265 350.223 607.135C350.733 607.005 351.188 606.81 351.588 606.55C351.988 606.29 352.303 605.965 352.533 605.575C352.763 605.185 352.878 604.73 352.878 604.21V602.47C352.418 603.04 351.858 603.505 351.198 603.865C350.548 604.215 349.793 604.39 348.933 604.39C347.853 604.39 346.838 604.185 345.888 603.775C344.948 603.365 344.118 602.8 343.398 602.08C342.678 601.35 342.113 600.51 341.703 599.56C341.293 598.61 341.088 597.59 341.088 596.5C341.088 595.41 341.293 594.39 341.703 593.44C342.113 592.49 342.678 591.655 343.398 590.935C344.118 590.205 344.948 589.635 345.888 589.225C346.838 588.815 347.853 588.61 348.933 588.61C349.793 588.61 350.548 588.79 351.198 589.15C351.858 589.5 352.418 589.96 352.878 590.53V589ZM348.993 600.415C349.673 600.415 350.288 600.24 350.838 599.89C351.388 599.53 351.818 599.055 352.128 598.465C352.448 597.875 352.608 597.22 352.608 596.5C352.608 595.78 352.448 595.125 352.128 594.535C351.818 593.935 351.388 593.46 350.838 593.11C350.288 592.76 349.673 592.585 348.993 592.585C348.323 592.585 347.708 592.76 347.148 593.11C346.598 593.46 346.158 593.935 345.828 594.535C345.498 595.125 345.333 595.78 345.333 596.5C345.333 597.22 345.498 597.88 345.828 598.48C346.158 599.07 346.598 599.54 347.148 599.89C347.708 600.24 348.323 600.415 348.993 600.415ZM72.1511 642.39C70.9111 642.39 69.7961 642.085 68.8061 641.475C67.8161 640.865 67.0311 640.065 66.4511 639.075C65.8711 638.075 65.5811 636.99 65.5811 635.82C65.5811 635.18 65.6411 634.62 65.7611 634.14C65.8811 633.65 66.0761 633.185 66.3461 632.745C66.6261 632.295 66.9961 631.81 67.4561 631.29C67.9261 630.77 68.5161 630.155 69.2261 629.445C68.8561 629.065 68.5411 628.72 68.2811 628.41C68.0211 628.09 67.8061 627.775 67.6361 627.465C67.4761 627.145 67.3611 626.815 67.2911 626.475C67.2211 626.135 67.1861 625.755 67.1861 625.335C67.1861 624.375 67.4161 623.52 67.8761 622.77C68.3361 622.02 68.9411 621.43 69.6911 621C70.4511 620.56 71.2711 620.34 72.1511 620.34C73.0711 620.34 73.9061 620.565 74.6561 621.015C75.4161 621.455 76.0211 622.05 76.4711 622.8C76.9211 623.55 77.1461 624.395 77.1461 625.335C77.1461 625.765 77.1061 626.155 77.0261 626.505C76.9561 626.845 76.8361 627.17 76.6661 627.48C76.4961 627.79 76.2811 628.105 76.0211 628.425C75.7611 628.735 75.4461 629.075 75.0761 629.445L78.5261 632.895L82.4561 628.95V634.8L81.4511 635.82L84.7061 639.075L81.7811 642L78.5261 638.745C77.8061 639.465 77.1811 640.06 76.6511 640.53C76.1211 641 75.6311 641.375 75.1811 641.655C74.7411 641.925 74.2811 642.115 73.8011 642.225C73.3311 642.335 72.7811 642.39 72.1511 642.39ZM72.1511 638.25C72.4611 638.25 72.7261 638.21 72.9461 638.13C73.1761 638.05 73.4061 637.92 73.6361 637.74C73.8761 637.55 74.1461 637.3 74.4461 636.99C74.7561 636.67 75.1411 636.28 75.6011 635.82L72.1511 632.37C71.6711 632.85 71.2711 633.25 70.9511 633.57C70.6411 633.88 70.3961 634.145 70.2161 634.365C70.0361 634.585 69.9061 634.81 69.8261 635.04C69.7561 635.26 69.7211 635.52 69.7211 635.82C69.7211 636.3 69.8361 636.725 70.0661 637.095C70.3061 637.455 70.6111 637.74 70.9811 637.95C71.3511 638.15 71.7411 638.25 72.1511 638.25ZM72.1511 627.15C72.5311 626.78 72.8211 626.505 73.0211 626.325C73.2211 626.135 73.3511 625.97 73.4111 625.83C73.4811 625.68 73.5161 625.49 73.5161 625.26C73.5161 624.81 73.3661 624.47 73.0661 624.24C72.7761 624 72.4711 623.88 72.1511 623.88C71.8011 623.88 71.4861 624.01 71.2061 624.27C70.9261 624.53 70.7861 624.86 70.7861 625.26C70.7861 625.49 70.8311 625.685 70.9211 625.845C71.0111 626.005 71.1511 626.18 71.3411 626.37C71.5411 626.56 71.8111 626.82 72.1511 627.15ZM94.3213 642V621H107.611V625.14H98.4613V628.68H105.601V632.82H98.4613V637.86H107.611V642H94.3213ZM110.603 642V627H114.743V628.11C115.253 627.63 115.843 627.255 116.513 626.985C117.183 626.715 117.893 626.58 118.643 626.58C119.663 626.58 120.598 626.815 121.448 627.285C122.308 627.755 122.998 628.38 123.518 629.16C124.048 628.38 124.738 627.755 125.588 627.285C126.438 626.815 127.368 626.58 128.378 626.58C129.468 626.58 130.453 626.845 131.333 627.375C132.223 627.905 132.933 628.615 133.463 629.505C133.993 630.385 134.258 631.37 134.258 632.46V642H130.118V633.6C130.118 633.08 129.988 632.61 129.728 632.19C129.478 631.76 129.143 631.42 128.723 631.17C128.303 630.91 127.833 630.78 127.313 630.78C126.793 630.78 126.318 630.905 125.888 631.155C125.468 631.405 125.128 631.745 124.868 632.175C124.618 632.595 124.493 633.07 124.493 633.6V642H120.353V633.6C120.353 633.07 120.228 632.595 119.978 632.175C119.728 631.745 119.388 631.405 118.958 631.155C118.538 630.905 118.068 630.78 117.548 630.78C117.038 630.78 116.568 630.91 116.138 631.17C115.718 631.42 115.378 631.76 115.118 632.19C114.868 632.61 114.743 633.08 114.743 633.6V642H110.603ZM143.271 642.39C141.891 642.39 140.631 642.035 139.491 641.325C138.361 640.615 137.456 639.665 136.776 638.475C136.106 637.275 135.771 635.95 135.771 634.5C135.771 633.4 135.966 632.375 136.356 631.425C136.746 630.465 137.281 629.625 137.961 628.905C138.651 628.175 139.451 627.605 140.361 627.195C141.271 626.785 142.241 626.58 143.271 626.58C144.651 626.58 145.906 626.935 147.036 627.645C148.176 628.355 149.081 629.31 149.751 630.51C150.431 631.71 150.771 633.04 150.771 634.5C150.771 635.59 150.576 636.61 150.186 637.56C149.796 638.51 149.256 639.35 148.566 640.08C147.886 640.8 147.091 641.365 146.181 641.775C145.281 642.185 144.311 642.39 143.271 642.39ZM143.271 638.25C143.911 638.25 144.486 638.08 144.996 637.74C145.506 637.39 145.906 636.93 146.196 636.36C146.486 635.79 146.631 635.17 146.631 634.5C146.631 633.81 146.476 633.18 146.166 632.61C145.866 632.03 145.461 631.57 144.951 631.23C144.441 630.89 143.881 630.72 143.271 630.72C142.641 630.72 142.071 630.895 141.561 631.245C141.051 631.595 140.646 632.055 140.346 632.625C140.056 633.195 139.911 633.82 139.911 634.5C139.911 635.21 140.061 635.85 140.361 636.42C140.671 636.98 141.081 637.425 141.591 637.755C142.101 638.085 142.661 638.25 143.271 638.25ZM160.995 631.14H158.295V642H154.155V631.14H152.085V627H154.155V622.29H158.295V627H160.995V631.14ZM163.112 627H167.252V642H163.112V627ZM165.212 625.275C164.612 625.275 164.107 625.075 163.697 624.675C163.287 624.275 163.082 623.78 163.082 623.19C163.082 622.6 163.287 622.105 163.697 621.705C164.107 621.305 164.607 621.105 165.197 621.105C165.787 621.105 166.282 621.305 166.682 621.705C167.092 622.105 167.297 622.6 167.297 623.19C167.297 623.78 167.097 624.275 166.697 624.675C166.307 625.075 165.812 625.275 165.212 625.275ZM176.736 642.39C175.356 642.39 174.096 642.035 172.956 641.325C171.826 640.615 170.921 639.665 170.241 638.475C169.571 637.275 169.236 635.95 169.236 634.5C169.236 633.4 169.431 632.375 169.821 631.425C170.211 630.465 170.746 629.625 171.426 628.905C172.116 628.175 172.916 627.605 173.826 627.195C174.736 626.785 175.706 626.58 176.736 626.58C178.116 626.58 179.371 626.935 180.501 627.645C181.641 628.355 182.546 629.31 183.216 630.51C183.896 631.71 184.236 633.04 184.236 634.5C184.236 635.59 184.041 636.61 183.651 637.56C183.261 638.51 182.721 639.35 182.031 640.08C181.351 640.8 180.556 641.365 179.646 641.775C178.746 642.185 177.776 642.39 176.736 642.39ZM176.736 638.25C177.376 638.25 177.951 638.08 178.461 637.74C178.971 637.39 179.371 636.93 179.661 636.36C179.951 635.79 180.096 635.17 180.096 634.5C180.096 633.81 179.941 633.18 179.631 632.61C179.331 632.03 178.926 631.57 178.416 631.23C177.906 630.89 177.346 630.72 176.736 630.72C176.106 630.72 175.536 630.895 175.026 631.245C174.516 631.595 174.111 632.055 173.811 632.625C173.521 633.195 173.376 633.82 173.376 634.5C173.376 635.21 173.526 635.85 173.826 636.42C174.136 636.98 174.546 637.425 175.056 637.755C175.566 638.085 176.126 638.25 176.736 638.25ZM200.148 632.46V642H196.008V633.6C196.008 633.07 195.878 632.595 195.618 632.175C195.368 631.745 195.028 631.405 194.598 631.155C194.178 630.905 193.708 630.78 193.188 630.78C192.668 630.78 192.193 630.905 191.763 631.155C191.333 631.405 190.993 631.745 190.743 632.175C190.493 632.595 190.368 633.07 190.368 633.6V642H186.228L186.213 627H190.353L190.368 628.11C190.868 627.63 191.453 627.255 192.123 626.985C192.803 626.715 193.518 626.58 194.268 626.58C195.358 626.58 196.343 626.845 197.223 627.375C198.113 627.905 198.823 628.615 199.353 629.505C199.883 630.385 200.148 631.37 200.148 632.46ZM210.203 642V621H214.343V642H210.203ZM232.031 632.46V642H227.891V633.6C227.891 633.07 227.761 632.595 227.501 632.175C227.251 631.745 226.911 631.405 226.481 631.155C226.061 630.905 225.591 630.78 225.071 630.78C224.551 630.78 224.076 630.905 223.646 631.155C223.216 631.405 222.876 631.745 222.626 632.175C222.376 632.595 222.251 633.07 222.251 633.6V642H218.111L218.096 627H222.236L222.251 628.11C222.751 627.63 223.336 627.255 224.006 626.985C224.686 626.715 225.401 626.58 226.151 626.58C227.241 626.58 228.226 626.845 229.106 627.375C229.996 627.905 230.706 628.615 231.236 629.505C231.766 630.385 232.031 631.37 232.031 632.46ZM239.094 642.27C238.324 642.21 237.584 642.05 236.874 641.79C236.164 641.52 235.529 641.16 234.969 640.71C234.419 640.25 233.989 639.7 233.679 639.06L237.159 637.56C237.269 637.72 237.434 637.895 237.654 638.085C237.874 638.265 238.139 638.425 238.449 638.565C238.769 638.705 239.139 638.775 239.559 638.775C239.869 638.775 240.169 638.74 240.459 638.67C240.749 638.59 240.984 638.465 241.164 638.295C241.344 638.115 241.434 637.88 241.434 637.59C241.434 637.27 241.319 637.025 241.089 636.855C240.859 636.685 240.579 636.56 240.249 636.48C239.929 636.39 239.619 636.315 239.319 636.255C238.399 636.095 237.529 635.81 236.709 635.4C235.899 634.98 235.239 634.44 234.729 633.78C234.219 633.12 233.964 632.33 233.964 631.41C233.964 630.4 234.229 629.53 234.759 628.8C235.289 628.06 235.979 627.49 236.829 627.09C237.679 626.69 238.599 626.49 239.589 626.49C240.759 626.49 241.844 626.735 242.844 627.225C243.844 627.715 244.649 628.405 245.259 629.295L241.989 631.23C241.859 631.04 241.689 630.86 241.479 630.69C241.279 630.51 241.044 630.36 240.774 630.24C240.514 630.11 240.234 630.035 239.934 630.015C239.544 629.985 239.189 630.01 238.869 630.09C238.549 630.16 238.294 630.295 238.104 630.495C237.924 630.695 237.834 630.965 237.834 631.305C237.834 631.635 237.979 631.88 238.269 632.04C238.559 632.19 238.894 632.305 239.274 632.385C239.654 632.455 239.989 632.54 240.279 632.64C241.149 632.92 241.964 633.28 242.724 633.72C243.494 634.15 244.114 634.68 244.584 635.31C245.054 635.94 245.274 636.68 245.244 637.53C245.244 638.52 244.949 639.39 244.359 640.14C243.769 640.88 243.004 641.445 242.064 641.835C241.134 642.215 240.144 642.36 239.094 642.27ZM247.086 627H251.226V642H247.086V627ZM249.186 625.275C248.586 625.275 248.081 625.075 247.671 624.675C247.261 624.275 247.056 623.78 247.056 623.19C247.056 622.6 247.261 622.105 247.671 621.705C248.081 621.305 248.581 621.105 249.171 621.105C249.761 621.105 250.256 621.305 250.656 621.705C251.066 622.105 251.271 622.6 251.271 623.19C251.271 623.78 251.071 624.275 250.671 624.675C250.281 625.075 249.786 625.275 249.186 625.275ZM265 627H269.14V642.21C269.14 643.32 268.915 644.32 268.465 645.21C268.015 646.11 267.4 646.88 266.62 647.52C265.85 648.16 264.96 648.65 263.95 648.99C262.95 649.33 261.89 649.5 260.77 649.5C259.71 649.5 258.695 649.29 257.725 648.87C256.755 648.46 255.895 647.89 255.145 647.16C254.395 646.43 253.81 645.59 253.39 644.64L257.17 642.915C257.38 643.415 257.665 643.845 258.025 644.205C258.395 644.565 258.815 644.84 259.285 645.03C259.765 645.23 260.26 645.33 260.77 645.33C261.32 645.33 261.845 645.265 262.345 645.135C262.855 645.005 263.31 644.81 263.71 644.55C264.11 644.29 264.425 643.965 264.655 643.575C264.885 643.185 265 642.73 265 642.21V640.47C264.54 641.04 263.98 641.505 263.32 641.865C262.67 642.215 261.915 642.39 261.055 642.39C259.975 642.39 258.96 642.185 258.01 641.775C257.07 641.365 256.24 640.8 255.52 640.08C254.8 639.35 254.235 638.51 253.825 637.56C253.415 636.61 253.21 635.59 253.21 634.5C253.21 633.41 253.415 632.39 253.825 631.44C254.235 630.49 254.8 629.655 255.52 628.935C256.24 628.205 257.07 627.635 258.01 627.225C258.96 626.815 259.975 626.61 261.055 626.61C261.915 626.61 262.67 626.79 263.32 627.15C263.98 627.5 264.54 627.96 265 628.53V627ZM261.115 638.415C261.795 638.415 262.41 638.24 262.96 637.89C263.51 637.53 263.94 637.055 264.25 636.465C264.57 635.875 264.73 635.22 264.73 634.5C264.73 633.78 264.57 633.125 264.25 632.535C263.94 631.935 263.51 631.46 262.96 631.11C262.41 630.76 261.795 630.585 261.115 630.585C260.445 630.585 259.83 630.76 259.27 631.11C258.72 631.46 258.28 631.935 257.95 632.535C257.62 633.125 257.455 633.78 257.455 634.5C257.455 635.22 257.62 635.88 257.95 636.48C258.28 637.07 258.72 637.54 259.27 637.89C259.83 638.24 260.445 638.415 261.115 638.415ZM286.378 632.46V642H282.238V633.6C282.238 633.07 282.108 632.595 281.848 632.175C281.598 631.745 281.258 631.405 280.828 631.155C280.408 630.905 279.938 630.78 279.418 630.78C278.898 630.78 278.423 630.905 277.993 631.155C277.563 631.405 277.223 631.745 276.973 632.175C276.723 632.595 276.598 633.07 276.598 633.6V642H272.458L272.443 619.5H276.583L276.598 628.11C277.098 627.63 277.683 627.255 278.353 626.985C279.033 626.715 279.748 626.58 280.498 626.58C281.588 626.58 282.573 626.845 283.453 627.375C284.343 627.905 285.053 628.615 285.583 629.505C286.113 630.385 286.378 631.37 286.378 632.46ZM297.236 631.14H294.536V642H290.396V631.14H288.326V627H290.396V622.29H294.536V627H297.236V631.14ZM303.718 642.27C302.948 642.21 302.208 642.05 301.498 641.79C300.788 641.52 300.153 641.16 299.593 640.71C299.043 640.25 298.613 639.7 298.303 639.06L301.783 637.56C301.893 637.72 302.058 637.895 302.278 638.085C302.498 638.265 302.763 638.425 303.073 638.565C303.393 638.705 303.763 638.775 304.183 638.775C304.493 638.775 304.793 638.74 305.083 638.67C305.373 638.59 305.608 638.465 305.788 638.295C305.968 638.115 306.058 637.88 306.058 637.59C306.058 637.27 305.943 637.025 305.713 636.855C305.483 636.685 305.203 636.56 304.873 636.48C304.553 636.39 304.243 636.315 303.943 636.255C303.023 636.095 302.153 635.81 301.333 635.4C300.523 634.98 299.863 634.44 299.353 633.78C298.843 633.12 298.588 632.33 298.588 631.41C298.588 630.4 298.853 629.53 299.383 628.8C299.913 628.06 300.603 627.49 301.453 627.09C302.303 626.69 303.223 626.49 304.213 626.49C305.383 626.49 306.468 626.735 307.468 627.225C308.468 627.715 309.273 628.405 309.883 629.295L306.613 631.23C306.483 631.04 306.313 630.86 306.103 630.69C305.903 630.51 305.668 630.36 305.398 630.24C305.138 630.11 304.858 630.035 304.558 630.015C304.168 629.985 303.813 630.01 303.493 630.09C303.173 630.16 302.918 630.295 302.728 630.495C302.548 630.695 302.458 630.965 302.458 631.305C302.458 631.635 302.603 631.88 302.893 632.04C303.183 632.19 303.518 632.305 303.898 632.385C304.278 632.455 304.613 632.54 304.903 632.64C305.773 632.92 306.588 633.28 307.348 633.72C308.118 634.15 308.738 634.68 309.208 635.31C309.678 635.94 309.898 636.68 309.868 637.53C309.868 638.52 309.573 639.39 308.983 640.14C308.393 640.88 307.628 641.445 306.688 641.835C305.758 642.215 304.768 642.36 303.718 642.27Z" fill="white"/>
</g>
<rect x="245" y="253" width="116" height="116" rx="58" fill="white"/>
<g filter="url(#filter1_ddddd_4_2194)">
<rect x="255" y="263" width="96" height="96" rx="48" fill="#C0A091"/>
<path fill-rule="evenodd" clip-rule="evenodd" d="M327 291C329.209 291 331 292.791 331 295L331 307C331 309.209 329.209 311 327 311C324.791 311 323 309.209 323 307L323 295C323 292.791 324.791 291 327 291Z" fill="#4F3422"/>
<path fill-rule="evenodd" clip-rule="evenodd" d="M279 291C281.209 291 283 292.791 283 295L283 307C283 309.209 281.209 311 279 311C276.791 311 275 309.209 275 307L275 295C275 292.791 276.791 291 279 291Z" fill="#4F3422"/>
<path fill-rule="evenodd" clip-rule="evenodd" d="M275 327C275 324.791 276.791 323 279 323H327C329.209 323 331 324.791 331 327C331 329.209 329.209 331 327 331H279C276.791 331 275 329.209 275 327Z" fill="#4F3422"/>
</g>
<rect x="189" y="139" width="80" height="80" rx="40" fill="white"/>
<g filter="url(#filter2_ddddd_4_2194)">
<rect x="197" y="147" width="64" height="64" rx="32" fill="#C2B1FF"/>
<path fill-rule="evenodd" clip-rule="evenodd" d="M237.781 163.781C238.822 162.74 240.511 162.74 241.552 163.781L249.552 171.781C250.594 172.822 250.594 174.511 249.552 175.552C248.511 176.594 246.822 176.594 245.781 175.552L237.781 167.552C236.74 166.511 236.74 164.822 237.781 163.781Z" fill="#3C357C"/>
<path fill-rule="evenodd" clip-rule="evenodd" d="M249.552 163.781C250.593 164.822 250.593 166.511 249.552 167.552L241.552 175.552C240.511 176.594 238.822 176.594 237.781 175.552C236.739 174.511 236.739 172.822 237.781 171.781L245.781 163.781C246.822 162.74 248.511 162.74 249.552 163.781Z" fill="#3C357C"/>
<path fill-rule="evenodd" clip-rule="evenodd" d="M208.448 163.781C209.489 162.74 211.178 162.74 212.219 163.781L220.219 171.781C221.261 172.822 221.261 174.511 220.219 175.552C219.178 176.594 217.489 176.594 216.448 175.552L208.448 167.552C207.407 166.511 207.407 164.822 208.448 163.781Z" fill="#3C357C"/>
<path fill-rule="evenodd" clip-rule="evenodd" d="M220.219 163.781C221.26 164.822 221.26 166.511 220.219 167.552L212.219 175.552C211.178 176.594 209.489 176.594 208.448 175.552C207.406 174.511 207.406 172.822 208.448 171.781L216.448 163.781C217.489 162.74 219.178 162.74 220.219 163.781Z" fill="#3C357C"/>
<path fill-rule="evenodd" clip-rule="evenodd" d="M219.259 184.973C222.054 182.829 225.477 181.667 228.999 181.667C232.522 181.667 235.945 182.829 238.74 184.973C241.534 187.117 243.543 190.123 244.454 193.525C244.835 194.948 243.991 196.41 242.569 196.791C241.146 197.173 239.684 196.328 239.303 194.906C238.695 192.638 237.356 190.634 235.493 189.204C233.63 187.775 231.348 187 228.999 187C226.651 187 224.369 187.775 222.506 189.204C220.643 190.633 219.304 192.638 218.696 194.906C218.315 196.328 216.853 197.173 215.43 196.791C214.008 196.41 213.163 194.948 213.545 193.525C214.456 190.123 216.465 187.117 219.259 184.973Z" fill="#3C357C"/>
</g>
<rect x="30" y="337" width="60" height="60" rx="30" fill="white"/>
<g filter="url(#filter3_ddddd_4_2194)">
<rect x="36" y="343" width="48" height="48" rx="24" fill="#ED7E1C"/>
<path fill-rule="evenodd" clip-rule="evenodd" d="M52.6945 371.48C54.7902 369.872 57.358 369 59.9996 369C62.6412 369 65.209 369.872 67.3047 371.48C69.4005 373.088 70.907 375.343 71.5907 377.894C71.8766 378.961 71.2434 380.058 70.1765 380.344C69.1096 380.63 68.0129 379.996 67.727 378.929C67.2712 377.228 66.2668 375.725 64.8697 374.653C63.4725 373.581 61.7607 373 59.9996 373C58.2385 373 56.5267 373.581 55.1295 374.653C53.7324 375.725 52.728 377.228 52.2722 378.929C51.9863 379.996 50.8896 380.63 49.8227 380.344C48.7558 380.058 48.1226 378.961 48.4085 377.894C49.0922 375.343 50.5987 373.088 52.6945 371.48Z" fill="#663600"/>
<path fill-rule="evenodd" clip-rule="evenodd" d="M48 357C49.1046 357 50 357.895 50 359V365C50 366.105 49.1046 367 48 367C46.8954 367 46 366.105 46 365V359C46 357.895 46.8954 357 48 357Z" fill="#663600"/>
<path fill-rule="evenodd" clip-rule="evenodd" d="M72 357C73.1046 357 74 357.895 74 359V365C74 366.105 73.1046 367 72 367C70.8954 367 70 366.105 70 365V359C70 357.895 70.8954 357 72 357Z" fill="#663600"/>
</g>
<rect x="140" y="60.5" width="96" height="39" rx="19.5" stroke="white"/>
<path d="M158.84 85.708C158.221 85.708 157.626 85.612 157.056 85.42C156.49 85.2227 155.994 84.9427 155.568 84.58C155.141 84.212 154.834 83.772 154.648 83.26L156.48 82.588C156.554 82.8013 156.706 82.996 156.936 83.172C157.165 83.348 157.445 83.4893 157.776 83.596C158.106 83.7027 158.461 83.756 158.84 83.756C159.229 83.756 159.592 83.6973 159.928 83.58C160.269 83.4573 160.544 83.2893 160.752 83.076C160.96 82.8573 161.064 82.604 161.064 82.316C161.064 82.0227 160.954 81.7827 160.736 81.596C160.517 81.404 160.237 81.252 159.896 81.14C159.554 81.028 159.202 80.9427 158.84 80.884C158.045 80.7613 157.333 80.572 156.704 80.316C156.074 80.06 155.576 79.7053 155.208 79.252C154.845 78.7987 154.664 78.212 154.664 77.492C154.664 76.8147 154.858 76.2227 155.248 75.716C155.637 75.2093 156.149 74.8147 156.784 74.532C157.418 74.2493 158.104 74.108 158.84 74.108C159.453 74.108 160.045 74.204 160.616 74.396C161.186 74.588 161.685 74.868 162.112 75.236C162.544 75.604 162.853 76.0467 163.04 76.564L161.2 77.228C161.125 77.0147 160.973 76.82 160.744 76.644C160.514 76.468 160.234 76.3293 159.904 76.228C159.573 76.1213 159.218 76.068 158.84 76.068C158.461 76.0627 158.101 76.124 157.76 76.252C157.424 76.3747 157.149 76.5427 156.936 76.756C156.722 76.9693 156.616 77.2147 156.616 77.492C156.616 77.8493 156.714 78.1187 156.912 78.3C157.114 78.4813 157.384 78.6147 157.72 78.7C158.056 78.78 158.429 78.8547 158.84 78.924C159.586 79.0413 160.277 79.2387 160.912 79.516C161.546 79.7933 162.056 80.164 162.44 80.628C162.824 81.0867 163.016 81.6493 163.016 82.316C163.016 82.9933 162.824 83.588 162.44 84.1C162.056 84.6067 161.546 85.0013 160.912 85.284C160.277 85.5667 159.586 85.708 158.84 85.708ZM168.845 79.452H167.293V85.5H165.341V79.452H164.157V77.5H165.341V74.988H167.293V77.5H168.845V79.452ZM173.575 85.708C172.839 85.708 172.167 85.5187 171.559 85.14C170.957 84.7613 170.474 84.252 170.111 83.612C169.754 82.972 169.575 82.2653 169.575 81.492C169.575 80.9107 169.679 80.3667 169.887 79.86C170.095 79.348 170.381 78.9 170.743 78.516C171.111 78.1267 171.538 77.8227 172.023 77.604C172.509 77.3853 173.026 77.276 173.575 77.276C174.199 77.276 174.77 77.4093 175.287 77.676C175.81 77.9373 176.253 78.2973 176.615 78.756C176.978 79.2147 177.242 79.7373 177.407 80.324C177.573 80.9107 177.61 81.524 177.519 82.164H171.671C171.746 82.4627 171.869 82.732 172.039 82.972C172.21 83.2067 172.426 83.396 172.687 83.54C172.949 83.6787 173.245 83.7507 173.575 83.756C173.917 83.7613 174.226 83.6813 174.503 83.516C174.786 83.3453 175.021 83.116 175.207 82.828L177.199 83.292C176.874 84.0013 176.389 84.5827 175.743 85.036C175.098 85.484 174.375 85.708 173.575 85.708ZM171.607 80.7H175.543C175.485 80.38 175.359 80.092 175.167 79.836C174.981 79.5747 174.749 79.3667 174.471 79.212C174.194 79.0573 173.895 78.98 173.575 78.98C173.255 78.98 172.959 79.0573 172.687 79.212C172.415 79.3613 172.183 79.5667 171.991 79.828C171.805 80.084 171.677 80.3747 171.607 80.7ZM180.725 89.5H178.773V77.5H180.725V78.516C180.986 78.1533 181.306 77.86 181.685 77.636C182.069 77.4067 182.517 77.292 183.029 77.292C183.616 77.292 184.162 77.4013 184.669 77.62C185.176 77.8387 185.621 78.1427 186.005 78.532C186.394 78.916 186.696 79.3613 186.909 79.868C187.128 80.3747 187.237 80.9187 187.237 81.5C187.237 82.0813 187.128 82.628 186.909 83.14C186.696 83.652 186.394 84.1027 186.005 84.492C185.621 84.876 185.176 85.1773 184.669 85.396C184.162 85.6147 183.616 85.724 183.029 85.724C182.517 85.724 182.069 85.612 181.685 85.388C181.306 85.1587 180.986 84.8627 180.725 84.5V89.5ZM183.005 79.172C182.6 79.172 182.237 79.2787 181.917 79.492C181.597 79.7 181.346 79.98 181.165 80.332C180.984 80.684 180.893 81.0733 180.893 81.5C180.893 81.9267 180.984 82.3187 181.165 82.676C181.346 83.028 181.597 83.3107 181.917 83.524C182.237 83.732 182.6 83.836 183.005 83.836C183.416 83.836 183.792 83.732 184.133 83.524C184.474 83.316 184.746 83.036 184.949 82.684C185.152 82.3267 185.253 81.932 185.253 81.5C185.253 81.0733 185.152 80.684 184.949 80.332C184.746 79.98 184.474 79.7 184.133 79.492C183.797 79.2787 183.421 79.172 183.005 79.172ZM200.907 74.3V76.252H197.483V85.5H195.531V76.252H192.107V74.3H200.907ZM205.257 85.5H203.321L200.649 77.5H202.561L204.297 82.676L206.025 77.5H207.953L209.681 82.676L211.417 77.5H213.329L210.657 85.5H208.721L206.985 80.3L205.257 85.5ZM217.679 85.708C216.943 85.708 216.271 85.5187 215.663 85.14C215.061 84.7613 214.578 84.2547 214.215 83.62C213.858 82.98 213.679 82.2733 213.679 81.5C213.679 80.9133 213.783 80.3667 213.991 79.86C214.199 79.348 214.485 78.9 214.847 78.516C215.215 78.1267 215.642 77.8227 216.127 77.604C216.613 77.3853 217.13 77.276 217.679 77.276C218.415 77.276 219.085 77.4653 219.687 77.844C220.295 78.2227 220.778 78.732 221.135 79.372C221.498 80.012 221.679 80.7213 221.679 81.5C221.679 82.0813 221.575 82.6253 221.367 83.132C221.159 83.6387 220.871 84.0867 220.503 84.476C220.141 84.86 219.717 85.1613 219.231 85.38C218.751 85.5987 218.234 85.708 217.679 85.708ZM217.679 83.756C218.069 83.756 218.418 83.652 218.727 83.444C219.037 83.236 219.279 82.9613 219.455 82.62C219.637 82.2787 219.727 81.9053 219.727 81.5C219.727 81.084 219.634 80.7053 219.447 80.364C219.266 80.0173 219.018 79.7427 218.703 79.54C218.394 79.332 218.053 79.228 217.679 79.228C217.295 79.228 216.949 79.332 216.639 79.54C216.33 79.748 216.085 80.0253 215.903 80.372C215.722 80.7187 215.631 81.0947 215.631 81.5C215.631 81.9213 215.725 82.3027 215.911 82.644C216.098 82.9853 216.346 83.2573 216.655 83.46C216.97 83.6573 217.311 83.756 217.679 83.756Z" fill="white"/>
</g>
<defs>
<filter id="filter0_ddddd_4_2194" x="-403" y="88" width="1180" height="1365" filterUnits="userSpaceOnUse" color-interpolation-filters="sRGB">
<feFlood flood-opacity="0" result="BackgroundImageFix"/>
<feColorMatrix in="SourceAlpha" type="matrix" values="0 0 0 0 0 0 0 0 0 0 0 0 0 0 0 0 0 0 127 0" result="hardAlpha"/>
<feOffset/>
<feColorMatrix type="matrix" values="0 0 0 0 0.294118 0 0 0 0 0.203922 0 0 0 0 0.145098 0 0 0 0.05 0"/>
<feBlend mode="normal" in2="BackgroundImageFix" result="effect1_dropShadow_4_2194"/>
<feColorMatrix in="SourceAlpha" type="matrix" values="0 0 0 0 0 0 0 0 0 0 0 0 0 0 0 0 0 0 127 0" result="hardAlpha"/>
<feOffset dy="-17"/>
<feGaussianBlur stdDeviation="19"/>
<feColorMatrix type="matrix" values="0 0 0 0 0.294118 0 0 0 0 0.203922 0 0 0 0 0.145098 0 0 0 0.05 0"/>
<feBlend mode="normal" in2="effect1_dropShadow_4_2194" result="effect2_dropShadow_4_2194"/>
<feColorMatrix in="SourceAlpha" type="matrix" values="0 0 0 0 0 0 0 0 0 0 0 0 0 0 0 0 0 0 127 0" result="hardAlpha"/>
<feOffset dy="-69"/>
<feGaussianBlur stdDeviation="34.5"/>
<feColorMatrix type="matrix" values="0 0 0 0 0.294118 0 0 0 0 0.203922 0 0 0 0 0.145098 0 0 0 0.04 0"/>
<feBlend mode="normal" in2="effect2_dropShadow_4_2194" result="effect3_dropShadow_4_2194"/>
<feColorMatrix in="SourceAlpha" type="matrix" values="0 0 0 0 0 0 0 0 0 0 0 0 0 0 0 0 0 0 127 0" result="hardAlpha"/>
<feOffset dy="-154"/>
<feGaussianBlur stdDeviation="46.5"/>
<feColorMatrix type="matrix" values="0 0 0 0 0.294118 0 0 0 0 0.203922 0 0 0 0 0.145098 0 0 0 0.03 0"/>
<feBlend mode="normal" in2="effect3_dropShadow_4_2194" result="effect4_dropShadow_4_2194"/>
<feColorMatrix in="SourceAlpha" type="matrix" values="0 0 0 0 0 0 0 0 0 0 0 0 0 0 0 0 0 0 127 0" result="hardAlpha"/>
<feOffset dy="-274"/>
<feGaussianBlur stdDeviation="55"/>
<feColorMatrix type="matrix" values="0 0 0 0 0.294118 0 0 0 0 0.203922 0 0 0 0 0.145098 0 0 0 0.01 0"/>
<feBlend mode="normal" in2="effect4_dropShadow_4_2194" result="effect5_dropShadow_4_2194"/>
<feBlend mode="normal" in="SourceGraphic" in2="effect5_dropShadow_4_2194" result="shape"/>
</filter>
<filter id="filter1_ddddd_4_2194" x="250.8" y="262.2" width="104.4" height="111.6" filterUnits="userSpaceOnUse" color-interpolation-filters="sRGB">
<feFlood flood-opacity="0" result="BackgroundImageFix"/>
<feColorMatrix in="SourceAlpha" type="matrix" values="0 0 0 0 0 0 0 0 0 0 0 0 0 0 0 0 0 0 127 0" result="hardAlpha"/>
<feOffset/>
<feColorMatrix type="matrix" values="0 0 0 0 1 0 0 0 0 0.807843 0 0 0 0 0.360784 0 0 0 0.1 0"/>
<feBlend mode="normal" in2="BackgroundImageFix" result="effect1_dropShadow_4_2194"/>
<feColorMatrix in="SourceAlpha" type="matrix" values="0 0 0 0 0 0 0 0 0 0 0 0 0 0 0 0 0 0 127 0" result="hardAlpha"/>
<feOffset dy="0.6"/>
<feGaussianBlur stdDeviation="0.7"/>
<feColorMatrix type="matrix" values="0 0 0 0 1 0 0 0 0 0.807843 0 0 0 0 0.360784 0 0 0 0.1 0"/>
<feBlend mode="normal" in2="effect1_dropShadow_4_2194" result="effect2_dropShadow_4_2194"/>
<feColorMatrix in="SourceAlpha" type="matrix" values="0 0 0 0 0 0 0 0 0 0 0 0 0 0 0 0 0 0 127 0" result="hardAlpha"/>
<feOffset dy="2.6"/>
<feGaussianBlur stdDeviation="1.3"/>
<feColorMatrix type="matrix" values="0 0 0 0 1 0 0 0 0 0.807843 0 0 0 0 0.360784 0 0 0 0.09 0"/>
<feBlend mode="normal" in2="effect2_dropShadow_4_2194" result="effect3_dropShadow_4_2194"/>
<feColorMatrix in="SourceAlpha" type="matrix" values="0 0 0 0 0 0 0 0 0 0 0 0 0 0 0 0 0 0 127 0" result="hardAlpha"/>
<feOffset dy="6"/>
<feGaussianBlur stdDeviation="1.8"/>
<feColorMatrix type="matrix" values="0 0 0 0 1 0 0 0 0 0.807843 0 0 0 0 0.360784 0 0 0 0.05 0"/>
<feBlend mode="normal" in2="effect3_dropShadow_4_2194" result="effect4_dropShadow_4_2194"/>
<feColorMatrix in="SourceAlpha" type="matrix" values="0 0 0 0 0 0 0 0 0 0 0 0 0 0 0 0 0 0 127 0" result="hardAlpha"/>
<feOffset dy="10.6"/>
<feGaussianBlur stdDeviation="2.1"/>
<feColorMatrix type="matrix" values="0 0 0 0 1 0 0 0 0 0.807843 0 0 0 0 0.360784 0 0 0 0.01 0"/>
<feBlend mode="normal" in2="effect4_dropShadow_4_2194" result="effect5_dropShadow_4_2194"/>
<feBlend mode="normal" in="SourceGraphic" in2="effect5_dropShadow_4_2194" result="shape"/>
</filter>
<filter id="filter2_ddddd_4_2194" x="192.8" y="146.2" width="72.4" height="79.6" filterUnits="userSpaceOnUse" color-interpolation-filters="sRGB">
<feFlood flood-opacity="0" result="BackgroundImageFix"/>
<feColorMatrix in="SourceAlpha" type="matrix" values="0 0 0 0 0 0 0 0 0 0 0 0 0 0 0 0 0 0 127 0" result="hardAlpha"/>
<feOffset/>
<feColorMatrix type="matrix" values="0 0 0 0 1 0 0 0 0 0.807843 0 0 0 0 0.360784 0 0 0 0.1 0"/>
<feBlend mode="normal" in2="BackgroundImageFix" result="effect1_dropShadow_4_2194"/>
<feColorMatrix in="SourceAlpha" type="matrix" values="0 0 0 0 0 0 0 0 0 0 0 0 0 0 0 0 0 0 127 0" result="hardAlpha"/>
<feOffset dy="0.6"/>
<feGaussianBlur stdDeviation="0.7"/>
<feColorMatrix type="matrix" values="0 0 0 0 1 0 0 0 0 0.807843 0 0 0 0 0.360784 0 0 0 0.1 0"/>
<feBlend mode="normal" in2="effect1_dropShadow_4_2194" result="effect2_dropShadow_4_2194"/>
<feColorMatrix in="SourceAlpha" type="matrix" values="0 0 0 0 0 0 0 0 0 0 0 0 0 0 0 0 0 0 127 0" result="hardAlpha"/>
<feOffset dy="2.6"/>
<feGaussianBlur stdDeviation="1.3"/>
<feColorMatrix type="matrix" values="0 0 0 0 1 0 0 0 0 0.807843 0 0 0 0 0.360784 0 0 0 0.09 0"/>
<feBlend mode="normal" in2="effect2_dropShadow_4_2194" result="effect3_dropShadow_4_2194"/>
<feColorMatrix in="SourceAlpha" type="matrix" values="0 0 0 0 0 0 0 0 0 0 0 0 0 0 0 0 0 0 127 0" result="hardAlpha"/>
<feOffset dy="6"/>
<feGaussianBlur stdDeviation="1.8"/>
<feColorMatrix type="matrix" values="0 0 0 0 1 0 0 0 0 0.807843 0 0 0 0 0.360784 0 0 0 0.05 0"/>
<feBlend mode="normal" in2="effect3_dropShadow_4_2194" result="effect4_dropShadow_4_2194"/>
<feColorMatrix in="SourceAlpha" type="matrix" values="0 0 0 0 0 0 0 0 0 0 0 0 0 0 0 0 0 0 127 0" result="hardAlpha"/>
<feOffset dy="10.6"/>
<feGaussianBlur stdDeviation="2.1"/>
<feColorMatrix type="matrix" values="0 0 0 0 1 0 0 0 0 0.807843 0 0 0 0 0.360784 0 0 0 0.01 0"/>
<feBlend mode="normal" in2="effect4_dropShadow_4_2194" result="effect5_dropShadow_4_2194"/>
<feBlend mode="normal" in="SourceGraphic" in2="effect5_dropShadow_4_2194" result="shape"/>
</filter>
<filter id="filter3_ddddd_4_2194" x="31.8" y="342.2" width="56.4" height="63.6" filterUnits="userSpaceOnUse" color-interpolation-filters="sRGB">
<feFlood flood-opacity="0" result="BackgroundImageFix"/>
<feColorMatrix in="SourceAlpha" type="matrix" values="0 0 0 0 0 0 0 0 0 0 0 0 0 0 0 0 0 0 127 0" result="hardAlpha"/>
<feOffset/>
<feColorMatrix type="matrix" values="0 0 0 0 1 0 0 0 0 0.807843 0 0 0 0 0.360784 0 0 0 0.1 0"/>
<feBlend mode="normal" in2="BackgroundImageFix" result="effect1_dropShadow_4_2194"/>
<feColorMatrix in="SourceAlpha" type="matrix" values="0 0 0 0 0 0 0 0 0 0 0 0 0 0 0 0 0 0 127 0" result="hardAlpha"/>
<feOffset dy="0.6"/>
<feGaussianBlur stdDeviation="0.7"/>
<feColorMatrix type="matrix" values="0 0 0 0 1 0 0 0 0 0.807843 0 0 0 0 0.360784 0 0 0 0.1 0"/>
<feBlend mode="normal" in2="effect1_dropShadow_4_2194" result="effect2_dropShadow_4_2194"/>
<feColorMatrix in="SourceAlpha" type="matrix" values="0 0 0 0 0 0 0 0 0 0 0 0 0 0 0 0 0 0 127 0" result="hardAlpha"/>
<feOffset dy="2.6"/>
<feGaussianBlur stdDeviation="1.3"/>
<feColorMatrix type="matrix" values="0 0 0 0 1 0 0 0 0 0.807843 0 0 0 0 0.360784 0 0 0 0.09 0"/>
<feBlend mode="normal" in2="effect2_dropShadow_4_2194" result="effect3_dropShadow_4_2194"/>
<feColorMatrix in="SourceAlpha" type="matrix" values="0 0 0 0 0 0 0 0 0 0 0 0 0 0 0 0 0 0 127 0" result="hardAlpha"/>
<feOffset dy="6"/>
<feGaussianBlur stdDeviation="1.8"/>
<feColorMatrix type="matrix" values="0 0 0 0 1 0 0 0 0 0.807843 0 0 0 0 0.360784 0 0 0 0.05 0"/>
<feBlend mode="normal" in2="effect3_dropShadow_4_2194" result="effect4_dropShadow_4_2194"/>
<feColorMatrix in="SourceAlpha" type="matrix" values="0 0 0 0 0 0 0 0 0 0 0 0 0 0 0 0 0 0 127 0" result="hardAlpha"/>
<feOffset dy="10.6"/>
<feGaussianBlur stdDeviation="2.1"/>
<feColorMatrix type="matrix" values="0 0 0 0 1 0 0 0 0 0.807843 0 0 0 0 0.360784 0 0 0 0.01 0"/>
<feBlend mode="normal" in2="effect4_dropShadow_4_2194" result="effect5_dropShadow_4_2194"/>
<feBlend mode="normal" in="SourceGraphic" in2="effect5_dropShadow_4_2194" result="shape"/>
</filter>
<clipPath id="clip0_4_2194">
<rect width="375" height="812" fill="white"/>
</clipPath>
</defs>
</svg>
