<svg width="375" height="812" viewBox="0 0 375 812" fill="none" xmlns="http://www.w3.org/2000/svg">
<g clip-path="url(#clip0_4_2104)">
<rect width="375" height="812" fill="#3D4A26"/>
<path d="M-17.7751 133.567C-23.7055 131.128 -27.2316 123.922 -25.6021 117.664C-23.9459 111.406 -17.3209 106.963 -10.9899 107.857C-7.73081 108.318 -4.79233 109.97 -1.93399 111.596C1.69904 113.654 5.33208 115.741 8.96511 117.799C-0.0907593 114.576 -4.47177 103.251 -2.49497 93.7153C-1.05244 86.8612 3.56899 80.3052 10.2474 78.5171C15.6969 77.0542 21.4937 78.8964 26.4891 81.5243C42.0097 89.5975 52.882 104.471 62.1249 119.479C59.2398 115.442 62.4455 109.239 67.1203 107.613C71.7952 106.015 76.9241 107.694 81.3319 109.916C91.1624 114.901 99.3367 124.437 105 134L-17.7751 133.567Z" fill="#5A6B38"/>
<path d="M382.452 158.45C390.057 155.359 394.58 146.223 392.49 138.288C390.366 130.354 381.87 124.721 373.75 125.854C369.571 126.438 365.802 128.533 362.137 130.594C357.478 133.205 352.818 135.85 348.159 138.46C359.773 134.373 365.391 120.015 362.856 107.925C361.006 99.2348 355.079 90.9226 346.515 88.6557C339.526 86.8009 332.092 89.1365 325.686 92.4683C305.781 102.704 291.838 121.561 279.985 140.59C283.685 135.472 279.574 127.606 273.579 125.545C267.583 123.519 261.006 125.648 255.353 128.465C242.746 134.785 232.263 146.875 225 159L382.452 158.45Z" fill="#5A6B38"/>
<path d="M-34.0657 375.211C-41.2164 372.326 -45.5027 363.713 -43.5119 356.258C-41.5211 348.802 -33.4969 343.5 -25.8587 344.557C-21.9381 345.105 -18.3627 347.076 -14.9093 349.026C-10.5214 351.484 -6.13351 353.942 -1.74561 356.4C-12.6747 352.54 -17.9768 339.072 -15.5797 327.716C-13.853 319.55 -8.2462 311.749 -0.181404 309.616C6.40044 307.869 13.3886 310.083 19.4626 313.191C38.2127 322.82 51.3561 340.514 62.5086 358.391C59.0146 353.576 62.8946 346.182 68.542 344.272C74.1691 342.363 80.3853 344.353 85.7076 347.015C97.5712 352.967 107.464 364.302 114.29 375.698L-34.0657 375.211Z" fill="#5A6B38"/>
<path d="M462.436 322.232C473.639 317.691 480.354 304.132 477.235 292.395C474.116 280.659 461.544 272.312 449.577 273.975C443.435 274.838 437.833 277.94 432.422 281.01C425.548 284.88 418.673 288.75 411.798 292.619C428.921 286.543 437.228 265.34 433.473 247.464C430.767 234.608 421.983 222.327 409.347 218.97C399.035 216.219 388.087 219.705 378.57 224.598C349.194 239.756 328.601 267.611 311.128 295.753C316.602 288.174 310.523 276.533 301.675 273.527C292.859 270.521 283.12 273.655 274.781 277.844C256.194 287.215 240.694 305.059 230 323L462.436 322.232Z" fill="#5A6B38"/>
<path d="M217.01 138.958C219.438 147.582 229.302 151.669 237.112 147.282C247.126 141.64 259.218 149.964 257.59 161.347C256.314 170.222 263.649 177.969 272.561 177.117C284.002 176.039 291.662 188.574 285.554 198.302C280.772 205.899 284.352 215.953 292.839 218.811C303.704 222.496 305.656 237.063 296.093 243.456C288.658 248.445 287.832 259.076 294.416 265.168C302.852 272.965 298.697 287.056 287.381 289.011C278.569 290.541 273.487 299.917 277.017 308.166C281.573 318.721 272.035 329.903 260.92 327.095C252.233 324.889 243.797 331.407 243.671 340.358C243.546 351.866 230.303 358.209 221.266 351.088C214.231 345.548 203.867 348.055 200.137 356.203C195.355 366.658 180.66 367.059 175.303 356.88C171.122 348.957 160.633 347.002 153.923 352.944C145.312 360.54 131.743 354.924 130.967 343.442C130.366 334.491 121.579 328.449 113.042 331.132C102.077 334.566 91.9635 323.886 95.944 313.105C99.0482 304.681 93.4656 295.58 84.5534 294.552C73.1628 293.223 68.231 279.359 76.242 271.11C82.4755 264.692 81.0736 254.087 73.3881 249.523C63.5246 243.657 64.6511 228.99 75.3157 224.728C83.6271 221.393 86.6562 211.164 81.4742 203.843C74.8401 194.466 81.8246 181.529 93.2903 181.981C102.228 182.332 109.162 174.208 107.385 165.408C105.132 154.126 116.773 145.176 127.062 150.24C135.098 154.201 144.711 149.588 146.688 140.838C149.217 129.631 163.487 126.171 170.822 134.996C176.554 141.891 187.219 141.59 192.551 134.395C199.436 125.219 213.881 127.901 217.01 138.958Z" fill="#191E10"/>
<path d="M358.204 409.53C348.816 376.636 319.901 353.169 285.829 350.763C207.848 345.222 74.6902 343.216 46.4265 373.452C37.1888 383.331 56.0396 365.379 46.4265 373.452C3.19223 409.731 -3.54199 497.732 -3.54199 497.732L97.4464 497.03L378.707 497.833C380.259 489.81 368.618 446.085 358.204 409.53Z" fill="#9BB168"/>
<path d="M226.673 314.233L219.713 292.07C225.546 293.449 231.955 291.995 236.686 287.607C244.272 280.587 244.747 268.753 237.738 261.157C230.728 253.56 218.912 253.084 211.327 260.104C210.876 260.53 210.45 260.956 210.05 261.407L201.839 235.283C200.812 232.049 197.608 230.043 194.253 230.544C177.63 233.026 131.217 244.685 127.837 297.335C127.587 301.321 130.716 304.731 134.722 304.731L155.2 304.706L153.573 318.947C178.256 323.685 202.84 321.103 226.673 314.233Z" fill="#CFD9B5"/>
<path d="M226.673 314.233C202.865 321.128 178.257 323.685 153.598 318.947L148.741 361.493C146.288 382.93 158.755 403.639 179.158 410.584C180.109 410.909 181.085 411.21 182.062 411.511C217.41 421.791 249.78 387.768 238.714 352.593L226.673 314.233Z" fill="#9BB168"/>
<path d="M163.261 246.791C153.147 252.03 143.008 257.245 132.895 262.485C131.568 263.162 131.443 265.093 132.419 266.096C135.423 269.154 138.402 272.188 141.406 275.247C143.484 277.353 146.713 274.119 144.636 272.013C141.632 268.954 138.652 265.92 135.648 262.861C135.498 264.065 135.348 265.268 135.173 266.472C145.287 261.232 155.425 256.017 165.539 250.777C168.193 249.398 165.865 245.437 163.261 246.791Z" fill="#191E10"/>
<path d="M160.382 282.292C160.657 284.649 157.904 286.805 155.751 285.476C153.222 283.947 150.919 287.908 153.447 289.438C158.329 292.421 165.639 288.159 164.988 282.292C164.838 281.064 164.037 280.011 162.685 280.011C161.559 279.986 160.257 281.039 160.382 282.292Z" fill="#191E10"/>
<path d="M227.524 269.431C223.593 270.759 219.663 272.088 215.733 273.417C212.954 274.37 214.155 278.782 216.959 277.83C220.89 276.501 224.82 275.172 228.75 273.843C231.529 272.916 230.328 268.478 227.524 269.431Z" fill="#191E10"/>
<path d="M172.198 260.505C176.579 270.408 190.247 272.941 198.283 266.071C200.536 264.14 197.282 260.906 195.054 262.837C189.046 267.976 179.282 265.218 176.178 258.198C174.976 255.491 171.021 257.822 172.198 260.505Z" fill="#191E10"/>
<path d="M175.954 262.335C174.276 264.04 172.574 265.72 170.897 267.425C168.819 269.506 172.048 272.765 174.126 270.659C175.803 268.954 177.506 267.274 179.183 265.569C181.286 263.488 178.057 260.254 175.954 262.335Z" fill="#191E10"/>
<path d="M183.188 268.954C183.213 270.659 183.238 272.339 183.263 274.044C183.288 277.002 187.894 277.002 187.844 274.044C187.819 272.339 187.794 270.659 187.769 268.954C187.719 266.021 183.138 265.996 183.188 268.954Z" fill="#191E10"/>
<path d="M192.2 268.904C192.751 270.408 193.277 271.937 193.827 273.442C194.253 274.595 195.38 275.397 196.656 275.046C197.783 274.745 198.684 273.392 198.259 272.213C197.708 270.709 197.182 269.18 196.631 267.675C196.206 266.497 195.079 265.72 193.802 266.071C192.676 266.397 191.8 267.75 192.2 268.904Z" fill="#191E10"/>
<path d="M207.973 437.335C207.973 441.723 204.418 445.308 200.012 445.308C195.631 445.308 192.051 441.748 192.051 437.335C192.051 432.948 195.606 429.362 200.012 429.362C204.418 429.362 207.973 432.922 207.973 437.335Z" fill="#191E10"/>
<path d="M92.7646 412.163C67.2546 425.276 41.7447 438.388 16.2097 451.501C10.3517 454.509 4.49365 457.518 -1.36438 460.526C-10.9775 465.491 -18.7882 472.034 -23.019 482.314C-26.7742 491.415 -27.2248 503.975 -22.969 513.051C-18.5629 522.453 -11.278 531.078 -1.2392 534.738C8.29886 538.198 20.065 539.502 29.4528 534.688C45.4498 526.465 61.4717 518.241 77.4686 509.993C100.475 498.159 123.482 486.35 146.488 474.516C133.32 451.35 120.252 428.109 107.91 404.391C102.853 406.999 97.7965 409.581 92.7646 412.163Z" fill="#9BB168"/>
<path d="M171.573 461.63C181.186 456.69 188.997 450.147 193.228 439.867C196.983 430.766 197.433 418.206 193.178 409.13C188.772 399.728 181.487 391.103 171.448 387.443C161.91 383.983 170.246 370.219 160.858 375.057C149.893 380.698 118.851 398.775 107.886 404.391C120.228 428.134 133.271 451.375 146.464 474.516C148.967 473.238 151.495 471.934 153.999 470.655C159.857 467.647 165.715 464.638 171.573 461.63Z" fill="#CFD9B5"/>
<path d="M175.878 405.569C178.907 385.236 181.936 364.878 184.966 344.545C185.842 338.628 181.586 332.11 175.427 331.433C169.294 330.756 163.286 334.642 162.335 340.985C159.305 361.318 156.276 381.676 153.247 402.009C152.371 407.926 156.627 414.445 162.785 415.122C168.919 415.824 174.927 411.912 175.878 405.569Z" fill="#CFD9B5"/>
<path d="M176.98 405.87C179.258 390.502 181.561 375.108 183.839 359.739C185.191 350.613 190.047 336.222 178.757 331.182C174.777 329.402 169.87 330.129 166.34 332.586C161.959 335.62 161.283 340.183 160.557 345.147C158.279 360.541 155.976 375.91 153.698 391.304C153.472 392.758 155.7 393.36 155.901 391.906C157.753 379.495 159.581 367.085 161.433 354.674C161.884 351.691 162.309 348.707 162.76 345.749C163.161 343.066 163.261 340.133 164.638 337.701C167.466 332.737 174.576 330.856 179.333 334.116C185.016 338.027 183.864 344.27 182.988 350.161C182.112 356.103 181.21 362.07 180.334 368.012C178.482 380.423 176.654 392.808 174.802 405.219C174.551 406.723 176.754 407.325 176.98 405.87Z" fill="#191E10"/>
<path d="M181.361 444.155C186.543 410.985 191.726 377.79 196.908 344.62C197.834 338.703 193.628 332.16 187.445 331.433C181.311 330.706 175.278 334.567 174.277 340.91C169.095 374.079 163.912 407.274 158.73 440.444C157.804 446.361 162.01 452.905 168.193 453.632C174.327 454.359 180.36 450.498 181.361 444.155Z" fill="#CFD9B5"/>
<path d="M188.27 411.386C190.173 398.549 192.101 385.713 194.003 372.901C194.954 366.483 195.906 360.065 196.857 353.646C197.533 349.033 199.16 343.843 197.783 339.205C195.63 331.934 187.995 328.324 181.035 331.107C177.531 332.511 174.752 335.419 173.675 339.055C171.948 344.896 171.698 351.565 170.796 357.608C168.618 372.174 166.465 386.716 164.287 401.282C164.062 402.736 166.29 403.338 166.49 401.884C168.543 388.07 170.596 374.255 172.649 360.441C173.6 354.047 174.226 347.529 175.503 341.186C176.73 335.093 182.963 330.756 189.172 332.862C196.607 335.394 196.106 343.066 195.155 349.309C194.153 355.978 193.177 362.647 192.176 369.291C190.123 383.105 188.07 396.92 186.017 410.759C185.842 412.213 188.045 412.84 188.27 411.386Z" fill="#191E10"/>
<path d="M182.638 352.919C178.958 377.64 175.278 402.36 171.598 427.081C170.721 432.998 174.977 439.516 181.136 440.193C187.269 440.87 193.277 436.984 194.229 430.641C197.909 405.92 201.589 381.2 205.269 356.479C206.145 350.562 201.889 344.044 195.731 343.367C189.597 342.69 183.589 346.576 182.638 352.919Z" fill="#CFD9B5"/>
<path d="M193.402 443.954C197.483 416.601 201.538 389.248 205.619 361.895C206.395 356.755 207.321 351.941 204.142 347.378C201.238 343.216 196.356 341.386 191.4 342.464C179.834 344.971 180.56 359.137 179.183 368.413C177.13 382.278 175.052 396.142 172.999 410.032C172.774 411.486 175.002 412.088 175.202 410.634C176.729 400.304 178.282 389.975 179.809 379.645C180.635 374.004 181.486 368.363 182.312 362.747C182.988 358.184 182.863 351.841 185.992 348.206C190.699 342.765 199.436 343.392 202.915 349.81C205.644 354.875 203.291 361.87 202.49 367.235C200.662 379.52 198.835 391.83 197.007 404.115C195.055 417.177 193.127 430.265 191.174 443.327C190.974 444.781 193.177 445.408 193.402 443.954Z" fill="#191E10"/>
<path d="M293.239 413.342C318.749 426.454 344.259 439.567 369.794 452.679C375.652 455.688 381.51 458.696 387.368 461.705C396.981 466.644 404.792 473.188 409.023 483.467C412.778 492.568 413.229 505.129 408.973 514.205C404.567 523.607 397.282 532.256 387.243 535.892C377.705 539.351 365.939 540.655 356.551 535.841C340.554 527.618 324.532 519.395 308.535 511.146C285.529 499.312 262.522 487.503 239.516 475.67C252.684 452.504 265.752 429.262 278.093 405.544C283.15 408.152 288.207 410.759 293.239 413.342Z" fill="#9BB168"/>
<path d="M214.432 462.783C204.818 457.844 197.008 451.3 192.777 441.021C189.022 431.92 188.571 419.359 192.827 410.283C197.233 400.881 204.518 392.231 214.557 388.596C224.095 385.136 215.758 371.372 225.146 376.211C236.111 381.852 267.154 399.928 278.119 405.57C265.777 429.312 252.734 452.554 239.541 475.695C237.037 474.416 234.509 473.112 232.006 471.834C226.148 468.825 220.29 465.817 214.432 462.783Z" fill="#CFD9B5"/>
<path d="M210.126 406.748C207.096 386.414 204.067 366.056 201.038 345.723C200.162 339.806 204.418 333.288 210.576 332.611C216.71 331.934 222.718 335.82 223.669 342.163C226.698 362.496 229.727 382.854 232.757 403.187C233.633 409.104 229.377 415.623 223.218 416.3C217.085 416.977 211.077 413.091 210.126 406.748Z" fill="#CFD9B5"/>
<path d="M211.226 406.447C209.374 394.036 207.546 381.651 205.694 369.24C204.818 363.298 203.916 357.331 203.04 351.389C202.164 345.498 200.987 339.255 206.695 335.344C211.452 332.059 218.536 333.965 221.39 338.929C222.767 341.311 222.867 344.294 223.268 346.977C223.719 349.96 224.144 352.944 224.595 355.902C226.447 368.313 228.275 380.723 230.127 393.134C230.353 394.588 232.556 393.961 232.33 392.532C230.052 377.138 227.749 361.769 225.471 346.375C224.72 341.411 224.069 336.848 219.688 333.814C216.158 331.357 211.251 330.63 207.271 332.41C195.956 337.45 200.837 351.816 202.189 360.967C204.467 376.336 206.77 391.73 209.048 407.098C209.224 408.502 211.452 407.876 211.226 406.447Z" fill="#191E10"/>
<path d="M204.643 445.333C199.461 412.163 194.279 378.968 189.097 345.799C188.17 339.882 192.376 333.338 198.56 332.611C204.693 331.884 210.726 335.745 211.728 342.088C216.91 375.258 222.092 408.452 227.274 441.622C228.2 447.539 223.994 454.083 217.811 454.81C211.677 455.537 205.644 451.676 204.643 445.333Z" fill="#CFD9B5"/>
<path d="M199.936 411.937C197.884 398.123 195.831 384.309 193.778 370.469C192.827 364.051 191.875 357.632 190.924 351.214C189.973 344.796 189.047 336.673 196.807 334.04C202.64 332.059 209.074 335.945 210.376 341.837C211.778 348.306 212.379 355.05 213.33 361.594C215.383 375.408 217.435 389.223 219.488 403.037C219.714 404.491 221.917 403.864 221.691 402.435C219.789 389.599 217.861 376.762 215.958 363.95C215.007 357.532 214.056 351.114 213.105 344.695C212.479 340.559 211.678 336.973 208.298 334.216C202.39 329.377 193.428 330.68 189.497 337.324C187.144 341.311 187.695 345.222 188.346 349.584C189.297 356.003 190.248 362.421 191.2 368.839C193.377 383.406 195.53 397.948 197.708 412.514C197.934 414.018 200.162 413.392 199.936 411.937Z" fill="#191E10"/>
<path d="M203.366 354.097C207.046 378.818 210.726 403.538 214.407 428.259C215.283 434.176 211.027 440.694 204.868 441.371C198.735 442.048 192.727 438.162 191.776 431.819C188.095 407.099 184.415 382.378 180.735 357.657C179.859 351.74 184.115 345.222 190.273 344.545C196.407 343.868 202.415 347.754 203.366 354.097Z" fill="#CFD9B5"/>
<path d="M194.804 444.505C191.249 420.662 187.695 396.794 184.165 372.951C183.364 367.511 181.786 361.644 181.786 356.153C181.761 348.807 188.871 343.743 195.756 346.375C201.814 348.707 202.29 354.423 203.116 360.014C203.917 365.43 204.718 370.845 205.544 376.261C207.296 388.094 209.074 399.928 210.826 411.787C211.052 413.241 213.255 412.614 213.029 411.185C211.202 398.975 209.399 386.766 207.572 374.531C206.696 368.589 205.794 362.647 204.918 356.705C204.142 351.565 202.64 347.127 197.683 344.695C187.544 339.731 178.357 348.682 179.784 358.936C181.661 372.324 183.764 385.662 185.742 399.026C188.02 414.394 190.323 429.738 192.601 445.107C192.802 446.586 195.03 445.96 194.804 444.505Z" fill="#191E10"/>
<path d="M5.64479 458.245C35.0351 442.55 64.4503 426.855 93.8406 411.16C97.9963 408.929 102.152 406.723 106.308 404.491C107.609 403.789 106.458 401.809 105.156 402.511C75.7658 418.205 46.3506 433.9 16.9603 449.595C12.8046 451.826 8.64891 454.033 4.49321 456.264C3.1664 456.966 4.34301 458.947 5.64479 458.245Z" fill="#191E10"/>
<path d="M365.288 449.094C339.979 435.931 314.694 422.744 289.384 409.581C285.854 407.751 282.325 405.895 278.77 404.065C277.468 403.388 276.291 405.369 277.618 406.046C302.928 419.208 328.213 432.396 353.522 445.559C357.052 447.389 360.582 449.244 364.137 451.074C365.439 451.751 366.59 449.771 365.288 449.094Z" fill="#191E10"/>
<path d="M22.8189 435.73C28.2263 437.21 33.6337 438.664 39.0661 440.143C40.4931 440.519 41.0939 438.313 39.6669 437.937C34.2595 436.457 28.8521 435.003 23.4197 433.524C21.9927 433.123 21.3919 435.329 22.8189 435.73Z" fill="#191E10"/>
<path d="M342.282 438.137C346.612 436.783 350.843 435.154 354.974 433.248C356.301 432.647 355.149 430.666 353.822 431.268C349.867 433.073 345.811 434.627 341.681 435.931C340.279 436.357 340.88 438.589 342.282 438.137Z" fill="#191E10"/>
<path d="M292.964 224.878C297.169 234.029 308.735 233.528 315.77 228.213C323.305 222.496 330.891 210.236 327.586 200.484C325.133 193.238 314.068 188.85 309.887 197.224C308.084 200.81 309.511 205.097 312.29 207.779C315.845 211.189 321.277 211.766 325.959 211.916C337.049 212.292 350.017 207.303 351.719 194.893C352.12 192.009 347.714 190.756 347.313 193.664C346.061 202.665 337.55 206.927 329.213 207.303C325.258 207.479 320.351 207.504 316.821 205.423C314.894 204.295 313.292 202.214 313.842 199.932C314.393 197.575 317.122 196.798 319.225 197.475C323.531 198.879 324.156 204.295 323.43 208.055C322.554 212.568 320.026 217.031 317.122 220.541C312.39 226.232 301.25 231.948 296.944 222.522C295.667 219.889 291.737 222.221 292.964 224.878Z" fill="#191E10"/>
<path d="M46.0507 163.754C45.2245 174.585 54.2369 183.961 65.1518 182.883C75.8165 181.805 83.0764 171.3 80.3477 160.896C79.3463 157.11 76.1669 152.647 71.811 155.104C67.455 157.561 66.5287 164.105 67.1296 168.542C68.8069 180.827 80.2225 187.12 91.0373 190.33C93.8662 191.182 95.0678 186.744 92.264 185.917C85.5047 183.911 78.2698 180.953 74.2643 174.81C72.2616 171.726 71.0599 167.79 71.6608 164.08C71.7859 163.353 71.9612 162.6 72.2366 161.924C72.537 161.096 73.8137 159.115 75.0154 159.692C76.1169 160.219 76.3422 164.481 76.3422 165.283C76.3922 172.704 70.384 178.596 62.9739 178.396C55.2383 178.195 50.0812 171.175 50.632 163.754C50.8573 160.82 46.276 160.82 46.0507 163.754Z" fill="#191E10"/>
<path d="M50.0311 338.302C55.8641 343.818 65.1268 344.846 71.9612 340.484C75.6913 338.102 77.9444 334.341 79.4965 330.305C81.0486 326.168 82.9512 320.602 80.4728 316.415C78.7455 313.481 74.6899 311.576 71.5356 313.381C68.3312 315.211 67.8806 319.348 68.8819 322.557C71.3353 330.505 80.5479 334.466 88.2835 334.065C99.2736 333.489 107.585 325.165 113.518 316.641C115.195 314.209 111.24 311.927 109.563 314.334C105.232 320.552 99.6241 326.669 92.1138 328.825C86.0054 330.58 77.9944 329.051 74.3394 323.41C73.6635 322.357 72.587 320.451 72.9625 319.123C74.064 315.186 76.3672 318.496 76.7928 319.875C77.1933 321.178 76.9931 322.382 76.7177 323.686C75.9666 327.446 74.4646 331.784 71.811 334.642C66.9793 339.832 58.2924 339.807 53.2605 335.018C51.1326 333.012 47.8782 336.272 50.0311 338.302Z" fill="#191E10"/>
<path d="M241.168 158.589C237.013 151.97 237.588 142.769 243.572 137.378C248.729 132.74 261.071 130.584 265.226 137.83C266.628 140.287 265.602 143.621 262.247 142.894C259.644 142.318 258.467 139.635 258.267 137.203C257.941 133.392 259.393 129.431 261.321 126.222C265.226 119.753 272.111 115.315 279.621 114.588C282.525 114.313 282.55 109.724 279.621 110C270.433 110.853 262.147 115.942 257.365 123.89C253.36 130.534 250.631 143.596 260.169 147.031C263.524 148.234 267.554 147.457 269.507 144.273C271.96 140.312 270.108 135.473 266.803 132.665C259.769 126.748 248.578 127.701 241.594 133.091C233.157 139.61 231.655 152.045 237.213 160.896C238.79 163.403 242.745 161.096 241.168 158.589Z" fill="#191E10"/>
<path d="M127.916 39.5502C121.487 37.1727 117.649 30.0723 119.441 23.9357C121.232 17.7991 128.428 13.3975 135.272 14.2971C138.791 14.7469 141.989 16.3855 145.091 17.9919C149.025 20.016 152.959 22.0401 156.893 24.0963C147.074 20.9156 142.309 9.7991 144.484 0.449675C146.019 -6.26521 151.072 -12.7231 158.301 -14.4901C164.218 -15.9359 170.486 -14.1046 175.924 -11.5343C192.747 -3.59853 204.549 11.02 214.56 25.7349C211.425 21.7509 214.912 15.6786 219.965 14.0722C225.018 12.4979 230.584 14.1365 235.349 16.3533C246 21.269 254.891 30.6184 261 40L127.916 39.5502Z" fill="#5A6B38"/>
<g filter="url(#filter0_ddddd_4_2104)">
<rect x="-293" y="472" width="960" height="960" rx="480" fill="#251404"/>
<rect x="97.5" y="542" width="180" height="8" rx="4" fill="#4F3422"/>
<rect width="118.688" height="8" rx="4" transform="matrix(1 0 0 -1 97.5 550)" fill="#926247"/>
<path d="M29.5371 604V583H37.2771C38.4271 583 39.4621 583.29 40.3821 583.87C41.3121 584.45 42.0521 585.225 42.6021 586.195C43.1521 587.155 43.4271 588.215 43.4271 589.375C43.4271 590.555 43.1471 591.63 42.5871 592.6C42.0271 593.56 41.2771 594.325 40.3371 594.895C39.4071 595.465 38.3871 595.75 37.2771 595.75H33.6771V604H29.5371ZM33.6771 591.61H36.8121C37.2721 591.61 37.6871 591.5 38.0571 591.28C38.4271 591.05 38.7221 590.745 38.9421 590.365C39.1721 589.975 39.2871 589.545 39.2871 589.075C39.2871 588.615 39.1721 588.195 38.9421 587.815C38.7221 587.425 38.4271 587.115 38.0571 586.885C37.6871 586.655 37.2721 586.54 36.8121 586.54H33.6771V591.61ZM51.423 604.39C50.043 604.39 48.783 604.035 47.643 603.325C46.513 602.615 45.608 601.66 44.928 600.46C44.258 599.26 43.923 597.935 43.923 596.485C43.923 595.395 44.118 594.375 44.508 593.425C44.898 592.465 45.433 591.625 46.113 590.905C46.803 590.175 47.603 589.605 48.513 589.195C49.423 588.785 50.393 588.58 51.423 588.58C52.613 588.58 53.698 588.835 54.678 589.345C55.668 589.855 56.503 590.55 57.183 591.43C57.873 592.31 58.363 593.305 58.653 594.415C58.953 595.525 59.003 596.68 58.803 597.88H48.393C48.523 598.32 48.723 598.72 48.993 599.08C49.273 599.43 49.613 599.71 50.013 599.92C50.423 600.13 50.893 600.24 51.423 600.25C51.943 600.26 52.423 600.14 52.863 599.89C53.303 599.64 53.678 599.305 53.988 598.885L58.218 599.86C57.608 601.19 56.698 602.28 55.488 603.13C54.278 603.97 52.923 604.39 51.423 604.39ZM48.243 594.82H54.618C54.488 594.32 54.268 593.87 53.958 593.47C53.648 593.07 53.273 592.755 52.833 592.525C52.403 592.295 51.933 592.18 51.423 592.18C50.923 592.18 50.453 592.295 50.013 592.525C49.583 592.755 49.213 593.07 48.903 593.47C48.603 593.86 48.383 594.31 48.243 594.82ZM60.915 604L60.9 589H65.04L65.055 590.11C65.555 589.63 66.14 589.255 66.81 588.985C67.49 588.715 68.205 588.58 68.955 588.58C69.505 588.58 70.055 588.66 70.605 588.82L68.97 593.005C68.61 592.855 68.245 592.78 67.875 592.78C67.355 592.78 66.88 592.905 66.45 593.155C66.02 593.405 65.68 593.745 65.43 594.175C65.18 594.595 65.055 595.07 65.055 595.6V604H60.915ZM76.215 604.27C75.445 604.21 74.705 604.05 73.995 603.79C73.285 603.52 72.65 603.16 72.09 602.71C71.54 602.25 71.11 601.7 70.8 601.06L74.28 599.56C74.39 599.72 74.555 599.895 74.775 600.085C74.995 600.265 75.26 600.425 75.57 600.565C75.89 600.705 76.26 600.775 76.68 600.775C76.99 600.775 77.29 600.74 77.58 600.67C77.87 600.59 78.105 600.465 78.285 600.295C78.465 600.115 78.555 599.88 78.555 599.59C78.555 599.27 78.44 599.025 78.21 598.855C77.98 598.685 77.7 598.56 77.37 598.48C77.05 598.39 76.74 598.315 76.44 598.255C75.52 598.095 74.65 597.81 73.83 597.4C73.02 596.98 72.36 596.44 71.85 595.78C71.34 595.12 71.085 594.33 71.085 593.41C71.085 592.4 71.35 591.53 71.88 590.8C72.41 590.06 73.1 589.49 73.95 589.09C74.8 588.69 75.72 588.49 76.71 588.49C77.88 588.49 78.965 588.735 79.965 589.225C80.965 589.715 81.77 590.405 82.38 591.295L79.11 593.23C78.98 593.04 78.81 592.86 78.6 592.69C78.4 592.51 78.165 592.36 77.895 592.24C77.635 592.11 77.355 592.035 77.055 592.015C76.665 591.985 76.31 592.01 75.99 592.09C75.67 592.16 75.415 592.295 75.225 592.495C75.045 592.695 74.955 592.965 74.955 593.305C74.955 593.635 75.1 593.88 75.39 594.04C75.68 594.19 76.015 594.305 76.395 594.385C76.775 594.455 77.11 594.54 77.4 594.64C78.27 594.92 79.085 595.28 79.845 595.72C80.615 596.15 81.235 596.68 81.705 597.31C82.175 597.94 82.395 598.68 82.365 599.53C82.365 600.52 82.07 601.39 81.48 602.14C80.89 602.88 80.125 603.445 79.185 603.835C78.255 604.215 77.265 604.36 76.215 604.27ZM90.9234 604.39C89.5434 604.39 88.2834 604.035 87.1434 603.325C86.0134 602.615 85.1084 601.665 84.4284 600.475C83.7584 599.275 83.4234 597.95 83.4234 596.5C83.4234 595.4 83.6184 594.375 84.0084 593.425C84.3984 592.465 84.9334 591.625 85.6134 590.905C86.3034 590.175 87.1034 589.605 88.0134 589.195C88.9234 588.785 89.8934 588.58 90.9234 588.58C92.3034 588.58 93.5584 588.935 94.6884 589.645C95.8284 590.355 96.7334 591.31 97.4034 592.51C98.0834 593.71 98.4234 595.04 98.4234 596.5C98.4234 597.59 98.2284 598.61 97.8384 599.56C97.4484 600.51 96.9084 601.35 96.2184 602.08C95.5384 602.8 94.7434 603.365 93.8334 603.775C92.9334 604.185 91.9634 604.39 90.9234 604.39ZM90.9234 600.25C91.5634 600.25 92.1384 600.08 92.6484 599.74C93.1584 599.39 93.5584 598.93 93.8484 598.36C94.1384 597.79 94.2834 597.17 94.2834 596.5C94.2834 595.81 94.1284 595.18 93.8184 594.61C93.5184 594.03 93.1134 593.57 92.6034 593.23C92.0934 592.89 91.5334 592.72 90.9234 592.72C90.2934 592.72 89.7234 592.895 89.2134 593.245C88.7034 593.595 88.2984 594.055 87.9984 594.625C87.7084 595.195 87.5634 595.82 87.5634 596.5C87.5634 597.21 87.7134 597.85 88.0134 598.42C88.3234 598.98 88.7334 599.425 89.2434 599.755C89.7534 600.085 90.3134 600.25 90.9234 600.25ZM114.335 594.46V604H110.195V595.6C110.195 595.07 110.065 594.595 109.805 594.175C109.555 593.745 109.215 593.405 108.785 593.155C108.365 592.905 107.895 592.78 107.375 592.78C106.855 592.78 106.38 592.905 105.95 593.155C105.52 593.405 105.18 593.745 104.93 594.175C104.68 594.595 104.555 595.07 104.555 595.6V604H100.415L100.4 589H104.54L104.555 590.11C105.055 589.63 105.64 589.255 106.31 588.985C106.99 588.715 107.705 588.58 108.455 588.58C109.545 588.58 110.53 588.845 111.41 589.375C112.3 589.905 113.01 590.615 113.54 591.505C114.07 592.385 114.335 593.37 114.335 594.46ZM127.751 589H131.891V604H127.736L127.541 602.44C127.151 603.02 126.651 603.49 126.041 603.85C125.431 604.21 124.716 604.39 123.896 604.39C122.776 604.39 121.731 604.18 120.761 603.76C119.791 603.34 118.936 602.76 118.196 602.02C117.456 601.28 116.876 600.425 116.456 599.455C116.046 598.475 115.841 597.425 115.841 596.305C115.841 595.235 116.036 594.235 116.426 593.305C116.816 592.375 117.366 591.555 118.076 590.845C118.786 590.135 119.601 589.58 120.521 589.18C121.451 588.78 122.451 588.58 123.521 588.58C124.441 588.58 125.266 588.775 125.996 589.165C126.736 589.555 127.381 590.05 127.931 590.65L127.751 589ZM123.791 600.415C124.471 600.415 125.086 600.24 125.636 599.89C126.186 599.54 126.621 599.07 126.941 598.48C127.261 597.88 127.421 597.22 127.421 596.5C127.421 595.77 127.261 595.11 126.941 594.52C126.621 593.93 126.186 593.46 125.636 593.11C125.086 592.76 124.471 592.585 123.791 592.585C123.101 592.585 122.476 592.76 121.916 593.11C121.356 593.46 120.911 593.935 120.581 594.535C120.251 595.125 120.086 595.78 120.086 596.5C120.086 597.22 120.251 597.88 120.581 598.48C120.921 599.07 121.371 599.54 121.931 599.89C122.491 600.24 123.111 600.415 123.791 600.415ZM134.634 604V581.5H138.774V604H134.634ZM142.069 589H146.209V604H142.069V589ZM144.169 587.275C143.569 587.275 143.064 587.075 142.654 586.675C142.244 586.275 142.039 585.78 142.039 585.19C142.039 584.6 142.244 584.105 142.654 583.705C143.064 583.305 143.564 583.105 144.154 583.105C144.744 583.105 145.239 583.305 145.639 583.705C146.049 584.105 146.254 584.6 146.254 585.19C146.254 585.78 146.054 586.275 145.654 586.675C145.264 587.075 144.769 587.275 144.169 587.275ZM161.713 593.14L154.888 599.86H161.713V604H148.903V599.86L155.728 593.14H148.903V589H161.713V593.14ZM170.598 604.39C169.218 604.39 167.958 604.035 166.818 603.325C165.688 602.615 164.783 601.66 164.103 600.46C163.433 599.26 163.098 597.935 163.098 596.485C163.098 595.395 163.293 594.375 163.683 593.425C164.073 592.465 164.608 591.625 165.288 590.905C165.978 590.175 166.778 589.605 167.688 589.195C168.598 588.785 169.568 588.58 170.598 588.58C171.788 588.58 172.873 588.835 173.853 589.345C174.843 589.855 175.678 590.55 176.358 591.43C177.048 592.31 177.538 593.305 177.828 594.415C178.128 595.525 178.178 596.68 177.978 597.88H167.568C167.698 598.32 167.898 598.72 168.168 599.08C168.448 599.43 168.788 599.71 169.188 599.92C169.598 600.13 170.068 600.24 170.598 600.25C171.118 600.26 171.598 600.14 172.038 599.89C172.478 599.64 172.853 599.305 173.163 598.885L177.393 599.86C176.783 601.19 175.873 602.28 174.663 603.13C173.453 603.97 172.098 604.39 170.598 604.39ZM167.418 594.82H173.793C173.663 594.32 173.443 593.87 173.133 593.47C172.823 593.07 172.448 592.755 172.008 592.525C171.578 592.295 171.108 592.18 170.598 592.18C170.098 592.18 169.628 592.295 169.188 592.525C168.758 592.755 168.388 593.07 168.078 593.47C167.778 593.86 167.558 594.31 167.418 594.82ZM200.262 583H205.152L197.892 594.535V604H193.752V594.535L186.492 583H191.382L195.822 590.035L200.262 583ZM210.714 604.39C209.334 604.39 208.074 604.035 206.934 603.325C205.804 602.615 204.899 601.665 204.219 600.475C203.549 599.275 203.214 597.95 203.214 596.5C203.214 595.4 203.409 594.375 203.799 593.425C204.189 592.465 204.724 591.625 205.404 590.905C206.094 590.175 206.894 589.605 207.804 589.195C208.714 588.785 209.684 588.58 210.714 588.58C212.094 588.58 213.349 588.935 214.479 589.645C215.619 590.355 216.524 591.31 217.194 592.51C217.874 593.71 218.214 595.04 218.214 596.5C218.214 597.59 218.019 598.61 217.629 599.56C217.239 600.51 216.699 601.35 216.009 602.08C215.329 602.8 214.534 603.365 213.624 603.775C212.724 604.185 211.754 604.39 210.714 604.39ZM210.714 600.25C211.354 600.25 211.929 600.08 212.439 599.74C212.949 599.39 213.349 598.93 213.639 598.36C213.929 597.79 214.074 597.17 214.074 596.5C214.074 595.81 213.919 595.18 213.609 594.61C213.309 594.03 212.904 593.57 212.394 593.23C211.884 592.89 211.324 592.72 210.714 592.72C210.084 592.72 209.514 592.895 209.004 593.245C208.494 593.595 208.089 594.055 207.789 594.625C207.499 595.195 207.354 595.82 207.354 596.5C207.354 597.21 207.504 597.85 207.804 598.42C208.114 598.98 208.524 599.425 209.034 599.755C209.544 600.085 210.104 600.25 210.714 600.25ZM219.21 598.51V589H223.35V597.37C223.35 597.9 223.475 598.38 223.725 598.81C223.985 599.23 224.33 599.565 224.76 599.815C225.19 600.065 225.66 600.19 226.17 600.19C226.69 600.19 227.165 600.065 227.595 599.815C228.025 599.565 228.365 599.23 228.615 598.81C228.865 598.38 228.99 597.9 228.99 597.37V589H233.13L233.145 604H229.005L228.99 602.86C228.49 603.34 227.9 603.715 227.22 603.985C226.55 604.255 225.84 604.39 225.09 604.39C224.01 604.39 223.025 604.125 222.135 603.595C221.245 603.065 220.535 602.36 220.005 601.48C219.475 600.59 219.21 599.6 219.21 598.51ZM235.872 604L235.857 589H239.997L240.012 590.11C240.512 589.63 241.097 589.255 241.767 588.985C242.447 588.715 243.162 588.58 243.912 588.58C244.462 588.58 245.012 588.66 245.562 588.82L243.927 593.005C243.567 592.855 243.202 592.78 242.832 592.78C242.312 592.78 241.837 592.905 241.407 593.155C240.977 593.405 240.637 593.745 240.387 594.175C240.137 594.595 240.012 595.07 240.012 595.6V604H235.872ZM254.271 604L258.351 583H261.846L266.721 595.855L271.611 583H275.106L279.186 604H274.956L272.631 591.955L268.146 603.79H265.296L260.826 591.955L258.486 604H254.271ZM287.378 604.39C285.998 604.39 284.738 604.035 283.598 603.325C282.468 602.615 281.563 601.66 280.883 600.46C280.213 599.26 279.878 597.935 279.878 596.485C279.878 595.395 280.073 594.375 280.463 593.425C280.853 592.465 281.388 591.625 282.068 590.905C282.758 590.175 283.558 589.605 284.468 589.195C285.378 588.785 286.348 588.58 287.378 588.58C288.568 588.58 289.653 588.835 290.633 589.345C291.623 589.855 292.458 590.55 293.138 591.43C293.828 592.31 294.318 593.305 294.608 594.415C294.908 595.525 294.958 596.68 294.758 597.88H284.348C284.478 598.32 284.678 598.72 284.948 599.08C285.228 599.43 285.568 599.71 285.968 599.92C286.378 600.13 286.848 600.24 287.378 600.25C287.898 600.26 288.378 600.14 288.818 599.89C289.258 599.64 289.633 599.305 289.943 598.885L294.173 599.86C293.563 601.19 292.653 602.28 291.443 603.13C290.233 603.97 288.878 604.39 287.378 604.39ZM284.198 594.82H290.573C290.443 594.32 290.223 593.87 289.913 593.47C289.603 593.07 289.228 592.755 288.788 592.525C288.358 592.295 287.888 592.18 287.378 592.18C286.878 592.18 286.408 592.295 285.968 592.525C285.538 592.755 285.168 593.07 284.858 593.47C284.558 593.86 284.338 594.31 284.198 594.82ZM310.79 594.46V604H306.65V595.6C306.65 595.07 306.52 594.595 306.26 594.175C306.01 593.745 305.67 593.405 305.24 593.155C304.82 592.905 304.35 592.78 303.83 592.78C303.31 592.78 302.835 592.905 302.405 593.155C301.975 593.405 301.635 593.745 301.385 594.175C301.135 594.595 301.01 595.07 301.01 595.6V604H296.87L296.855 589H300.995L301.01 590.11C301.51 589.63 302.095 589.255 302.765 588.985C303.445 588.715 304.16 588.58 304.91 588.58C306 588.58 306.985 588.845 307.865 589.375C308.755 589.905 309.465 590.615 309.995 591.505C310.525 592.385 310.79 593.37 310.79 594.46ZM321.648 593.14H318.948V604H314.808V593.14H312.738V589H314.808V584.29H318.948V589H321.648V593.14ZM334.745 589H338.885V604H334.73L334.535 602.44C334.145 603.02 333.645 603.49 333.035 603.85C332.425 604.21 331.71 604.39 330.89 604.39C329.77 604.39 328.725 604.18 327.755 603.76C326.785 603.34 325.93 602.76 325.19 602.02C324.45 601.28 323.87 600.425 323.45 599.455C323.04 598.475 322.835 597.425 322.835 596.305C322.835 595.235 323.03 594.235 323.42 593.305C323.81 592.375 324.36 591.555 325.07 590.845C325.78 590.135 326.595 589.58 327.515 589.18C328.445 588.78 329.445 588.58 330.515 588.58C331.435 588.58 332.26 588.775 332.99 589.165C333.73 589.555 334.375 590.05 334.925 590.65L334.745 589ZM330.785 600.415C331.465 600.415 332.08 600.24 332.63 599.89C333.18 599.54 333.615 599.07 333.935 598.48C334.255 597.88 334.415 597.22 334.415 596.5C334.415 595.77 334.255 595.11 333.935 594.52C333.615 593.93 333.18 593.46 332.63 593.11C332.08 592.76 331.465 592.585 330.785 592.585C330.095 592.585 329.47 592.76 328.91 593.11C328.35 593.46 327.905 593.935 327.575 594.535C327.245 595.125 327.08 595.78 327.08 596.5C327.08 597.22 327.245 597.88 327.575 598.48C327.915 599.07 328.365 599.54 328.925 599.89C329.485 600.24 330.105 600.415 330.785 600.415ZM341.628 604V581.5H345.768V604H341.628ZM250.747 642L245.377 621H249.652L253.072 634.425L256.492 621H260.287L263.707 634.425L267.127 621H271.402L266.062 642H261.382L258.397 630.33L255.427 642H250.747ZM272.977 627H277.117V642H272.977V627ZM275.077 625.275C274.477 625.275 273.972 625.075 273.562 624.675C273.152 624.275 272.947 623.78 272.947 623.19C272.947 622.6 273.152 622.105 273.562 621.705C273.972 621.305 274.472 621.105 275.062 621.105C275.652 621.105 276.147 621.305 276.547 621.705C276.957 622.105 277.162 622.6 277.162 623.19C277.162 623.78 276.962 624.275 276.562 624.675C276.172 625.075 275.677 625.275 275.077 625.275ZM288.572 631.14H285.872V642H281.732V631.14H279.662V627H281.732V622.29H285.872V627H288.572V631.14ZM304.916 632.46V642H300.776V633.6C300.776 633.07 300.646 632.595 300.386 632.175C300.136 631.745 299.796 631.405 299.366 631.155C298.946 630.905 298.476 630.78 297.956 630.78C297.436 630.78 296.961 630.905 296.531 631.155C296.101 631.405 295.761 631.745 295.511 632.175C295.261 632.595 295.136 633.07 295.136 633.6V642H290.996L290.981 619.5H295.121L295.136 628.11C295.636 627.63 296.221 627.255 296.891 626.985C297.571 626.715 298.286 626.58 299.036 626.58C300.126 626.58 301.111 626.845 301.991 627.375C302.881 627.905 303.591 628.615 304.121 629.505C304.651 630.385 304.916 631.37 304.916 632.46ZM115.284 680V659H119.754L127.944 672.515V659H132.084V680H127.614L119.424 666.485V680H115.284ZM141.681 680.39C140.301 680.39 139.041 680.035 137.901 679.325C136.771 678.615 135.866 677.66 135.186 676.46C134.516 675.26 134.181 673.935 134.181 672.485C134.181 671.395 134.376 670.375 134.766 669.425C135.156 668.465 135.691 667.625 136.371 666.905C137.061 666.175 137.861 665.605 138.771 665.195C139.681 664.785 140.651 664.58 141.681 664.58C142.871 664.58 143.956 664.835 144.936 665.345C145.926 665.855 146.761 666.55 147.441 667.43C148.131 668.31 148.621 669.305 148.911 670.415C149.211 671.525 149.261 672.68 149.061 673.88H138.651C138.781 674.32 138.981 674.72 139.251 675.08C139.531 675.43 139.871 675.71 140.271 675.92C140.681 676.13 141.151 676.24 141.681 676.25C142.201 676.26 142.681 676.14 143.121 675.89C143.561 675.64 143.936 675.305 144.246 674.885L148.476 675.86C147.866 677.19 146.956 678.28 145.746 679.13C144.536 679.97 143.181 680.39 141.681 680.39ZM138.501 670.82H144.876C144.746 670.32 144.526 669.87 144.216 669.47C143.906 669.07 143.531 668.755 143.091 668.525C142.661 668.295 142.191 668.18 141.681 668.18C141.181 668.18 140.711 668.295 140.271 668.525C139.841 668.755 139.471 669.07 139.161 669.47C138.861 669.86 138.641 670.31 138.501 670.82ZM149.269 680L154.759 672.47L149.329 665H154.429L157.294 668.93L160.189 665H165.304L159.859 672.47L165.349 680H160.249L157.294 675.98L154.369 680H149.269ZM167.456 674.51V665H171.596V673.37C171.596 673.9 171.721 674.38 171.971 674.81C172.231 675.23 172.576 675.565 173.006 675.815C173.436 676.065 173.906 676.19 174.416 676.19C174.936 676.19 175.411 676.065 175.841 675.815C176.271 675.565 176.611 675.23 176.861 674.81C177.111 674.38 177.236 673.9 177.236 673.37V665H181.376L181.391 680H177.251L177.236 678.86C176.736 679.34 176.146 679.715 175.466 679.985C174.796 680.255 174.086 680.39 173.336 680.39C172.256 680.39 171.271 680.125 170.381 679.595C169.491 679.065 168.781 678.36 168.251 677.48C167.721 676.59 167.456 675.6 167.456 674.51ZM188.468 680.27C187.698 680.21 186.958 680.05 186.248 679.79C185.538 679.52 184.903 679.16 184.343 678.71C183.793 678.25 183.363 677.7 183.053 677.06L186.533 675.56C186.643 675.72 186.808 675.895 187.028 676.085C187.248 676.265 187.513 676.425 187.823 676.565C188.143 676.705 188.513 676.775 188.933 676.775C189.243 676.775 189.543 676.74 189.833 676.67C190.123 676.59 190.358 676.465 190.538 676.295C190.718 676.115 190.808 675.88 190.808 675.59C190.808 675.27 190.693 675.025 190.463 674.855C190.233 674.685 189.953 674.56 189.623 674.48C189.303 674.39 188.993 674.315 188.693 674.255C187.773 674.095 186.903 673.81 186.083 673.4C185.273 672.98 184.613 672.44 184.103 671.78C183.593 671.12 183.338 670.33 183.338 669.41C183.338 668.4 183.603 667.53 184.133 666.8C184.663 666.06 185.353 665.49 186.203 665.09C187.053 664.69 187.973 664.49 188.963 664.49C190.133 664.49 191.218 664.735 192.218 665.225C193.218 665.715 194.023 666.405 194.633 667.295L191.363 669.23C191.233 669.04 191.063 668.86 190.853 668.69C190.653 668.51 190.418 668.36 190.148 668.24C189.888 668.11 189.608 668.035 189.308 668.015C188.918 667.985 188.563 668.01 188.243 668.09C187.923 668.16 187.668 668.295 187.478 668.495C187.298 668.695 187.208 668.965 187.208 669.305C187.208 669.635 187.353 669.88 187.643 670.04C187.933 670.19 188.268 670.305 188.648 670.385C189.028 670.455 189.363 670.54 189.653 670.64C190.523 670.92 191.338 671.28 192.098 671.72C192.868 672.15 193.488 672.68 193.958 673.31C194.428 673.94 194.648 674.68 194.618 675.53C194.618 676.52 194.323 677.39 193.733 678.14C193.143 678.88 192.378 679.445 191.438 679.835C190.508 680.215 189.518 680.36 188.468 680.27ZM208.99 659H213.13V680H208.99V670.82H201.01V680H196.87V659H201.01V666.68H208.99V659ZM216.433 665H220.573V680H216.433V665ZM218.533 663.275C217.933 663.275 217.428 663.075 217.018 662.675C216.608 662.275 216.403 661.78 216.403 661.19C216.403 660.6 216.608 660.105 217.018 659.705C217.428 659.305 217.928 659.105 218.518 659.105C219.108 659.105 219.603 659.305 220.003 659.705C220.413 660.105 220.618 660.6 220.618 661.19C220.618 661.78 220.418 662.275 220.018 662.675C219.628 663.075 219.133 663.275 218.533 663.275ZM233.226 680H227.871L222.411 665H226.821L230.541 675.245L234.261 665H238.686L233.226 680ZM246.544 680.39C245.164 680.39 243.904 680.035 242.764 679.325C241.634 678.615 240.729 677.66 240.049 676.46C239.379 675.26 239.044 673.935 239.044 672.485C239.044 671.395 239.239 670.375 239.629 669.425C240.019 668.465 240.554 667.625 241.234 666.905C241.924 666.175 242.724 665.605 243.634 665.195C244.544 664.785 245.514 664.58 246.544 664.58C247.734 664.58 248.819 664.835 249.799 665.345C250.789 665.855 251.624 666.55 252.304 667.43C252.994 668.31 253.484 669.305 253.774 670.415C254.074 671.525 254.124 672.68 253.924 673.88H243.514C243.644 674.32 243.844 674.72 244.114 675.08C244.394 675.43 244.734 675.71 245.134 675.92C245.544 676.13 246.014 676.24 246.544 676.25C247.064 676.26 247.544 676.14 247.984 675.89C248.424 675.64 248.799 675.305 249.109 674.885L253.339 675.86C252.729 677.19 251.819 678.28 250.609 679.13C249.399 679.97 248.044 680.39 246.544 680.39ZM243.364 670.82H249.739C249.609 670.32 249.389 669.87 249.079 669.47C248.769 669.07 248.394 668.755 247.954 668.525C247.524 668.295 247.054 668.18 246.544 668.18C246.044 668.18 245.574 668.295 245.134 668.525C244.704 668.755 244.334 669.07 244.024 669.47C243.724 669.86 243.504 670.31 243.364 670.82ZM257.623 680.39C257.043 680.39 256.548 680.19 256.138 679.79C255.738 679.38 255.538 678.88 255.538 678.29C255.538 677.72 255.738 677.23 256.138 676.82C256.548 676.41 257.043 676.205 257.623 676.205C258.203 676.205 258.698 676.41 259.108 676.82C259.518 677.23 259.723 677.72 259.723 678.29C259.723 678.88 259.518 679.38 259.108 679.79C258.698 680.19 258.203 680.39 257.623 680.39Z" fill="white"/>
<path d="M83.1057 621H87.2457V642H83.1057V632.82H75.1257V642H70.9857V621H75.1257V628.68H83.1057V621ZM96.8561 642.39C95.4761 642.39 94.2161 642.035 93.0761 641.325C91.9461 640.615 91.0411 639.66 90.3611 638.46C89.6911 637.26 89.3561 635.935 89.3561 634.485C89.3561 633.395 89.5511 632.375 89.9411 631.425C90.3311 630.465 90.8661 629.625 91.5461 628.905C92.2361 628.175 93.0361 627.605 93.9461 627.195C94.8561 626.785 95.8261 626.58 96.8561 626.58C98.0461 626.58 99.1311 626.835 100.111 627.345C101.101 627.855 101.936 628.55 102.616 629.43C103.306 630.31 103.796 631.305 104.086 632.415C104.386 633.525 104.436 634.68 104.236 635.88H93.8261C93.9561 636.32 94.1561 636.72 94.4261 637.08C94.7061 637.43 95.0461 637.71 95.4461 637.92C95.8561 638.13 96.3261 638.24 96.8561 638.25C97.3761 638.26 97.8561 638.14 98.2961 637.89C98.7361 637.64 99.1111 637.305 99.4211 636.885L103.651 637.86C103.041 639.19 102.131 640.28 100.921 641.13C99.7111 641.97 98.3561 642.39 96.8561 642.39ZM93.6761 632.82H100.051C99.9211 632.32 99.7011 631.87 99.3911 631.47C99.0811 631.07 98.7061 630.755 98.2661 630.525C97.8361 630.295 97.3661 630.18 96.8561 630.18C96.3561 630.18 95.8861 630.295 95.4461 630.525C95.0161 630.755 94.6461 631.07 94.3361 631.47C94.0361 631.86 93.8161 632.31 93.6761 632.82ZM117.46 627H121.6V642H117.445L117.25 640.44C116.86 641.02 116.36 641.49 115.75 641.85C115.14 642.21 114.425 642.39 113.605 642.39C112.485 642.39 111.44 642.18 110.47 641.76C109.5 641.34 108.645 640.76 107.905 640.02C107.165 639.28 106.585 638.425 106.165 637.455C105.755 636.475 105.55 635.425 105.55 634.305C105.55 633.235 105.745 632.235 106.135 631.305C106.525 630.375 107.075 629.555 107.785 628.845C108.495 628.135 109.31 627.58 110.23 627.18C111.16 626.78 112.16 626.58 113.23 626.58C114.15 626.58 114.975 626.775 115.705 627.165C116.445 627.555 117.09 628.05 117.64 628.65L117.46 627ZM113.5 638.415C114.18 638.415 114.795 638.24 115.345 637.89C115.895 637.54 116.33 637.07 116.65 636.48C116.97 635.88 117.13 635.22 117.13 634.5C117.13 633.77 116.97 633.11 116.65 632.52C116.33 631.93 115.895 631.46 115.345 631.11C114.795 630.76 114.18 630.585 113.5 630.585C112.81 630.585 112.185 630.76 111.625 631.11C111.065 631.46 110.62 631.935 110.29 632.535C109.96 633.125 109.795 633.78 109.795 634.5C109.795 635.22 109.96 635.88 110.29 636.48C110.63 637.07 111.08 637.54 111.64 637.89C112.2 638.24 112.82 638.415 113.5 638.415ZM124.344 642V619.5H128.484V642H124.344ZM139.938 631.14H137.238V642H133.098V631.14H131.028V627H133.098V622.29H137.238V627H139.938V631.14ZM156.282 632.46V642H152.142V633.6C152.142 633.07 152.012 632.595 151.752 632.175C151.502 631.745 151.162 631.405 150.732 631.155C150.312 630.905 149.842 630.78 149.322 630.78C148.802 630.78 148.327 630.905 147.897 631.155C147.467 631.405 147.127 631.745 146.877 632.175C146.627 632.595 146.502 633.07 146.502 633.6V642H142.362L142.347 619.5H146.487L146.502 628.11C147.002 627.63 147.587 627.255 148.257 626.985C148.937 626.715 149.652 626.58 150.402 626.58C151.492 626.58 152.477 626.845 153.357 627.375C154.247 627.905 154.957 628.615 155.487 629.505C156.017 630.385 156.282 631.37 156.282 632.46ZM173.523 642.39C172.343 642.39 171.213 642.205 170.133 641.835C169.063 641.465 168.123 640.93 167.313 640.23C166.513 639.53 165.938 638.7 165.588 637.74L169.473 636.3C169.593 636.64 169.843 636.96 170.223 637.26C170.603 637.55 171.078 637.79 171.648 637.98C172.218 638.16 172.843 638.25 173.523 638.25C174.173 638.25 174.783 638.155 175.353 637.965C175.933 637.765 176.398 637.49 176.748 637.14C177.108 636.79 177.288 636.38 177.288 635.91C177.288 635.44 177.103 635.05 176.733 634.74C176.363 634.43 175.888 634.185 175.308 634.005C174.728 633.815 174.133 633.67 173.523 633.57C172.013 633.35 170.658 632.995 169.458 632.505C168.268 632.005 167.328 631.32 166.638 630.45C165.948 629.57 165.603 628.455 165.603 627.105C165.603 625.805 165.968 624.67 166.698 623.7C167.438 622.73 168.408 621.975 169.608 621.435C170.818 620.895 172.123 620.625 173.523 620.625C174.683 620.625 175.803 620.81 176.883 621.18C177.963 621.55 178.903 622.085 179.703 622.785C180.513 623.485 181.093 624.325 181.443 625.305L177.558 626.715C177.438 626.375 177.188 626.06 176.808 625.77C176.428 625.48 175.953 625.245 175.383 625.065C174.813 624.885 174.193 624.795 173.523 624.795C172.883 624.785 172.273 624.88 171.693 625.08C171.123 625.28 170.653 625.555 170.283 625.905C169.923 626.255 169.743 626.655 169.743 627.105C169.743 627.695 169.913 628.14 170.253 628.44C170.603 628.74 171.063 628.955 171.633 629.085C172.203 629.215 172.833 629.33 173.523 629.43C174.943 629.64 176.253 630.015 177.453 630.555C178.653 631.085 179.613 631.795 180.333 632.685C181.063 633.565 181.428 634.64 181.428 635.91C181.428 637.21 181.063 638.345 180.333 639.315C179.603 640.285 178.638 641.04 177.438 641.58C176.238 642.12 174.933 642.39 173.523 642.39ZM192.205 631.14H189.505V642H185.365V631.14H183.295V627H185.365V622.29H189.505V627H192.205V631.14ZM205.302 627H209.442V642H205.287L205.092 640.44C204.702 641.02 204.202 641.49 203.592 641.85C202.982 642.21 202.267 642.39 201.447 642.39C200.327 642.39 199.282 642.18 198.312 641.76C197.342 641.34 196.487 640.76 195.747 640.02C195.007 639.28 194.427 638.425 194.007 637.455C193.597 636.475 193.392 635.425 193.392 634.305C193.392 633.235 193.587 632.235 193.977 631.305C194.367 630.375 194.917 629.555 195.627 628.845C196.337 628.135 197.152 627.58 198.072 627.18C199.002 626.78 200.002 626.58 201.072 626.58C201.992 626.58 202.817 626.775 203.547 627.165C204.287 627.555 204.932 628.05 205.482 628.65L205.302 627ZM201.342 638.415C202.022 638.415 202.637 638.24 203.187 637.89C203.737 637.54 204.172 637.07 204.492 636.48C204.812 635.88 204.972 635.22 204.972 634.5C204.972 633.77 204.812 633.11 204.492 632.52C204.172 631.93 203.737 631.46 203.187 631.11C202.637 630.76 202.022 630.585 201.342 630.585C200.652 630.585 200.027 630.76 199.467 631.11C198.907 631.46 198.462 631.935 198.132 632.535C197.802 633.125 197.637 633.78 197.637 634.5C197.637 635.22 197.802 635.88 198.132 636.48C198.472 637.07 198.922 637.54 199.482 637.89C200.042 638.24 200.662 638.415 201.342 638.415ZM220.316 631.14H217.616V642H213.476V631.14H211.406V627H213.476V622.29H217.616V627H220.316V631.14ZM229.003 642.39C227.623 642.39 226.363 642.035 225.223 641.325C224.093 640.615 223.188 639.66 222.508 638.46C221.838 637.26 221.503 635.935 221.503 634.485C221.503 633.395 221.698 632.375 222.088 631.425C222.478 630.465 223.013 629.625 223.693 628.905C224.383 628.175 225.183 627.605 226.093 627.195C227.003 626.785 227.973 626.58 229.003 626.58C230.193 626.58 231.278 626.835 232.258 627.345C233.248 627.855 234.083 628.55 234.763 629.43C235.453 630.31 235.943 631.305 236.233 632.415C236.533 633.525 236.583 634.68 236.383 635.88H225.973C226.103 636.32 226.303 636.72 226.573 637.08C226.853 637.43 227.193 637.71 227.593 637.92C228.003 638.13 228.473 638.24 229.003 638.25C229.523 638.26 230.003 638.14 230.443 637.89C230.883 637.64 231.258 637.305 231.568 636.885L235.798 637.86C235.188 639.19 234.278 640.28 233.068 641.13C231.858 641.97 230.503 642.39 229.003 642.39ZM225.823 632.82H232.198C232.068 632.32 231.848 631.87 231.538 631.47C231.228 631.07 230.853 630.755 230.413 630.525C229.983 630.295 229.513 630.18 229.003 630.18C228.503 630.18 228.033 630.295 227.593 630.525C227.163 630.755 226.793 631.07 226.483 631.47C226.183 631.86 225.963 632.31 225.823 632.82Z" fill="#9BB168"/>
</g>
<rect x="140.5" y="60.5" width="95" height="39" rx="19.5" stroke="white"/>
<path d="M159.246 85.708C158.627 85.708 158.033 85.612 157.462 85.42C156.897 85.2227 156.401 84.9427 155.974 84.58C155.547 84.212 155.241 83.772 155.054 83.26L156.886 82.588C156.961 82.8013 157.113 82.996 157.342 83.172C157.571 83.348 157.851 83.4893 158.182 83.596C158.513 83.7027 158.867 83.756 159.246 83.756C159.635 83.756 159.998 83.6973 160.334 83.58C160.675 83.4573 160.95 83.2893 161.158 83.076C161.366 82.8573 161.47 82.604 161.47 82.316C161.47 82.0227 161.361 81.7827 161.142 81.596C160.923 81.404 160.643 81.252 160.302 81.14C159.961 81.028 159.609 80.9427 159.246 80.884C158.451 80.7613 157.739 80.572 157.11 80.316C156.481 80.06 155.982 79.7053 155.614 79.252C155.251 78.7987 155.07 78.212 155.07 77.492C155.07 76.8147 155.265 76.2227 155.654 75.716C156.043 75.2093 156.555 74.8147 157.19 74.532C157.825 74.2493 158.51 74.108 159.246 74.108C159.859 74.108 160.451 74.204 161.022 74.396C161.593 74.588 162.091 74.868 162.518 75.236C162.95 75.604 163.259 76.0467 163.446 76.564L161.606 77.228C161.531 77.0147 161.379 76.82 161.15 76.644C160.921 76.468 160.641 76.3293 160.31 76.228C159.979 76.1213 159.625 76.068 159.246 76.068C158.867 76.0627 158.507 76.124 158.166 76.252C157.83 76.3747 157.555 76.5427 157.342 76.756C157.129 76.9693 157.022 77.2147 157.022 77.492C157.022 77.8493 157.121 78.1187 157.318 78.3C157.521 78.4813 157.79 78.6147 158.126 78.7C158.462 78.78 158.835 78.8547 159.246 78.924C159.993 79.0413 160.683 79.2387 161.318 79.516C161.953 79.7933 162.462 80.164 162.846 80.628C163.23 81.0867 163.422 81.6493 163.422 82.316C163.422 82.9933 163.23 83.588 162.846 84.1C162.462 84.6067 161.953 85.0013 161.318 85.284C160.683 85.5667 159.993 85.708 159.246 85.708ZM169.251 79.452H167.699V85.5H165.747V79.452H164.563V77.5H165.747V74.988H167.699V77.5H169.251V79.452ZM173.982 85.708C173.246 85.708 172.574 85.5187 171.966 85.14C171.363 84.7613 170.88 84.252 170.518 83.612C170.16 82.972 169.982 82.2653 169.982 81.492C169.982 80.9107 170.086 80.3667 170.294 79.86C170.502 79.348 170.787 78.9 171.15 78.516C171.518 78.1267 171.944 77.8227 172.43 77.604C172.915 77.3853 173.432 77.276 173.982 77.276C174.606 77.276 175.176 77.4093 175.694 77.676C176.216 77.9373 176.659 78.2973 177.022 78.756C177.384 79.2147 177.648 79.7373 177.814 80.324C177.979 80.9107 178.016 81.524 177.926 82.164H172.078C172.152 82.4627 172.275 82.732 172.446 82.972C172.616 83.2067 172.832 83.396 173.094 83.54C173.355 83.6787 173.651 83.7507 173.982 83.756C174.323 83.7613 174.632 83.6813 174.91 83.516C175.192 83.3453 175.427 83.116 175.614 82.828L177.606 83.292C177.28 84.0013 176.795 84.5827 176.15 85.036C175.504 85.484 174.782 85.708 173.982 85.708ZM172.014 80.7H175.95C175.891 80.38 175.766 80.092 175.574 79.836C175.387 79.5747 175.155 79.3667 174.878 79.212C174.6 79.0573 174.302 78.98 173.982 78.98C173.662 78.98 173.366 79.0573 173.094 79.212C172.822 79.3613 172.59 79.5667 172.398 79.828C172.211 80.084 172.083 80.3747 172.014 80.7ZM181.131 89.5H179.179V77.5H181.131V78.516C181.393 78.1533 181.713 77.86 182.091 77.636C182.475 77.4067 182.923 77.292 183.435 77.292C184.022 77.292 184.569 77.4013 185.075 77.62C185.582 77.8387 186.027 78.1427 186.411 78.532C186.801 78.916 187.102 79.3613 187.315 79.868C187.534 80.3747 187.643 80.9187 187.643 81.5C187.643 82.0813 187.534 82.628 187.315 83.14C187.102 83.652 186.801 84.1027 186.411 84.492C186.027 84.876 185.582 85.1773 185.075 85.396C184.569 85.6147 184.022 85.724 183.435 85.724C182.923 85.724 182.475 85.612 182.091 85.388C181.713 85.1587 181.393 84.8627 181.131 84.5V89.5ZM183.411 79.172C183.006 79.172 182.643 79.2787 182.323 79.492C182.003 79.7 181.753 79.98 181.571 80.332C181.39 80.684 181.299 81.0733 181.299 81.5C181.299 81.9267 181.39 82.3187 181.571 82.676C181.753 83.028 182.003 83.3107 182.323 83.524C182.643 83.732 183.006 83.836 183.411 83.836C183.822 83.836 184.198 83.732 184.539 83.524C184.881 83.316 185.153 83.036 185.355 82.684C185.558 82.3267 185.659 81.932 185.659 81.5C185.659 81.0733 185.558 80.684 185.355 80.332C185.153 79.98 184.881 79.7 184.539 79.492C184.203 79.2787 183.827 79.172 183.411 79.172ZM198.033 85.708C197.276 85.708 196.564 85.5587 195.897 85.26C195.231 84.956 194.644 84.5373 194.137 84.004C193.631 83.4707 193.233 82.8547 192.945 82.156C192.657 81.452 192.513 80.7 192.513 79.9C192.513 79.1 192.657 78.3507 192.945 77.652C193.233 76.948 193.631 76.3293 194.137 75.796C194.644 75.2627 195.231 74.8467 195.897 74.548C196.564 74.244 197.276 74.092 198.033 74.092C198.796 74.092 199.511 74.244 200.177 74.548C200.844 74.8467 201.431 75.2627 201.937 75.796C202.444 76.3293 202.839 76.948 203.121 77.652C203.409 78.3507 203.553 79.1 203.553 79.9C203.553 80.7 203.409 81.452 203.121 82.156C202.839 82.8547 202.444 83.4707 201.937 84.004C201.431 84.5373 200.844 84.956 200.177 85.26C199.511 85.5587 198.796 85.708 198.033 85.708ZM198.033 83.756C198.524 83.756 198.985 83.6547 199.417 83.452C199.849 83.2493 200.228 82.972 200.553 82.62C200.884 82.2627 201.14 81.852 201.321 81.388C201.508 80.924 201.601 80.428 201.601 79.9C201.601 79.372 201.508 78.876 201.321 78.412C201.135 77.9427 200.876 77.532 200.545 77.18C200.22 76.828 199.841 76.5507 199.409 76.348C198.983 76.1453 198.524 76.044 198.033 76.044C197.543 76.044 197.081 76.1453 196.649 76.348C196.217 76.5507 195.836 76.8307 195.505 77.188C195.18 77.54 194.924 77.948 194.737 78.412C194.556 78.876 194.465 79.372 194.465 79.9C194.465 80.4333 194.559 80.932 194.745 81.396C194.932 81.86 195.188 82.2707 195.513 82.628C195.844 82.98 196.223 83.2573 196.649 83.46C197.081 83.6573 197.543 83.756 198.033 83.756ZM212.363 80.444V85.5H210.411V80.956C210.411 80.6413 210.334 80.356 210.179 80.1C210.025 79.8387 209.817 79.6333 209.555 79.484C209.299 79.3293 209.014 79.252 208.699 79.252C208.385 79.252 208.097 79.3293 207.835 79.484C207.579 79.6333 207.374 79.8387 207.219 80.1C207.07 80.356 206.995 80.6413 206.995 80.956V85.5H205.043L205.035 77.5H206.987L206.995 78.212C207.267 77.924 207.593 77.6973 207.971 77.532C208.35 77.3613 208.758 77.276 209.195 77.276C209.777 77.276 210.307 77.42 210.787 77.708C211.267 77.9907 211.649 78.372 211.931 78.852C212.219 79.3267 212.363 79.8573 212.363 80.444ZM217.273 85.708C216.537 85.708 215.865 85.5187 215.257 85.14C214.654 84.7613 214.172 84.252 213.809 83.612C213.452 82.972 213.273 82.2653 213.273 81.492C213.273 80.9107 213.377 80.3667 213.585 79.86C213.793 79.348 214.078 78.9 214.441 78.516C214.809 78.1267 215.236 77.8227 215.721 77.604C216.206 77.3853 216.724 77.276 217.273 77.276C217.897 77.276 218.468 77.4093 218.985 77.676C219.508 77.9373 219.95 78.2973 220.313 78.756C220.676 79.2147 220.94 79.7373 221.105 80.324C221.27 80.9107 221.308 81.524 221.217 82.164H215.369C215.444 82.4627 215.566 82.732 215.737 82.972C215.908 83.2067 216.124 83.396 216.385 83.54C216.646 83.6787 216.942 83.7507 217.273 83.756C217.614 83.7613 217.924 83.6813 218.201 83.516C218.484 83.3453 218.718 83.116 218.905 82.828L220.897 83.292C220.572 84.0013 220.086 84.5827 219.441 85.036C218.796 85.484 218.073 85.708 217.273 85.708ZM215.305 80.7H219.241C219.182 80.38 219.057 80.092 218.865 79.836C218.678 79.5747 218.446 79.3667 218.169 79.212C217.892 79.0573 217.593 78.98 217.273 78.98C216.953 78.98 216.657 79.0573 216.385 79.212C216.113 79.3613 215.881 79.5667 215.689 79.828C215.502 80.084 215.374 80.3747 215.305 80.7Z" fill="white"/>
</g>
<defs>
<filter id="filter0_ddddd_4_2104" x="-403" y="88" width="1180" height="1365" filterUnits="userSpaceOnUse" color-interpolation-filters="sRGB">
<feFlood flood-opacity="0" result="BackgroundImageFix"/>
<feColorMatrix in="SourceAlpha" type="matrix" values="0 0 0 0 0 0 0 0 0 0 0 0 0 0 0 0 0 0 127 0" result="hardAlpha"/>
<feOffset/>
<feColorMatrix type="matrix" values="0 0 0 0 0.294118 0 0 0 0 0.203922 0 0 0 0 0.145098 0 0 0 0.05 0"/>
<feBlend mode="normal" in2="BackgroundImageFix" result="effect1_dropShadow_4_2104"/>
<feColorMatrix in="SourceAlpha" type="matrix" values="0 0 0 0 0 0 0 0 0 0 0 0 0 0 0 0 0 0 127 0" result="hardAlpha"/>
<feOffset dy="-17"/>
<feGaussianBlur stdDeviation="19"/>
<feColorMatrix type="matrix" values="0 0 0 0 0.294118 0 0 0 0 0.203922 0 0 0 0 0.145098 0 0 0 0.05 0"/>
<feBlend mode="normal" in2="effect1_dropShadow_4_2104" result="effect2_dropShadow_4_2104"/>
<feColorMatrix in="SourceAlpha" type="matrix" values="0 0 0 0 0 0 0 0 0 0 0 0 0 0 0 0 0 0 127 0" result="hardAlpha"/>
<feOffset dy="-69"/>
<feGaussianBlur stdDeviation="34.5"/>
<feColorMatrix type="matrix" values="0 0 0 0 0.294118 0 0 0 0 0.203922 0 0 0 0 0.145098 0 0 0 0.04 0"/>
<feBlend mode="normal" in2="effect2_dropShadow_4_2104" result="effect3_dropShadow_4_2104"/>
<feColorMatrix in="SourceAlpha" type="matrix" values="0 0 0 0 0 0 0 0 0 0 0 0 0 0 0 0 0 0 127 0" result="hardAlpha"/>
<feOffset dy="-154"/>
<feGaussianBlur stdDeviation="46.5"/>
<feColorMatrix type="matrix" values="0 0 0 0 0.294118 0 0 0 0 0.203922 0 0 0 0 0.145098 0 0 0 0.03 0"/>
<feBlend mode="normal" in2="effect3_dropShadow_4_2104" result="effect4_dropShadow_4_2104"/>
<feColorMatrix in="SourceAlpha" type="matrix" values="0 0 0 0 0 0 0 0 0 0 0 0 0 0 0 0 0 0 127 0" result="hardAlpha"/>
<feOffset dy="-274"/>
<feGaussianBlur stdDeviation="55"/>
<feColorMatrix type="matrix" values="0 0 0 0 0.294118 0 0 0 0 0.203922 0 0 0 0 0.145098 0 0 0 0.01 0"/>
<feBlend mode="normal" in2="effect4_dropShadow_4_2104" result="effect5_dropShadow_4_2104"/>
<feBlend mode="normal" in="SourceGraphic" in2="effect5_dropShadow_4_2104" result="shape"/>
</filter>
<clipPath id="clip0_4_2104">
<rect width="375" height="812" fill="white"/>
</clipPath>
</defs>
</svg>
