<svg width="375" height="812" viewBox="0 0 375 812" fill="none" xmlns="http://www.w3.org/2000/svg">
<g clip-path="url(#clip0_4_2441)">
<rect width="375" height="812" fill="#705600"/>
<path d="M219.382 1C200.426 3.9141 181.354 6.56852 161.966 8.38623C107.434 13.6662 56.3656 28.6118 6.22002 52.3574C-66.0554 86.4898 -133.31 128.499 -208.5 153.803V311.741C-129.502 272.213 -71.1623 205.449 -3.47443 147.34C118.86 41.7974 279.886 54.1174 429.486 17.1862C446.595 12.8007 462.983 7.26098 478.91 1L219.382 1Z" fill="#A37A00"/>
<path d="M406.634 105.129C327.434 140.3 248.234 167.565 166.38 194.831C94.22 219.442 36.14 264.308 -26.3256 312.664C-82.2705 355.222 -138.244 401.761 -208.5 407.877V529H-170.703C-148.689 493.742 -111.498 470.228 -72.98 455.138C-37.78 441.952 -3.47443 429.632 29.9656 410.301C38.7656 405.915 45.8056 398.875 54.6056 392.701C98.6056 364.57 137.326 340.824 181.326 312.664C206.86 296.824 229.74 282.773 257.006 275.733C340.62 252.882 407.471 208.016 481.42 165.805C513.677 147.455 548.213 137.818 583.5 134.298V75.7857C522.939 73.8237 462.81 79.7673 406.634 105.129Z" fill="#A37A00"/>
<path d="M420.715 396.221C367.915 426.112 308.075 425.246 252.649 444.578C226.249 454.243 192.636 460.648 159.138 486.327C143.327 498.445 134.296 514.545 121.168 529H583.5V326.802C576.806 327.321 570.055 328.158 563.246 329.37C508.715 338.17 467.34 370.715 420.715 396.221Z" fill="#A37A00"/>
<path d="M309.648 410.591C317.79 419.556 330.381 411.917 334.294 402.889C337.387 395.787 337.955 387.612 339.028 380.036C340.258 371.513 341.363 362.99 342.373 354.468C346.065 323.06 350.357 290.232 343.004 259.013C341.395 252.258 334.61 223.029 322.397 230.51C320.819 231.488 322.271 233.982 323.849 233.003C335.02 226.185 342.467 270.945 343.099 277.037C344.74 293.041 344.014 309.203 342.625 325.206C341.079 342.662 339.028 360.086 336.566 377.416C335.493 385.023 334.957 393.167 332.243 400.396C329.403 408.003 319.147 416.747 311.731 408.571C310.437 407.182 308.418 409.203 309.648 410.591Z" fill="#FFBD1A"/>
<path d="M-5.76301 331.204C-12.9264 316.747 -11.5379 300.396 -7.43552 285.245C-3.45935 270.567 2.59958 256.141 9.98389 242.852C24.4054 216.937 47.7575 194.115 78.3361 190.232C80.1664 190.011 80.1664 187.107 78.3361 187.36C46.6846 191.4 22.4804 214.506 7.49089 241.432C-0.524562 255.826 -7.15151 271.703 -11.033 287.707C-14.6936 302.732 -15.2616 318.546 -8.22444 332.688C-7.43552 334.329 -4.94253 332.846 -5.76301 331.204Z" fill="#FFBD1A"/>
<path d="M567.973 356.046C555.918 355.225 543.264 354.183 534.049 355.257C514.137 357.561 495.518 366.178 476.174 371.387C456.293 376.721 435.655 378.489 415.143 380.194C400.185 381.456 385.227 382.719 370.237 382.719C356.51 382.75 342.783 381.772 329.119 380.541C307.439 378.615 285.349 376.564 263.196 373.817C213.115 367.63 162.877 357.971 117.151 338.653C106.043 333.95 95.0611 328.931 84.2371 323.596C33.2412 298.47 -14.4098 266.4 -57.0116 228.489C-73.0425 214.222 -88.3476 199.165 -102.864 183.319L-102.927 183.256C-105.83 180.068 -102.359 175.143 -98.4458 176.88L-77.1449 186.318C-73.7683 187.801 -69.729 187.328 -67.0151 184.803C-63.7332 181.741 -64.8692 177.921 -66.1631 174.575C-70.3917 163.59 -76.2613 153.269 -80.2059 142.189C-82.4149 135.939 -84.0874 126.122 -84.3714 116.747C-84.5292 111.476 -77.3973 109.929 -75.4408 114.79C-71.7486 123.944 -61.7767 140.895 -52.6252 152.7C-51.1104 154.657 -48.1441 152.637 -49.3432 150.459C-57.1378 136.507 -65.8475 118.389 -66.4786 108.288C-66.668 105.163 -64.459 102.29 -61.3664 102.006C-57.4218 101.627 -55.7177 105.983 -54.5817 109.487C-50.3846 122.271 -43.663 134.487 -32.9968 142.473C-37.9196 134.866 -43.2528 124.197 -45.9351 115.453C-47.4498 110.529 -41.0122 107.183 -38.0143 111.318C-34.8586 115.674 -31.8607 122.176 -29.7149 125.933C-17.4708 147.271 -1.28209 166.274 17.7783 181.614C29.5174 191.084 42.298 199.133 55.0154 207.183C78.8093 222.176 106.359 236.097 134.381 246.671C150.349 252.637 166.443 257.561 182.064 261.002C203.775 265.768 225.928 268.799 248.27 270.756C282.383 273.754 316.875 274.291 350.767 274.764C398.134 275.427 446.857 275.522 491.069 258.224C500.283 254.626 518.555 248.218 534.996 244.272C539.887 243.104 542.222 250.175 537.615 252.227C524.771 258.003 510.003 264.222 497.822 268.578C496.055 269.209 494.666 270.693 494.351 272.555C493.625 276.879 500.378 275.996 504.701 274.891L557.685 261.381C563.271 259.96 566.963 267.062 562.671 270.945C560.21 273.155 557.149 275.017 554.277 276.311C543.327 281.235 526.097 286.949 511.17 292.378C506.342 294.146 508.236 301.501 513.285 300.585C528.022 297.965 549.512 291.652 567.531 286.728C573.148 285.181 576.462 292.883 571.57 296.071C559.011 304.184 545.82 310.749 532.03 316.368C515.525 323.123 518.807 336.854 530.42 338.843C537.016 339.979 543.201 340.579 547.272 340.61C553.173 340.673 562.261 342.41 570.213 345.535C575.957 347.839 574.032 356.456 567.973 356.046Z" fill="#FFDB8F"/>
<path d="M142.838 287.139C149.402 307.341 169.851 313.117 185.408 306.394C201.597 299.765 214.22 284.519 223.371 268.105C207.814 266.179 190.994 264.948 175.815 261.002C164.833 258.161 153.599 254.279 142.365 249.639C138.957 261.791 139.619 275.049 142.838 287.139Z" fill="#FFDB8F"/>
<path d="M265.153 379.973C264.49 377.953 263.828 375.901 263.165 373.818C257.422 355.794 251.994 336.539 250.668 317.915C249.248 297.966 248.522 282.562 248.238 270.756C244.231 270.409 227.316 268.515 223.34 268.073C212.611 284.487 206.646 297.587 187.618 304.184C169.346 310.907 150.98 307.309 143.28 287.107C139.493 275.017 138.704 261.76 142.744 249.639C139.935 248.66 137.158 247.65 134.35 246.608C118.003 260.213 105.254 278.142 95.7871 297.019C91.4322 305.668 87.5823 314.538 84.2057 323.597C69.8158 361.949 63.5044 403.363 61.8634 444.02C59.5913 500.49 62.1159 558.35 72.0879 614L421.675 600.553C354.68 537.233 294.185 469.272 265.153 379.973Z" fill="#FFBD1A"/>
<path d="M189.29 217.884C182.632 211.507 183.074 199.512 190.174 193.515C194.055 190.232 199.357 188.717 202.86 185.087C210.97 176.69 205.416 163.307 205.574 151.848C205.7 140.737 212.989 130.984 222.141 124.197C238.771 111.792 249.722 118.641 263.039 113.938C294.817 102.732 289.483 85.024 302.201 71.7033C314.918 58.4142 334.42 53.4269 353.039 53.3953C366.861 53.3953 379.831 60.7185 393.653 60.3082C409.778 59.8347 411.072 41.6845 441.872 39.9168C463.299 38.7173 484.063 50.2703 494.035 68.673C504.039 87.0758 498.863 117.537 481.412 129.816C468.695 138.749 442.913 142.505 427.419 140.611C411.198 138.622 401.731 126.343 388.288 135.434C372.857 145.851 372.478 169.336 357.678 180.541C346.096 189.317 329.813 187.644 315.265 185.939C300.749 184.235 284.087 183.572 273.547 193.515C266.384 200.302 262.944 211.349 253.572 214.695C240.444 219.367 225.044 205.352 212.926 212.17C209.676 214.001 207.372 217.094 204.343 219.272C201.313 221.45 196.738 222.524 193.992 220.062L189.29 217.884Z" fill="#2E2500"/>
<path d="M191.973 198.439C200.461 191.873 202.165 180.983 201.376 170.819C200.272 156.362 195.917 141.148 207.404 129.5C225.36 111.318 254.771 116.369 274.557 101.343C285.413 93.1047 288.852 79.4368 297.941 69.6831C307.281 59.6452 320.378 53.269 334.073 52.2904C356.826 50.6806 388.572 63.7172 405.676 41.716C410.977 34.8662 413.912 19.1466 401.984 17.1579C398.292 16.5582 393.81 18.0418 392.296 21.7349C390.749 25.5228 394.883 27.9849 398.228 26.9117C399.996 26.3435 399.238 23.5657 397.471 24.1339C396.714 23.5342 395.988 22.9029 395.231 22.3031C396.019 21.1983 397.061 20.5039 398.355 20.1567C399.743 19.7147 401.416 19.7779 402.773 20.2829C406.181 21.5455 407.569 25.365 407.601 28.7109C407.664 34.3612 404.382 39.6326 400.248 43.2627C392.043 50.4281 380.367 52.2273 369.859 51.8169C356.857 51.3119 343.919 48.0922 330.886 49.702C321.324 50.9015 312.11 54.5947 304.315 60.245C296.016 66.274 290.462 74.0075 285.476 82.8775C282.478 88.1805 279.417 93.452 274.778 97.4608C270.202 101.406 264.743 104.121 259.094 106.141C240.854 112.707 218.449 113.086 204.501 128.363C196.548 137.107 195.822 148.06 197.148 159.329C198.536 171.356 201.724 187.328 190.552 195.914C189.069 197.05 190.489 199.544 191.973 198.439Z" fill="#2E2500"/>
<path d="M235.269 208.698C244.767 213.37 256.033 212.738 264.648 206.394C269.319 202.953 272.948 198.06 278.06 195.188C285.223 191.179 293.428 192.505 301.033 194.462C313.056 197.524 324.48 200.87 337.04 199.26C347.674 197.903 357.078 193.231 364.273 185.213C371.847 176.754 377.022 165.927 386.395 159.203C397.755 151.059 412.682 151.848 425.715 154.531C448.53 159.172 476.521 171.04 495.739 151.249C500.915 145.914 509.151 130.857 499.368 126.186C496.181 124.67 491.952 124.828 489.807 127.953C487.787 130.92 488.481 134.992 491.605 136.76C493.215 137.675 494.666 135.182 493.057 134.266C488.702 131.804 493.72 127.48 497.033 128.364C499.021 128.9 500.252 130.194 500.662 132.404C501.072 134.74 500.41 137.549 499.652 139.727C497.917 144.936 494.161 149.355 489.807 152.606C480.876 159.266 469.926 160.371 459.133 159.045C438.274 156.457 417.51 145.567 396.177 151.438C377.401 156.615 371.721 175.238 358.341 187.076C350.23 194.241 339.501 196.956 328.866 196.829C318.011 196.672 308.26 192.852 297.751 190.706C287.243 188.559 278.533 190.106 270.518 197.334C266.068 201.312 262.092 205.605 256.286 207.593C249.816 209.803 242.842 209.203 236.752 206.204C235.048 205.384 233.596 207.877 235.269 208.698Z" fill="#2E2500"/>
<path d="M83.764 337.359C72.6875 325.996 54.2267 327.479 38.7007 330.825C23.1747 334.171 5.97622 338.338 -7.71948 330.32C-8.66618 326.564 -5.28959 322.997 -1.72366 321.482C1.87382 319.967 5.9131 319.588 9.22657 317.536C20.0506 310.781 15.3486 292.599 24.1214 283.319C31.1902 275.87 44.9174 276.564 50.0612 267.663C56.1517 257.12 45.1383 241.021 53.8796 232.562C56.1201 230.384 59.2127 229.374 61.9897 228.016C76.6637 220.914 84.2373 201.911 78.5255 186.634C85.2156 186.413 91.2745 190.958 95.0929 196.451C98.9113 201.943 101.026 208.414 103.771 214.506C109.514 227.164 123.494 237.959 134.35 246.64C135.77 247.776 132.078 249.449 132.709 251.154C133.308 252.795 132.993 254.594 132.646 256.299C129.206 274.039 125.703 291.905 118.887 308.635C112.071 325.364 101.562 341.053 86.6041 351.217L83.764 337.359Z" fill="#FFBD1A"/>
<path d="M241.043 277.132C262.376 253.269 292.418 236.507 324.89 230.352C313.782 239.38 301.664 250.775 303.368 264.506C303.873 268.515 305.577 272.461 305.104 276.501C303.684 288.654 283.866 294.525 285.16 306.678C286.012 314.758 296.394 320.251 295.826 328.363C295.258 336.318 284.182 341.81 285.728 349.638C286.706 354.594 292.386 357.372 295.132 361.696C299.171 368.041 296.268 376.122 296.836 383.477C297.593 393.641 307.092 408.95 317.569 411.349C286.359 412.296 254.076 389.632 238.929 363.938C223.75 338.243 225.202 304.594 242.526 280.131L241.043 277.132Z" fill="#FFBD1A"/>
<path d="M270.518 393.83C248.712 379.626 227.379 363.969 221.699 336.98C216.334 311.539 227.001 285.213 247.986 270.061C249.09 269.241 248.017 267.378 246.881 268.199C225.991 283.287 214.851 308.887 219.017 334.455C223.75 363.559 246.187 380.604 269.413 395.692C270.612 396.45 271.685 394.588 270.518 393.83Z" fill="#2E2500"/>
<path d="M80.8607 337.927C92.5368 304.91 110.082 272.966 134.223 247.397C135.17 246.387 133.655 244.841 132.677 245.882C108.284 271.766 90.5803 303.994 78.778 337.359C78.3046 338.654 80.3874 339.222 80.8607 337.927Z" fill="#2E2500"/>
<path d="M64.5458 317.347C66.881 317.22 68.9637 317.852 70.8887 319.177C72.0248 319.967 73.1293 318.104 71.9932 317.315C69.8158 315.8 67.2281 315.042 64.5773 315.2C63.1573 315.232 63.1573 317.41 64.5458 317.347Z" fill="#2E2500"/>
<path d="M70.7623 301.217C73.1922 303.584 75.7799 305.731 78.5253 307.688C79.6614 308.508 80.7343 306.614 79.6298 305.825C77.0106 303.963 74.5807 301.911 72.3086 299.67C71.2672 298.723 69.7525 300.238 70.7623 301.217Z" fill="#2E2500"/>
<path d="M102.824 256.709C106.043 258.13 109.293 259.519 112.512 260.939C113.774 261.476 114.879 259.613 113.616 259.077C110.398 257.656 107.147 256.267 103.929 254.847C102.666 254.31 101.562 256.173 102.824 256.709Z" fill="#2E2500"/>
<path d="M112.102 250.365C113.017 253.174 114.879 255.51 117.467 256.93C118.697 257.593 119.77 255.731 118.571 255.068C116.488 253.9 114.942 252.069 114.185 249.797C113.775 248.471 111.692 249.039 112.102 250.365Z" fill="#2E2500"/>
<path d="M116.93 239.601C118.287 243.042 120.465 245.851 123.431 248.029C124.567 248.85 125.64 246.987 124.535 246.167C122.074 244.336 120.149 241.874 119.045 239.033C118.508 237.739 116.394 238.307 116.93 239.601Z" fill="#2E2500"/>
<path d="M238.866 286.097C241.801 285.371 244.736 284.645 247.67 283.919C249.027 283.571 248.459 281.488 247.102 281.835C244.168 282.561 241.233 283.287 238.298 284.013C236.941 284.329 237.509 286.412 238.866 286.097Z" fill="#2E2500"/>
<path d="M234.606 297.745C237.856 297.334 241.012 297.587 244.168 298.565C245.493 298.976 246.061 296.892 244.736 296.482C241.422 295.44 238.045 295.156 234.606 295.566C233.249 295.756 233.217 297.934 234.606 297.745Z" fill="#2E2500"/>
<path d="M227.821 344.651C230.061 346.987 232.302 349.323 234.542 351.69C235.521 352.7 237.035 351.153 236.089 350.175C233.848 347.839 231.608 345.503 229.367 343.136C228.389 342.094 226.874 343.641 227.821 344.651Z" fill="#2E2500"/>
<path d="M228.389 339.159C231.355 339.695 234.322 340.232 237.288 340.8C238.645 341.053 239.244 338.969 237.856 338.717C234.89 338.18 231.923 337.644 228.957 337.075C227.6 336.823 227 338.906 228.389 339.159Z" fill="#2E2500"/>
<path d="M227.222 329.91C229.841 331.33 232.649 332.088 235.584 332.151C236.973 332.183 236.973 330.036 235.584 329.973C232.997 329.91 230.567 329.247 228.295 328.016C227.064 327.385 225.991 329.247 227.222 329.91Z" fill="#2E2500"/>
<path d="M200.493 185.592C201.755 169.273 188.754 157.404 185.756 142.158C182.442 125.333 196.075 118.989 207.025 109.992C217.407 101.47 219.932 88.5593 220.153 75.5543C220.247 69.3359 219.048 62.0442 213.936 57.846C210.433 54.9735 204.942 54.0897 201.313 57.2462C198.126 60.024 197.4 65.9899 201.313 68.5467C204.816 70.8194 209.613 68.9255 210.686 64.9798C211.191 63.1806 208.382 62.423 207.909 64.2222C206.615 68.9571 200.808 65.8005 201.66 61.9811C202.67 57.4672 207.814 57.6882 210.907 59.4558C215.325 61.9495 216.776 67.3157 217.186 72.0821C217.754 79.0896 216.587 86.8548 214.788 93.6729C211.664 105.542 200.777 110.371 192.099 117.694C183.547 124.954 180.549 134.519 183.547 145.409C187.365 159.203 198.757 170.661 197.59 185.655C197.463 187.454 200.335 187.454 200.493 185.592Z" fill="#2E2500"/>
<path d="M217.471 152.575C219.743 140.801 228.358 131.362 239.939 128.174C241.738 127.669 240.98 124.891 239.182 125.397C226.685 128.837 217.155 139.064 214.694 151.817C214.346 153.648 217.123 154.405 217.471 152.575Z" fill="#251404"/>
<path d="M281.436 120.788C288.094 116.621 294.974 112.202 298.918 105.163C301.127 101.248 302.611 96.9871 305.104 93.2308C307.881 89.0642 311.32 85.5288 315.202 82.4038C316.653 81.2359 314.602 79.2157 313.151 80.3521C306.713 85.4973 301.979 91.8104 298.54 99.2914C294.469 108.193 288.094 113.212 279.953 118.294C278.406 119.272 279.858 121.766 281.436 120.788Z" fill="#251404"/>
<path d="M333.095 73.1236C344.928 63.9696 360.234 68.6413 372.983 72.9027C374.75 73.5024 375.507 70.6931 373.74 70.1249C359.729 65.4848 343.824 61.1918 331.043 71.1034C329.56 72.2082 331.643 74.2284 333.095 73.1236Z" fill="#251404"/>
<path d="M193.803 271.924L207.057 185.024C207.057 185.024 164.076 193.989 156.503 226.185L174.395 227.827L155.619 258.035C148.74 269.115 153.946 283.761 166.285 287.991C166.506 288.054 166.695 288.149 166.916 288.212C179.003 292.284 191.878 284.519 193.803 271.924Z" fill="#FFDB8F"/>
<path d="M214.031 224.512C209.581 227.038 203.932 225.459 201.408 221.009C198.883 216.558 200.461 210.908 204.911 208.382C209.36 205.857 215.009 207.435 217.533 211.886C220.026 216.337 218.48 221.987 214.031 224.512Z" fill="#FFDB8F"/>
<path d="M205.447 218.105C208.792 217.473 212.137 216.873 215.482 216.305C216.839 216.084 216.271 214.001 214.914 214.222C211.569 214.79 208.224 215.39 204.879 216.021C203.522 216.274 204.09 218.357 205.447 218.105Z" fill="#2E2500"/>
<path d="M174.364 227.827L156.692 256.33L187.649 228.111L174.364 227.827Z" fill="#2E2500"/>
<path d="M168.936 209.582C168.936 209.582 180.517 212.612 190.268 213.37C190.268 213.37 172.092 223.313 162.277 219.683L168.936 209.582Z" fill="white"/>
<path d="M185.945 192.253C180.233 194.241 174.427 196.735 169.22 199.797C168.557 200.176 168.463 201.312 169.22 201.659C171.366 202.701 173.48 203.711 175.626 204.753C176.888 205.352 177.961 203.49 176.731 202.89C174.585 201.848 172.47 200.838 170.325 199.797C170.325 200.428 170.325 201.028 170.325 201.659C175.374 198.692 180.991 196.293 186.513 194.336C187.839 193.894 187.271 191.811 185.945 192.253Z" fill="#2E2500"/>
<path d="M189.732 204.594C192.225 202.921 196.738 205.131 197.968 207.53C198.6 208.761 200.461 207.688 199.83 206.425C198.063 203.016 192.067 200.365 188.628 202.7C187.492 203.49 188.596 205.384 189.732 204.594Z" fill="#2E2500"/>
<g filter="url(#filter0_ddddd_4_2441)">
<rect x="-293" y="472" width="960" height="960" rx="480" fill="#251404"/>
<rect x="97.5" y="542" width="180" height="8" rx="4" fill="#4F3422"/>
<rect width="118.688" height="8" rx="4" transform="matrix(1 0 0 -1 97.5 550)" fill="#926247"/>
<path d="M33.1518 604L37.2318 583H40.7268L45.6018 595.855L50.4918 583H53.9868L58.0668 604H53.8368L51.5118 591.955L47.0268 603.79H44.1768L39.7068 591.955L37.3668 604H33.1518ZM60.6838 589H64.8238V604H60.6838V589ZM62.7838 587.275C62.1838 587.275 61.6788 587.075 61.2688 586.675C60.8588 586.275 60.6538 585.78 60.6538 585.19C60.6538 584.6 60.8588 584.105 61.2688 583.705C61.6788 583.305 62.1788 583.105 62.7688 583.105C63.3588 583.105 63.8538 583.305 64.2538 583.705C64.6638 584.105 64.8688 584.6 64.8688 585.19C64.8688 585.78 64.6688 586.275 64.2688 586.675C63.8788 587.075 63.3838 587.275 62.7838 587.275ZM81.9067 594.46V604H77.7667V595.6C77.7667 595.07 77.6367 594.595 77.3767 594.175C77.1267 593.745 76.7867 593.405 76.3567 593.155C75.9367 592.905 75.4667 592.78 74.9467 592.78C74.4267 592.78 73.9517 592.905 73.5217 593.155C73.0917 593.405 72.7517 593.745 72.5017 594.175C72.2517 594.595 72.1267 595.07 72.1267 595.6V604H67.9867L67.9717 589H72.1117L72.1267 590.11C72.6267 589.63 73.2117 589.255 73.8817 588.985C74.5617 588.715 75.2767 588.58 76.0267 588.58C77.1167 588.58 78.1017 588.845 78.9817 589.375C79.8717 589.905 80.5817 590.615 81.1117 591.505C81.6417 592.385 81.9067 593.37 81.9067 594.46ZM95.3373 581.5H99.4773V604H95.3373V602.41C94.8773 602.99 94.3073 603.465 93.6273 603.835C92.9473 604.205 92.1723 604.39 91.3023 604.39C90.2123 604.39 89.1923 604.185 88.2423 603.775C87.2923 603.365 86.4523 602.8 85.7223 602.08C85.0023 601.35 84.4373 600.51 84.0273 599.56C83.6173 598.61 83.4123 597.59 83.4123 596.5C83.4123 595.41 83.6173 594.39 84.0273 593.44C84.4373 592.49 85.0023 591.655 85.7223 590.935C86.4523 590.205 87.2923 589.635 88.2423 589.225C89.1923 588.815 90.2123 588.61 91.3023 588.61C92.1723 588.61 92.9473 588.795 93.6273 589.165C94.3073 589.525 94.8773 590 95.3373 590.59V581.5ZM91.3623 600.415C92.0423 600.415 92.6573 600.24 93.2073 599.89C93.7573 599.54 94.1923 599.07 94.5123 598.48C94.8323 597.88 94.9923 597.22 94.9923 596.5C94.9923 595.77 94.8323 595.11 94.5123 594.52C94.1923 593.93 93.7573 593.46 93.2073 593.11C92.6573 592.76 92.0423 592.585 91.3623 592.585C90.6723 592.585 90.0473 592.76 89.4873 593.11C88.9273 593.46 88.4823 593.935 88.1523 594.535C87.8223 595.125 87.6573 595.78 87.6573 596.5C87.6573 597.22 87.8223 597.88 88.1523 598.48C88.4923 599.07 88.9423 599.54 89.5023 599.89C90.0623 600.24 90.6823 600.415 91.3623 600.415ZM107.382 586.09V589H111.357V593.14H107.382V604H103.242V593.14H101.742V589H103.242V586.09C103.242 585.18 103.467 584.355 103.917 583.615C104.367 582.865 104.967 582.265 105.717 581.815C106.477 581.365 107.312 581.14 108.222 581.14C108.892 581.14 109.552 581.28 110.202 581.56C110.852 581.83 111.432 582.255 111.942 582.835L108.972 585.76C108.902 585.6 108.797 585.48 108.657 585.4C108.517 585.32 108.372 585.28 108.222 585.28C107.992 585.28 107.792 585.36 107.622 585.52C107.462 585.67 107.382 585.86 107.382 586.09ZM113.171 598.51V589H117.311V597.37C117.311 597.9 117.436 598.38 117.686 598.81C117.946 599.23 118.291 599.565 118.721 599.815C119.151 600.065 119.621 600.19 120.131 600.19C120.651 600.19 121.126 600.065 121.556 599.815C121.986 599.565 122.326 599.23 122.576 598.81C122.826 598.38 122.951 597.9 122.951 597.37V589H127.091L127.106 604H122.966L122.951 602.86C122.451 603.34 121.861 603.715 121.181 603.985C120.511 604.255 119.801 604.39 119.051 604.39C117.971 604.39 116.986 604.125 116.096 603.595C115.206 603.065 114.496 602.36 113.966 601.48C113.436 600.59 113.171 599.6 113.171 598.51ZM129.848 604V581.5H133.988V604H129.848ZM297.978 583V587.14H291.798V604H287.658V587.14H281.478V583H297.978ZM314.609 594.46V604H310.469V595.6C310.469 595.07 310.339 594.595 310.079 594.175C309.829 593.745 309.489 593.405 309.059 593.155C308.639 592.905 308.169 592.78 307.649 592.78C307.129 592.78 306.654 592.905 306.224 593.155C305.794 593.405 305.454 593.745 305.204 594.175C304.954 594.595 304.829 595.07 304.829 595.6V604H300.689L300.674 581.5H304.814L304.829 590.11C305.329 589.63 305.914 589.255 306.584 588.985C307.264 588.715 307.979 588.58 308.729 588.58C309.819 588.58 310.804 588.845 311.684 589.375C312.574 589.905 313.284 590.615 313.814 591.505C314.344 592.385 314.609 593.37 314.609 594.46ZM328.025 589H332.165V604H328.01L327.815 602.44C327.425 603.02 326.925 603.49 326.315 603.85C325.705 604.21 324.99 604.39 324.17 604.39C323.05 604.39 322.005 604.18 321.035 603.76C320.065 603.34 319.21 602.76 318.47 602.02C317.73 601.28 317.15 600.425 316.73 599.455C316.32 598.475 316.115 597.425 316.115 596.305C316.115 595.235 316.31 594.235 316.7 593.305C317.09 592.375 317.64 591.555 318.35 590.845C319.06 590.135 319.875 589.58 320.795 589.18C321.725 588.78 322.725 588.58 323.795 588.58C324.715 588.58 325.54 588.775 326.27 589.165C327.01 589.555 327.655 590.05 328.205 590.65L328.025 589ZM324.065 600.415C324.745 600.415 325.36 600.24 325.91 599.89C326.46 599.54 326.895 599.07 327.215 598.48C327.535 597.88 327.695 597.22 327.695 596.5C327.695 595.77 327.535 595.11 327.215 594.52C326.895 593.93 326.46 593.46 325.91 593.11C325.36 592.76 324.745 592.585 324.065 592.585C323.375 592.585 322.75 592.76 322.19 593.11C321.63 593.46 321.185 593.935 320.855 594.535C320.525 595.125 320.36 595.78 320.36 596.5C320.36 597.22 320.525 597.88 320.855 598.48C321.195 599.07 321.645 599.54 322.205 599.89C322.765 600.24 323.385 600.415 324.065 600.415ZM343.039 593.14H340.339V604H336.199V593.14H334.129V589H336.199V584.29H340.339V589H343.039V593.14ZM69.1002 642L73.1802 621H76.6752L81.5502 633.855L86.4402 621H89.9352L94.0152 642H89.7852L87.4602 629.955L82.9752 641.79H80.1252L75.6552 629.955L73.3152 642H69.1002ZM106.617 627H110.757V642H106.602L106.407 640.44C106.017 641.02 105.517 641.49 104.907 641.85C104.297 642.21 103.582 642.39 102.762 642.39C101.642 642.39 100.597 642.18 99.6268 641.76C98.6568 641.34 97.8018 640.76 97.0618 640.02C96.3218 639.28 95.7418 638.425 95.3218 637.455C94.9118 636.475 94.7068 635.425 94.7068 634.305C94.7068 633.235 94.9018 632.235 95.2918 631.305C95.6818 630.375 96.2318 629.555 96.9418 628.845C97.6518 628.135 98.4668 627.58 99.3868 627.18C100.317 626.78 101.317 626.58 102.387 626.58C103.307 626.58 104.132 626.775 104.862 627.165C105.602 627.555 106.247 628.05 106.797 628.65L106.617 627ZM102.657 638.415C103.337 638.415 103.952 638.24 104.502 637.89C105.052 637.54 105.487 637.07 105.807 636.48C106.127 635.88 106.287 635.22 106.287 634.5C106.287 633.77 106.127 633.11 105.807 632.52C105.487 631.93 105.052 631.46 104.502 631.11C103.952 630.76 103.337 630.585 102.657 630.585C101.967 630.585 101.342 630.76 100.782 631.11C100.222 631.46 99.7768 631.935 99.4468 632.535C99.1168 633.125 98.9518 633.78 98.9518 634.5C98.9518 635.22 99.1168 635.88 99.4468 636.48C99.7868 637.07 100.237 637.54 100.797 637.89C101.357 638.24 101.977 638.415 102.657 638.415ZM127.42 642H122.65L119.47 636.525L117.64 638.7V642H113.5V619.5H117.64V632.265L122.05 627H127.45L122.305 633.165L127.42 642ZM134.947 642.39C133.567 642.39 132.307 642.035 131.167 641.325C130.037 640.615 129.132 639.66 128.452 638.46C127.782 637.26 127.447 635.935 127.447 634.485C127.447 633.395 127.642 632.375 128.032 631.425C128.422 630.465 128.957 629.625 129.637 628.905C130.327 628.175 131.127 627.605 132.037 627.195C132.947 626.785 133.917 626.58 134.947 626.58C136.137 626.58 137.222 626.835 138.202 627.345C139.192 627.855 140.027 628.55 140.707 629.43C141.397 630.31 141.887 631.305 142.177 632.415C142.477 633.525 142.527 634.68 142.327 635.88H131.917C132.047 636.32 132.247 636.72 132.517 637.08C132.797 637.43 133.137 637.71 133.537 637.92C133.947 638.13 134.417 638.24 134.947 638.25C135.467 638.26 135.947 638.14 136.387 637.89C136.827 637.64 137.202 637.305 137.512 636.885L141.742 637.86C141.132 639.19 140.222 640.28 139.012 641.13C137.802 641.97 136.447 642.39 134.947 642.39ZM131.767 632.82H138.142C138.012 632.32 137.792 631.87 137.482 631.47C137.172 631.07 136.797 630.755 136.357 630.525C135.927 630.295 135.457 630.18 134.947 630.18C134.447 630.18 133.977 630.295 133.537 630.525C133.107 630.755 132.737 631.07 132.427 631.47C132.127 631.86 131.907 632.31 131.767 632.82ZM148.906 642.27C148.136 642.21 147.396 642.05 146.686 641.79C145.976 641.52 145.341 641.16 144.781 640.71C144.231 640.25 143.801 639.7 143.491 639.06L146.971 637.56C147.081 637.72 147.246 637.895 147.466 638.085C147.686 638.265 147.951 638.425 148.261 638.565C148.581 638.705 148.951 638.775 149.371 638.775C149.681 638.775 149.981 638.74 150.271 638.67C150.561 638.59 150.796 638.465 150.976 638.295C151.156 638.115 151.246 637.88 151.246 637.59C151.246 637.27 151.131 637.025 150.901 636.855C150.671 636.685 150.391 636.56 150.061 636.48C149.741 636.39 149.431 636.315 149.131 636.255C148.211 636.095 147.341 635.81 146.521 635.4C145.711 634.98 145.051 634.44 144.541 633.78C144.031 633.12 143.776 632.33 143.776 631.41C143.776 630.4 144.041 629.53 144.571 628.8C145.101 628.06 145.791 627.49 146.641 627.09C147.491 626.69 148.411 626.49 149.401 626.49C150.571 626.49 151.656 626.735 152.656 627.225C153.656 627.715 154.461 628.405 155.071 629.295L151.801 631.23C151.671 631.04 151.501 630.86 151.291 630.69C151.091 630.51 150.856 630.36 150.586 630.24C150.326 630.11 150.046 630.035 149.746 630.015C149.356 629.985 149.001 630.01 148.681 630.09C148.361 630.16 148.106 630.295 147.916 630.495C147.736 630.695 147.646 630.965 147.646 631.305C147.646 631.635 147.791 631.88 148.081 632.04C148.371 632.19 148.706 632.305 149.086 632.385C149.466 632.455 149.801 632.54 150.091 632.64C150.961 632.92 151.776 633.28 152.536 633.72C153.306 634.15 153.926 634.68 154.396 635.31C154.866 635.94 155.086 636.68 155.056 637.53C155.056 638.52 154.761 639.39 154.171 640.14C153.581 640.88 152.816 641.445 151.876 641.835C150.946 642.215 149.956 642.36 148.906 642.27ZM177.084 621H181.974L174.714 632.535V642H170.574V632.535L163.314 621H168.204L172.644 628.035L177.084 621ZM187.536 642.39C186.156 642.39 184.896 642.035 183.756 641.325C182.626 640.615 181.721 639.665 181.041 638.475C180.371 637.275 180.036 635.95 180.036 634.5C180.036 633.4 180.231 632.375 180.621 631.425C181.011 630.465 181.546 629.625 182.226 628.905C182.916 628.175 183.716 627.605 184.626 627.195C185.536 626.785 186.506 626.58 187.536 626.58C188.916 626.58 190.171 626.935 191.301 627.645C192.441 628.355 193.346 629.31 194.016 630.51C194.696 631.71 195.036 633.04 195.036 634.5C195.036 635.59 194.841 636.61 194.451 637.56C194.061 638.51 193.521 639.35 192.831 640.08C192.151 640.8 191.356 641.365 190.446 641.775C189.546 642.185 188.576 642.39 187.536 642.39ZM187.536 638.25C188.176 638.25 188.751 638.08 189.261 637.74C189.771 637.39 190.171 636.93 190.461 636.36C190.751 635.79 190.896 635.17 190.896 634.5C190.896 633.81 190.741 633.18 190.431 632.61C190.131 632.03 189.726 631.57 189.216 631.23C188.706 630.89 188.146 630.72 187.536 630.72C186.906 630.72 186.336 630.895 185.826 631.245C185.316 631.595 184.911 632.055 184.611 632.625C184.321 633.195 184.176 633.82 184.176 634.5C184.176 635.21 184.326 635.85 184.626 636.42C184.936 636.98 185.346 637.425 185.856 637.755C186.366 638.085 186.926 638.25 187.536 638.25ZM196.032 636.51V627H200.172V635.37C200.172 635.9 200.297 636.38 200.547 636.81C200.807 637.23 201.152 637.565 201.582 637.815C202.012 638.065 202.482 638.19 202.992 638.19C203.512 638.19 203.987 638.065 204.417 637.815C204.847 637.565 205.187 637.23 205.437 636.81C205.687 636.38 205.812 635.9 205.812 635.37V627H209.952L209.967 642H205.827L205.812 640.86C205.312 641.34 204.722 641.715 204.042 641.985C203.372 642.255 202.662 642.39 201.912 642.39C200.832 642.39 199.847 642.125 198.957 641.595C198.067 641.065 197.357 640.36 196.827 639.48C196.297 638.59 196.032 637.6 196.032 636.51ZM231.707 621H235.847V642H231.707V632.82H223.727V642H219.587V621H223.727V628.68H231.707V621ZM249.867 627H254.007V642H249.852L249.657 640.44C249.267 641.02 248.767 641.49 248.157 641.85C247.547 642.21 246.832 642.39 246.012 642.39C244.892 642.39 243.847 642.18 242.877 641.76C241.907 641.34 241.052 640.76 240.312 640.02C239.572 639.28 238.992 638.425 238.572 637.455C238.162 636.475 237.957 635.425 237.957 634.305C237.957 633.235 238.152 632.235 238.542 631.305C238.932 630.375 239.482 629.555 240.192 628.845C240.902 628.135 241.717 627.58 242.637 627.18C243.567 626.78 244.567 626.58 245.637 626.58C246.557 626.58 247.382 626.775 248.112 627.165C248.852 627.555 249.497 628.05 250.047 628.65L249.867 627ZM245.907 638.415C246.587 638.415 247.202 638.24 247.752 637.89C248.302 637.54 248.737 637.07 249.057 636.48C249.377 635.88 249.537 635.22 249.537 634.5C249.537 633.77 249.377 633.11 249.057 632.52C248.737 631.93 248.302 631.46 247.752 631.11C247.202 630.76 246.587 630.585 245.907 630.585C245.217 630.585 244.592 630.76 244.032 631.11C243.472 631.46 243.027 631.935 242.697 632.535C242.367 633.125 242.202 633.78 242.202 634.5C242.202 635.22 242.367 635.88 242.697 636.48C243.037 637.07 243.487 637.54 244.047 637.89C244.607 638.24 245.227 638.415 245.907 638.415ZM260.861 649.5H256.721V627H260.861V628.62C261.341 628.03 261.911 627.55 262.571 627.18C263.231 626.8 264.001 626.61 264.881 626.61C265.971 626.61 266.991 626.815 267.941 627.225C268.901 627.635 269.741 628.205 270.461 628.935C271.181 629.655 271.746 630.49 272.156 631.44C272.566 632.39 272.771 633.41 272.771 634.5C272.771 635.59 272.566 636.615 272.156 637.575C271.746 638.535 271.181 639.38 270.461 640.11C269.741 640.83 268.901 641.395 267.941 641.805C266.991 642.215 265.971 642.42 264.881 642.42C264.001 642.42 263.231 642.23 262.571 641.85C261.911 641.47 261.341 640.99 260.861 640.41V649.5ZM264.821 630.585C264.141 630.585 263.526 630.765 262.976 631.125C262.436 631.475 262.006 631.945 261.686 632.535C261.376 633.125 261.221 633.78 261.221 634.5C261.221 635.22 261.376 635.88 261.686 636.48C262.006 637.07 262.436 637.54 262.976 637.89C263.526 638.24 264.141 638.415 264.821 638.415C265.501 638.415 266.121 638.24 266.681 637.89C267.251 637.54 267.701 637.07 268.031 636.48C268.371 635.89 268.541 635.23 268.541 634.5C268.541 633.79 268.376 633.14 268.046 632.55C267.716 631.95 267.266 631.475 266.696 631.125C266.136 630.765 265.511 630.585 264.821 630.585ZM278.901 649.5H274.761V627H278.901V628.62C279.381 628.03 279.951 627.55 280.611 627.18C281.271 626.8 282.041 626.61 282.921 626.61C284.011 626.61 285.031 626.815 285.981 627.225C286.941 627.635 287.781 628.205 288.501 628.935C289.221 629.655 289.786 630.49 290.196 631.44C290.606 632.39 290.811 633.41 290.811 634.5C290.811 635.59 290.606 636.615 290.196 637.575C289.786 638.535 289.221 639.38 288.501 640.11C287.781 640.83 286.941 641.395 285.981 641.805C285.031 642.215 284.011 642.42 282.921 642.42C282.041 642.42 281.271 642.23 280.611 641.85C279.951 641.47 279.381 640.99 278.901 640.41V649.5ZM282.861 630.585C282.181 630.585 281.566 630.765 281.016 631.125C280.476 631.475 280.046 631.945 279.726 632.535C279.416 633.125 279.261 633.78 279.261 634.5C279.261 635.22 279.416 635.88 279.726 636.48C280.046 637.07 280.476 637.54 281.016 637.89C281.566 638.24 282.181 638.415 282.861 638.415C283.541 638.415 284.161 638.24 284.721 637.89C285.291 637.54 285.741 637.07 286.071 636.48C286.411 635.89 286.581 635.23 286.581 634.5C286.581 633.79 286.416 633.14 286.086 632.55C285.756 631.95 285.306 631.475 284.736 631.125C284.176 630.765 283.551 630.585 282.861 630.585ZM302.094 627H306.504L298.284 649.5H293.904L296.604 642L291.204 627H295.734L298.674 636.345L302.094 627Z" fill="white"/>
<path d="M144.189 604V583H152.529C153.669 583 154.699 583.29 155.619 583.87C156.549 584.44 157.284 585.21 157.824 586.18C158.374 587.14 158.649 588.205 158.649 589.375C158.649 590.295 158.489 591.15 158.169 591.94C157.849 592.72 157.399 593.405 156.819 593.995C156.239 594.585 155.564 595.045 154.794 595.375L159.789 604H155.019L150.234 595.75H148.329V604H144.189ZM148.329 591.61H152.034C152.484 591.61 152.894 591.5 153.264 591.28C153.644 591.05 153.944 590.745 154.164 590.365C154.394 589.975 154.509 589.545 154.509 589.075C154.509 588.615 154.394 588.195 154.164 587.815C153.944 587.425 153.644 587.115 153.264 586.885C152.894 586.655 152.484 586.54 152.034 586.54H148.329V591.61ZM167.628 604.39C166.248 604.39 164.988 604.035 163.848 603.325C162.718 602.615 161.813 601.66 161.133 600.46C160.463 599.26 160.128 597.935 160.128 596.485C160.128 595.395 160.323 594.375 160.713 593.425C161.103 592.465 161.638 591.625 162.318 590.905C163.008 590.175 163.808 589.605 164.718 589.195C165.628 588.785 166.598 588.58 167.628 588.58C168.818 588.58 169.903 588.835 170.883 589.345C171.873 589.855 172.708 590.55 173.388 591.43C174.078 592.31 174.568 593.305 174.858 594.415C175.158 595.525 175.208 596.68 175.008 597.88H164.598C164.728 598.32 164.928 598.72 165.198 599.08C165.478 599.43 165.818 599.71 166.218 599.92C166.628 600.13 167.098 600.24 167.628 600.25C168.148 600.26 168.628 600.14 169.068 599.89C169.508 599.64 169.883 599.305 170.193 598.885L174.423 599.86C173.813 601.19 172.903 602.28 171.693 603.13C170.483 603.97 169.128 604.39 167.628 604.39ZM164.448 594.82H170.823C170.693 594.32 170.473 593.87 170.163 593.47C169.853 593.07 169.478 592.755 169.038 592.525C168.608 592.295 168.138 592.18 167.628 592.18C167.128 592.18 166.658 592.295 166.218 592.525C165.788 592.755 165.418 593.07 165.108 593.47C164.808 593.86 164.588 594.31 164.448 594.82ZM181.587 604.27C180.817 604.21 180.077 604.05 179.367 603.79C178.657 603.52 178.022 603.16 177.462 602.71C176.912 602.25 176.482 601.7 176.172 601.06L179.652 599.56C179.762 599.72 179.927 599.895 180.147 600.085C180.367 600.265 180.632 600.425 180.942 600.565C181.262 600.705 181.632 600.775 182.052 600.775C182.362 600.775 182.662 600.74 182.952 600.67C183.242 600.59 183.477 600.465 183.657 600.295C183.837 600.115 183.927 599.88 183.927 599.59C183.927 599.27 183.812 599.025 183.582 598.855C183.352 598.685 183.072 598.56 182.742 598.48C182.422 598.39 182.112 598.315 181.812 598.255C180.892 598.095 180.022 597.81 179.202 597.4C178.392 596.98 177.732 596.44 177.222 595.78C176.712 595.12 176.457 594.33 176.457 593.41C176.457 592.4 176.722 591.53 177.252 590.8C177.782 590.06 178.472 589.49 179.322 589.09C180.172 588.69 181.092 588.49 182.082 588.49C183.252 588.49 184.337 588.735 185.337 589.225C186.337 589.715 187.142 590.405 187.752 591.295L184.482 593.23C184.352 593.04 184.182 592.86 183.972 592.69C183.772 592.51 183.537 592.36 183.267 592.24C183.007 592.11 182.727 592.035 182.427 592.015C182.037 591.985 181.682 592.01 181.362 592.09C181.042 592.16 180.787 592.295 180.597 592.495C180.417 592.695 180.327 592.965 180.327 593.305C180.327 593.635 180.472 593.88 180.762 594.04C181.052 594.19 181.387 594.305 181.767 594.385C182.147 594.455 182.482 594.54 182.772 594.64C183.642 594.92 184.457 595.28 185.217 595.72C185.987 596.15 186.607 596.68 187.077 597.31C187.547 597.94 187.767 598.68 187.737 599.53C187.737 600.52 187.442 601.39 186.852 602.14C186.262 602.88 185.497 603.445 184.557 603.835C183.627 604.215 182.637 604.36 181.587 604.27ZM196.296 604.39C194.916 604.39 193.656 604.035 192.516 603.325C191.386 602.615 190.481 601.665 189.801 600.475C189.131 599.275 188.796 597.95 188.796 596.5C188.796 595.4 188.991 594.375 189.381 593.425C189.771 592.465 190.306 591.625 190.986 590.905C191.676 590.175 192.476 589.605 193.386 589.195C194.296 588.785 195.266 588.58 196.296 588.58C197.676 588.58 198.931 588.935 200.061 589.645C201.201 590.355 202.106 591.31 202.776 592.51C203.456 593.71 203.796 595.04 203.796 596.5C203.796 597.59 203.601 598.61 203.211 599.56C202.821 600.51 202.281 601.35 201.591 602.08C200.911 602.8 200.116 603.365 199.206 603.775C198.306 604.185 197.336 604.39 196.296 604.39ZM196.296 600.25C196.936 600.25 197.511 600.08 198.021 599.74C198.531 599.39 198.931 598.93 199.221 598.36C199.511 597.79 199.656 597.17 199.656 596.5C199.656 595.81 199.501 595.18 199.191 594.61C198.891 594.03 198.486 593.57 197.976 593.23C197.466 592.89 196.906 592.72 196.296 592.72C195.666 592.72 195.096 592.895 194.586 593.245C194.076 593.595 193.671 594.055 193.371 594.625C193.081 595.195 192.936 595.82 192.936 596.5C192.936 597.21 193.086 597.85 193.386 598.42C193.696 598.98 194.106 599.425 194.616 599.755C195.126 600.085 195.686 600.25 196.296 600.25ZM204.792 598.51V589H208.932V597.37C208.932 597.9 209.057 598.38 209.307 598.81C209.567 599.23 209.912 599.565 210.342 599.815C210.772 600.065 211.242 600.19 211.752 600.19C212.272 600.19 212.747 600.065 213.177 599.815C213.607 599.565 213.947 599.23 214.197 598.81C214.447 598.38 214.572 597.9 214.572 597.37V589H218.712L218.727 604H214.587L214.572 602.86C214.072 603.34 213.482 603.715 212.802 603.985C212.132 604.255 211.422 604.39 210.672 604.39C209.592 604.39 208.607 604.125 207.717 603.595C206.827 603.065 206.117 602.36 205.587 601.48C205.057 600.59 204.792 599.6 204.792 598.51ZM221.454 604L221.439 589H225.579L225.594 590.11C226.094 589.63 226.679 589.255 227.349 588.985C228.029 588.715 228.744 588.58 229.494 588.58C230.044 588.58 230.594 588.66 231.144 588.82L229.509 593.005C229.149 592.855 228.784 592.78 228.414 592.78C227.894 592.78 227.419 592.905 226.989 593.155C226.559 593.405 226.219 593.745 225.969 594.175C225.719 594.595 225.594 595.07 225.594 595.6V604H221.454ZM240.654 599.26L244.374 601.27C243.684 602.21 242.819 602.965 241.779 603.535C240.739 604.105 239.604 604.39 238.374 604.39C236.994 604.39 235.734 604.035 234.594 603.325C233.464 602.615 232.559 601.665 231.879 600.475C231.209 599.275 230.874 597.95 230.874 596.5C230.874 595.4 231.069 594.375 231.459 593.425C231.849 592.465 232.384 591.625 233.064 590.905C233.754 590.175 234.554 589.605 235.464 589.195C236.374 588.785 237.344 588.58 238.374 588.58C239.604 588.58 240.739 588.865 241.779 589.435C242.819 590.005 243.684 590.77 244.374 591.73L240.654 593.74C240.344 593.41 239.989 593.16 239.589 592.99C239.199 592.81 238.794 592.72 238.374 592.72C237.734 592.72 237.159 592.895 236.649 593.245C236.149 593.595 235.749 594.06 235.449 594.64C235.159 595.21 235.014 595.83 235.014 596.5C235.014 597.16 235.164 597.775 235.464 598.345C235.764 598.915 236.164 599.375 236.664 599.725C237.174 600.075 237.744 600.25 238.374 600.25C238.804 600.25 239.214 600.16 239.604 599.98C239.994 599.8 240.344 599.56 240.654 599.26ZM252.81 604.39C251.43 604.39 250.17 604.035 249.03 603.325C247.9 602.615 246.995 601.66 246.315 600.46C245.645 599.26 245.31 597.935 245.31 596.485C245.31 595.395 245.505 594.375 245.895 593.425C246.285 592.465 246.82 591.625 247.5 590.905C248.19 590.175 248.99 589.605 249.9 589.195C250.81 588.785 251.78 588.58 252.81 588.58C254 588.58 255.085 588.835 256.065 589.345C257.055 589.855 257.89 590.55 258.57 591.43C259.26 592.31 259.75 593.305 260.04 594.415C260.34 595.525 260.39 596.68 260.19 597.88H249.78C249.91 598.32 250.11 598.72 250.38 599.08C250.66 599.43 251 599.71 251.4 599.92C251.81 600.13 252.28 600.24 252.81 600.25C253.33 600.26 253.81 600.14 254.25 599.89C254.69 599.64 255.065 599.305 255.375 598.885L259.605 599.86C258.995 601.19 258.085 602.28 256.875 603.13C255.665 603.97 254.31 604.39 252.81 604.39ZM249.63 594.82H256.005C255.875 594.32 255.655 593.87 255.345 593.47C255.035 593.07 254.66 592.755 254.22 592.525C253.79 592.295 253.32 592.18 252.81 592.18C252.31 592.18 251.84 592.295 251.4 592.525C250.97 592.755 250.6 593.07 250.29 593.47C249.99 593.86 249.77 594.31 249.63 594.82ZM266.769 604.27C265.999 604.21 265.259 604.05 264.549 603.79C263.839 603.52 263.204 603.16 262.644 602.71C262.094 602.25 261.664 601.7 261.354 601.06L264.834 599.56C264.944 599.72 265.109 599.895 265.329 600.085C265.549 600.265 265.814 600.425 266.124 600.565C266.444 600.705 266.814 600.775 267.234 600.775C267.544 600.775 267.844 600.74 268.134 600.67C268.424 600.59 268.659 600.465 268.839 600.295C269.019 600.115 269.109 599.88 269.109 599.59C269.109 599.27 268.994 599.025 268.764 598.855C268.534 598.685 268.254 598.56 267.924 598.48C267.604 598.39 267.294 598.315 266.994 598.255C266.074 598.095 265.204 597.81 264.384 597.4C263.574 596.98 262.914 596.44 262.404 595.78C261.894 595.12 261.639 594.33 261.639 593.41C261.639 592.4 261.904 591.53 262.434 590.8C262.964 590.06 263.654 589.49 264.504 589.09C265.354 588.69 266.274 588.49 267.264 588.49C268.434 588.49 269.519 588.735 270.519 589.225C271.519 589.715 272.324 590.405 272.934 591.295L269.664 593.23C269.534 593.04 269.364 592.86 269.154 592.69C268.954 592.51 268.719 592.36 268.449 592.24C268.189 592.11 267.909 592.035 267.609 592.015C267.219 591.985 266.864 592.01 266.544 592.09C266.224 592.16 265.969 592.295 265.779 592.495C265.599 592.695 265.509 592.965 265.509 593.305C265.509 593.635 265.654 593.88 265.944 594.04C266.234 594.19 266.569 594.305 266.949 594.385C267.329 594.455 267.664 594.54 267.954 594.64C268.824 594.92 269.639 595.28 270.399 595.72C271.169 596.15 271.789 596.68 272.259 597.31C272.729 597.94 272.949 598.68 272.919 599.53C272.919 600.52 272.624 601.39 272.034 602.14C271.444 602.88 270.679 603.445 269.739 603.835C268.809 604.215 267.819 604.36 266.769 604.27Z" fill="#FFBD1A"/>
</g>
<rect x="140.5" y="60.5" width="95" height="39" rx="19.5" stroke="white"/>
<path d="M159.004 85.708C158.386 85.708 157.791 85.612 157.22 85.42C156.655 85.2227 156.159 84.9427 155.732 84.58C155.306 84.212 154.999 83.772 154.812 83.26L156.644 82.588C156.719 82.8013 156.871 82.996 157.1 83.172C157.33 83.348 157.61 83.4893 157.94 83.596C158.271 83.7027 158.626 83.756 159.004 83.756C159.394 83.756 159.756 83.6973 160.092 83.58C160.434 83.4573 160.708 83.2893 160.916 83.076C161.124 82.8573 161.228 82.604 161.228 82.316C161.228 82.0227 161.119 81.7827 160.9 81.596C160.682 81.404 160.402 81.252 160.06 81.14C159.719 81.028 159.367 80.9427 159.004 80.884C158.21 80.7613 157.498 80.572 156.868 80.316C156.239 80.06 155.74 79.7053 155.372 79.252C155.01 78.7987 154.828 78.212 154.828 77.492C154.828 76.8147 155.023 76.2227 155.412 75.716C155.802 75.2093 156.314 74.8147 156.948 74.532C157.583 74.2493 158.268 74.108 159.004 74.108C159.618 74.108 160.21 74.204 160.78 74.396C161.351 74.588 161.85 74.868 162.276 75.236C162.708 75.604 163.018 76.0467 163.204 76.564L161.364 77.228C161.29 77.0147 161.138 76.82 160.908 76.644C160.679 76.468 160.399 76.3293 160.068 76.228C159.738 76.1213 159.383 76.068 159.004 76.068C158.626 76.0627 158.266 76.124 157.924 76.252C157.588 76.3747 157.314 76.5427 157.1 76.756C156.887 76.9693 156.78 77.2147 156.78 77.492C156.78 77.8493 156.879 78.1187 157.076 78.3C157.279 78.4813 157.548 78.6147 157.884 78.7C158.22 78.78 158.594 78.8547 159.004 78.924C159.751 79.0413 160.442 79.2387 161.076 79.516C161.711 79.7933 162.22 80.164 162.604 80.628C162.988 81.0867 163.18 81.6493 163.18 82.316C163.18 82.9933 162.988 83.588 162.604 84.1C162.22 84.6067 161.711 85.0013 161.076 85.284C160.442 85.5667 159.751 85.708 159.004 85.708ZM169.009 79.452H167.457V85.5H165.505V79.452H164.321V77.5H165.505V74.988H167.457V77.5H169.009V79.452ZM173.74 85.708C173.004 85.708 172.332 85.5187 171.724 85.14C171.121 84.7613 170.639 84.252 170.276 83.612C169.919 82.972 169.74 82.2653 169.74 81.492C169.74 80.9107 169.844 80.3667 170.052 79.86C170.26 79.348 170.545 78.9 170.908 78.516C171.276 78.1267 171.703 77.8227 172.188 77.604C172.673 77.3853 173.191 77.276 173.74 77.276C174.364 77.276 174.935 77.4093 175.452 77.676C175.975 77.9373 176.417 78.2973 176.78 78.756C177.143 79.2147 177.407 79.7373 177.572 80.324C177.737 80.9107 177.775 81.524 177.684 82.164H171.836C171.911 82.4627 172.033 82.732 172.204 82.972C172.375 83.2067 172.591 83.396 172.852 83.54C173.113 83.6787 173.409 83.7507 173.74 83.756C174.081 83.7613 174.391 83.6813 174.668 83.516C174.951 83.3453 175.185 83.116 175.372 82.828L177.364 83.292C177.039 84.0013 176.553 84.5827 175.908 85.036C175.263 85.484 174.54 85.708 173.74 85.708ZM171.772 80.7H175.708C175.649 80.38 175.524 80.092 175.332 79.836C175.145 79.5747 174.913 79.3667 174.636 79.212C174.359 79.0573 174.06 78.98 173.74 78.98C173.42 78.98 173.124 79.0573 172.852 79.212C172.58 79.3613 172.348 79.5667 172.156 79.828C171.969 80.084 171.841 80.3747 171.772 80.7ZM180.89 89.5H178.938V77.5H180.89V78.516C181.151 78.1533 181.471 77.86 181.85 77.636C182.234 77.4067 182.682 77.292 183.194 77.292C183.78 77.292 184.327 77.4013 184.834 77.62C185.34 77.8387 185.786 78.1427 186.17 78.532C186.559 78.916 186.86 79.3613 187.074 79.868C187.292 80.3747 187.402 80.9187 187.402 81.5C187.402 82.0813 187.292 82.628 187.074 83.14C186.86 83.652 186.559 84.1027 186.17 84.492C185.786 84.876 185.34 85.1773 184.834 85.396C184.327 85.6147 183.78 85.724 183.194 85.724C182.682 85.724 182.234 85.612 181.85 85.388C181.471 85.1587 181.151 84.8627 180.89 84.5V89.5ZM183.17 79.172C182.764 79.172 182.402 79.2787 182.082 79.492C181.762 79.7 181.511 79.98 181.33 80.332C181.148 80.684 181.058 81.0733 181.058 81.5C181.058 81.9267 181.148 82.3187 181.33 82.676C181.511 83.028 181.762 83.3107 182.082 83.524C182.402 83.732 182.764 83.836 183.17 83.836C183.58 83.836 183.956 83.732 184.298 83.524C184.639 83.316 184.911 83.036 185.114 82.684C185.316 82.3267 185.418 81.932 185.418 81.5C185.418 81.0733 185.316 80.684 185.114 80.332C184.911 79.98 184.639 79.7 184.298 79.492C183.962 79.2787 183.586 79.172 183.17 79.172ZM192.592 85.5V74.3H199.208V76.252H194.544V78.524H198.44V80.476H194.544V85.5H192.592ZM203.204 85.708C202.468 85.708 201.796 85.5187 201.188 85.14C200.586 84.7613 200.103 84.2547 199.74 83.62C199.383 82.98 199.204 82.2733 199.204 81.5C199.204 80.9133 199.308 80.3667 199.516 79.86C199.724 79.348 200.01 78.9 200.372 78.516C200.74 78.1267 201.167 77.8227 201.652 77.604C202.138 77.3853 202.655 77.276 203.204 77.276C203.94 77.276 204.61 77.4653 205.212 77.844C205.82 78.2227 206.303 78.732 206.66 79.372C207.023 80.012 207.204 80.7213 207.204 81.5C207.204 82.0813 207.1 82.6253 206.892 83.132C206.684 83.6387 206.396 84.0867 206.028 84.476C205.666 84.86 205.242 85.1613 204.756 85.38C204.276 85.5987 203.759 85.708 203.204 85.708ZM203.204 83.756C203.594 83.756 203.943 83.652 204.252 83.444C204.562 83.236 204.804 82.9613 204.98 82.62C205.162 82.2787 205.252 81.9053 205.252 81.5C205.252 81.084 205.159 80.7053 204.972 80.364C204.791 80.0173 204.543 79.7427 204.228 79.54C203.919 79.332 203.578 79.228 203.204 79.228C202.82 79.228 202.474 79.332 202.164 79.54C201.855 79.748 201.61 80.0253 201.428 80.372C201.247 80.7187 201.156 81.0947 201.156 81.5C201.156 81.9213 201.25 82.3027 201.436 82.644C201.623 82.9853 201.871 83.2573 202.18 83.46C202.495 83.6573 202.836 83.756 203.204 83.756ZM207.91 82.54V77.5H209.862V82.028C209.862 82.3427 209.939 82.6307 210.094 82.892C210.249 83.148 210.454 83.3533 210.71 83.508C210.971 83.6573 211.257 83.732 211.566 83.732C211.886 83.732 212.174 83.6573 212.43 83.508C212.686 83.3533 212.891 83.148 213.046 82.892C213.201 82.6307 213.278 82.3427 213.278 82.028V77.5H215.23L215.238 85.5H213.286L213.278 84.772C213.001 85.06 212.673 85.2893 212.294 85.46C211.915 85.6253 211.51 85.708 211.078 85.708C210.497 85.708 209.966 85.5667 209.486 85.284C209.006 84.996 208.622 84.6147 208.334 84.14C208.051 83.66 207.91 83.1267 207.91 82.54ZM216.799 85.5L216.791 77.5H218.743L218.751 78.212C219.023 77.924 219.349 77.6973 219.727 77.532C220.106 77.3613 220.514 77.276 220.951 77.276C221.245 77.276 221.538 77.3187 221.831 77.404L221.063 79.372C220.861 79.292 220.658 79.252 220.455 79.252C220.141 79.252 219.853 79.3293 219.591 79.484C219.335 79.6333 219.13 79.8387 218.975 80.1C218.826 80.356 218.751 80.6413 218.751 80.956V85.5H216.799Z" fill="white"/>
</g>
<defs>
<filter id="filter0_ddddd_4_2441" x="-403" y="88" width="1180" height="1365" filterUnits="userSpaceOnUse" color-interpolation-filters="sRGB">
<feFlood flood-opacity="0" result="BackgroundImageFix"/>
<feColorMatrix in="SourceAlpha" type="matrix" values="0 0 0 0 0 0 0 0 0 0 0 0 0 0 0 0 0 0 127 0" result="hardAlpha"/>
<feOffset/>
<feColorMatrix type="matrix" values="0 0 0 0 0.294118 0 0 0 0 0.203922 0 0 0 0 0.145098 0 0 0 0.05 0"/>
<feBlend mode="normal" in2="BackgroundImageFix" result="effect1_dropShadow_4_2441"/>
<feColorMatrix in="SourceAlpha" type="matrix" values="0 0 0 0 0 0 0 0 0 0 0 0 0 0 0 0 0 0 127 0" result="hardAlpha"/>
<feOffset dy="-17"/>
<feGaussianBlur stdDeviation="19"/>
<feColorMatrix type="matrix" values="0 0 0 0 0.294118 0 0 0 0 0.203922 0 0 0 0 0.145098 0 0 0 0.05 0"/>
<feBlend mode="normal" in2="effect1_dropShadow_4_2441" result="effect2_dropShadow_4_2441"/>
<feColorMatrix in="SourceAlpha" type="matrix" values="0 0 0 0 0 0 0 0 0 0 0 0 0 0 0 0 0 0 127 0" result="hardAlpha"/>
<feOffset dy="-69"/>
<feGaussianBlur stdDeviation="34.5"/>
<feColorMatrix type="matrix" values="0 0 0 0 0.294118 0 0 0 0 0.203922 0 0 0 0 0.145098 0 0 0 0.04 0"/>
<feBlend mode="normal" in2="effect2_dropShadow_4_2441" result="effect3_dropShadow_4_2441"/>
<feColorMatrix in="SourceAlpha" type="matrix" values="0 0 0 0 0 0 0 0 0 0 0 0 0 0 0 0 0 0 127 0" result="hardAlpha"/>
<feOffset dy="-154"/>
<feGaussianBlur stdDeviation="46.5"/>
<feColorMatrix type="matrix" values="0 0 0 0 0.294118 0 0 0 0 0.203922 0 0 0 0 0.145098 0 0 0 0.03 0"/>
<feBlend mode="normal" in2="effect3_dropShadow_4_2441" result="effect4_dropShadow_4_2441"/>
<feColorMatrix in="SourceAlpha" type="matrix" values="0 0 0 0 0 0 0 0 0 0 0 0 0 0 0 0 0 0 127 0" result="hardAlpha"/>
<feOffset dy="-274"/>
<feGaussianBlur stdDeviation="55"/>
<feColorMatrix type="matrix" values="0 0 0 0 0.294118 0 0 0 0 0.203922 0 0 0 0 0.145098 0 0 0 0.01 0"/>
<feBlend mode="normal" in2="effect4_dropShadow_4_2441" result="effect5_dropShadow_4_2441"/>
<feBlend mode="normal" in="SourceGraphic" in2="effect5_dropShadow_4_2441" result="shape"/>
</filter>
<clipPath id="clip0_4_2441">
<rect width="375" height="812" fill="white"/>
</clipPath>
</defs>
</svg>
